<svg version="1.2" xmlns="http://www.w3.org/2000/svg" viewBox="0 0 700 276" width="700" height="276"><style>.a{fill:#564c44}.b{fill:#564b44}.c{fill:#faebd7}</style><path class="a" d="m697.1 179.4c-0.8 7.3-2.5 14.4-3.1 21.7-0.3 2.5-0.5 4.8-1.5 7-1.6 6.1-4.5 11.4-10.4 11.8-7.1 0.6-13-1.7-19.6-3.6-8.1-2.3-18.1-1.7-25.9 1.4-10.8 4.4-21.3 9.2-31.8 1.1-8-6.3-13.2-16.3-12.9-26.7-6.3 0.1-12.5 0.5-18.5 2.7-1.6 2.2-3.5 4.2-5.6 5.8-8.8 6.5-18.8 13.2-28.8 17.5-4.8 2.1-10 3.6-15.1 4.7-4.6 0.9-9.3 0.5-13.8 1.3-0.5 6.8-3.8 12.7-10.2 17.5-9.1 6.9-20.3 10-31.6 6.6-0.3 2.8-2.2 5.4-4.7 7.8-9.4 9.1-25.2 13.2-36.8 6.3-0.2 0-0.4-0.2-0.6-0.4q-0.1 0-0.1 0c-0.4-0.3-0.9-0.6-1.3-0.9q-0.2-0.2-0.3-0.4c-6 10-16.5 15.2-28.5 12.6-5.4-1.2-10.1-3.8-14.4-7.2-13.4 13.2-31.9 6.6-46.3-1.4-6.4-3.5-12.1-7.8-17.7-12.3-13.8 3.9-30.8 19.2-46.2 11.9-1.7-0.9-3.2-2-4.4-3.3-5.4 2.4-10.5 7.6-16.8 5.4-4.7-1.6-10.7-3.7-14.3-7.2-3.7-3.5-5.6-7.9-7.4-12.5-10.7 3.4-22 4.4-27.9-7.1-3.2-6.2-5.7-13.4-7.9-20.1-11 3.7-27.6 3.2-36.3-5.3-3.4-3.3-3.6-10-0.8-14-7.8 0.4-15.5 1.1-22.7 1.3-7.3 0.1-14.5-0.6-21.7-1.3 0.1 12.6-6.8 26.1-20.4 28.3-7 1.1-13.9 0.3-20.7-1.7-7.4-2.2-15.6-6.9-23.3-7.2-5.8-0.2-11.1 1-16.4 3.2-2.3 0.9-4.9 1.8-7.4 0.9-5.2-1.9-10.4-5.8-13.1-10.7-3.6-6.7-2.3-14.3-3.8-21.5-0.8-4.1-1.2-8.3-1.2-12.5-0.5-3.3-0.9-6.6-1.1-9.9-1.1-12.6-1.9-25.3-1.6-37.9 0.4-23.7 4.4-48.6 12-71.1 3.3-10.1 7.8-19.8 13.6-28.6 4.1-6.3 9.4-14.3 16.7-17.2 9.1-3.7 19.9 0.9 28.6 3.7 5.8 2 11.2 2.9 17.3 2.5 2.1-0.1 4.1-0.2 6.1 0.2q3-0.5 6.2-0.7c15.9-0.9 28.8 6.3 28.3 22.8 3-0.1 6.1-0.3 9.2-0.5 10.7-0.7 22-3 32.7-4.8 19.6-3.3 36.6-13.9 55.7-19 19.1-5.1 39-7 58.4-10.5 16.5-3 34.8-5.4 51.7-3.3 6-1.3 12.1-1.9 18-2.3 10.4-0.8 20 1.7 30.1 3.5 11.3 2.2 22.1 5.1 33.6 6.4 19.2 2.2 39.5 1.2 57.8 8.2 8.5 3.2 17.4 7.8 24.6 13.3 2.7 2.1 5.3 4.4 8 6.6 4.5 0.8 9.4 0.5 13.9 0.5 6.3 0 12.5 0.2 18.8 0.1 7.6-0.1 15-0.8 22.5-1.8 11.6-12.6 26.5-24.4 44.5-22.7 1.4 0.2 2.8 0.4 4.4 0.7 7.1-0.5 12.8-1.7 19.6-3.9 5.4-1.7 11.3-2.9 17-2.5 7.2 0.5 12.6 3.9 17.1 9.4 4.9 5.7 7.9 13 10.7 20 3.7 9.3 7.9 18.4 10.6 28.2 6.3 23.4 7.5 47.8 7.6 72 0.1 12.9 1 26.3-0.4 39.1z" style="fill: rgb(86, 76, 68);"></path><path fill-rule="evenodd" class="b" d="m402.1 276q-3.2 0-6.5-0.7c-4.8-1.1-9.3-3.2-13.9-6.5-5.2 4.6-11.4 6.9-18.6 6.9-8.3 0-17.7-3-28.8-9.2-5.9-3.3-11.2-7.1-17.2-11.8-3.7 1.2-7.8 3.2-12.1 5.4-8 4-16.3 8.1-24.7 8.1-3.5 0-6.8-0.7-9.8-2.1q-2.1-1-3.9-2.6-1.4 0.7-2.8 1.6c-3.2 1.9-6.6 3.9-10.5 3.9q-1.9 0-3.8-0.7c-5-1.7-11.1-3.9-15.1-7.7-3.5-3.3-5.4-7.2-7.1-11.4-4.3 1.2-8 1.8-11.2 1.8-7.9 0-13.8-3.5-17.4-10.5-2.9-5.8-5.3-12.2-7.3-18.5-4 1.1-8.4 1.7-12.8 1.7-9.9 0-18.3-2.8-23.7-8.1-3.2-3.1-4.2-8.5-2.8-13.2q-3.1 0.2-6.1 0.4c-4.4 0.3-8.8 0.6-13.1 0.7-6.7 0.1-13.5-0.4-19.6-1-0.9 16.9-11.9 26.3-22.2 28-6.8 1.1-13.9 0.5-21.6-1.8-2.6-0.8-5.3-1.8-7.9-2.9-5-2-10.2-4-14.9-4.2-5.1-0.2-10.1 0.8-15.5 3-1.8 0.8-3.8 1.5-5.9 1.5q-1.6 0-3-0.5c-6.2-2.3-11.5-6.7-14.2-11.7-2.6-4.7-2.9-9.6-3.2-14.5-0.2-2.6-0.3-5.1-0.9-7.6-0.8-3.9-1.2-8.1-1.3-12.7-0.5-3.8-0.8-7-1.1-10-0.9-11.3-1.8-24.7-1.6-38 0.5-24.8 4.7-49.6 12.1-71.8 3.7-10.8 8.4-20.6 13.9-29.1 3.8-5.9 9.6-14.7 17.7-18 2.5-1 5.3-1.5 8.4-1.5 6.4 0 13 2.3 18.8 4.3q1.5 0.5 2.9 0.9c6 2 10.9 2.7 16.4 2.4 2.3-0.2 4.5-0.1 6.3 0.2q2.9-0.5 6.1-0.7 1.4-0.1 2.7-0.1c9.3 0 16.8 2.7 21.7 7.7 3.8 3.9 5.8 9 6.1 15.1q3.5-0.2 7-0.4c8.4-0.6 17.3-2.1 25.9-3.6q3.3-0.6 6.5-1.2c10.9-1.8 21.3-6.1 31.3-10.2 7.8-3.2 15.9-6.5 24.3-8.7 12.7-3.4 25.9-5.5 38.7-7.4 6.5-1 13.3-2 19.8-3.2 10.6-1.9 24.6-4.1 38.7-4.1 4.7 0 9.2 0.2 13.3 0.7 5.2-1 10.9-1.7 18-2.2q2-0.2 4-0.2c7.5 0 14.7 1.4 21.7 2.8q2.4 0.5 4.9 1c3.9 0.7 7.8 1.5 11.6 2.4 7.1 1.5 14.4 3 21.8 3.9 5.5 0.6 11.3 1 16.9 1.4 13.8 0.9 28.2 1.8 41.5 6.9 6.6 2.5 16.3 6.9 25.1 13.7 1.8 1.3 3.6 2.9 5.4 4.3q1.1 1 2.2 1.9c2.3 0.4 4.8 0.4 6.8 0.4q1.5 0 3 0 1.4 0 2.9 0h0.3q3.5 0 7 0c3.9 0.1 7.8 0.1 11.8 0.1 6.6-0.1 13.6-0.6 21.4-1.7 9.4-10 23.8-23 42.1-23q1.9 0 3.8 0.2 2.1 0.2 4.2 0.7c6.4-0.5 11.9-1.6 18.8-3.8 7-2.2 12.5-3 17.9-2.6 7.3 0.5 13.3 3.8 18.6 10.1 5.2 6.2 8.4 14.2 10.9 20.6q1.4 3.3 2.7 6.5c2.9 7.1 6 14.3 8 21.9 6.6 24.3 7.6 49.2 7.7 72.6 0 3.4 0.1 7 0.2 10.5 0.2 9.5 0.5 19.3-0.6 28.9-0.3 3.4-0.9 6.8-1.5 10.2-0.6 3.7-1.3 7.6-1.6 11.3-0.3 2.9-0.5 5.2-1.6 7.6-2.2 8.3-6.3 12.8-12.2 13.3-6.3 0.4-11.6-1.1-17.2-2.8q-1.6-0.5-3.2-1c-3-0.8-6.4-1.3-9.9-1.3-5.2 0-10.3 1-14.6 2.7l-1.4 0.5c-6.1 2.5-12.4 5.1-18.8 5.1-5 0-9.5-1.6-13.7-4.8-8.1-6.4-13.3-16.2-13.7-26.2-4.9 0.1-10.1 0.6-15.1 2.3-1.8 2.4-3.6 4.2-5.7 5.8-8.6 6.2-18.7 13.2-29.2 17.7-4.6 2-10 3.6-15.5 4.7-2.5 0.6-5.1 0.7-7.6 0.8-1.6 0.1-3.2 0.2-4.7 0.4-0.9 6.7-4.5 12.5-10.8 17.3-9.7 7.3-20.8 10-31.4 7.5-0.8 2.2-2.3 4.5-4.7 6.8-6.7 6.4-16.1 10.3-25.2 10.3-5.1 0-9.8-1.2-14-3.6q-0.5-0.2-0.9-0.6c-5.5 7.9-13.7 12.3-22.9 12.3zm-20.7-12.8l1.5 1.2c4.5 3.5 9 5.7 13.6 6.7q2.9 0.6 5.6 0.6c8.5 0 15.9-4.4 20.5-12.1l1.6-2.8 1.9 2.6c0.2 0.1 0.5 0.3 0.8 0.4l1 0.7c3.5 2.1 7.6 3.1 12 3.1 7.9 0 16.4-3.5 22.2-9.1 2.5-2.4 3.8-4.6 4.1-6.6l0.3-2.5 2.4 0.7c9.8 3 20.5 0.8 29.7-6.2 5.9-4.4 8.9-9.6 9.4-15.9l0.1-1.7 1.6-0.3c2.3-0.4 4.6-0.5 6.8-0.6 2.4-0.1 4.7-0.3 7-0.7 5.2-1.1 10.3-2.7 14.7-4.5 10-4.3 19.9-11.2 28.3-17.3 1.8-1.3 3.5-3.1 5.2-5.3l0.3-0.6 0.7-0.2c6.5-2.4 13.3-2.8 19.2-2.8h2.2l-0.1 2.2c-0.2 9.4 4.4 18.9 12.2 24.9 3.3 2.7 7 4 11 4 5.6 0 11.2-2.3 17.2-4.8l1.4-0.5c4.8-2 10.5-3 16.2-3 3.9 0 7.6 0.5 11.1 1.4q1.6 0.5 3.2 1c5.2 1.6 10.1 3 15.6 2.6 4-0.3 6.8-3.7 8.5-10.3l0.2-0.3c0.8-1.8 1-3.8 1.2-6.3 0.4-4 1.1-7.9 1.7-11.7 0.6-3.3 1.2-6.7 1.5-10 1-9.2 0.8-18.9 0.6-28.3-0.1-3.5-0.2-7.1-0.2-10.6-0.1-23.1-1.1-47.7-7.6-71.5-2-7.3-4.9-14.4-7.8-21.3q-1.4-3.3-2.7-6.7c-2.4-6.1-5.5-13.7-10.3-19.4-4.5-5.4-9.5-8.1-15.6-8.6q-1.1-0.1-2.2-0.1c-4 0-8.7 0.9-14.1 2.6-7.4 2.3-13.2 3.5-20.1 3.9h-0.3-0.3q-2-0.4-4.1-0.6-1.7-0.2-3.3-0.2c-13 0-25.5 7-39.5 22.2l-0.5 0.5-0.7 0.1c-8.4 1.2-15.8 1.8-22.8 1.8-3.9 0.1-7.9 0-11.9 0q-3.4-0.1-6.9-0.1h-0.3q-1.4 0-2.9 0.1-1.5 0-3 0c-2.3 0-5.3-0.1-8.1-0.6l-0.6-0.1-0.4-0.4q-1.3-1.1-2.7-2.2c-1.7-1.5-3.4-3-5.1-4.3-6.6-5-15.2-9.6-24.2-13-12.6-4.9-26.7-5.8-40.2-6.7-5.6-0.3-11.4-0.7-17.1-1.4-7.6-0.9-15-2.4-22.2-4-3.7-0.8-7.6-1.6-11.5-2.4q-2.5-0.4-4.9-0.9c-7.1-1.4-13.8-2.7-20.9-2.7q-1.9 0-3.7 0.1c-7 0.5-12.7 1.2-17.8 2.2l-0.3 0.1h-0.3c-4.1-0.5-8.6-0.8-13.2-0.8-13.8 0-27.5 2.2-37.9 4.1-6.6 1.2-13.4 2.2-20 3.2-12.6 1.9-25.7 3.9-38.2 7.3-8.2 2.1-16.1 5.4-23.7 8.5-10.3 4.2-20.9 8.6-32.3 10.5q-3.2 0.6-6.5 1.1c-8.7 1.6-17.7 3.2-26.3 3.7q-4 0.3-7.8 0.5l-3.8 0.1 0.1-2.3c0.1-5.9-1.5-10.7-4.9-14.2-4.5-4.6-12.2-6.9-21.2-6.4q-3.1 0.2-6 0.7l-0.4 0.1-0.4-0.1c-0.9-0.2-1.9-0.3-3.1-0.3q-1.2 0-2.4 0.1-1.4 0.1-2.8 0.1c-5 0-9.8-0.8-15.3-2.6q-1.4-0.5-2.8-1c-5.5-1.9-11.8-4-17.5-4-2.6 0-4.8 0.4-6.8 1.2-6.8 2.7-12.2 10.9-15.7 16.3-5.4 8.2-9.9 17.7-13.4 28.2-7.3 21.7-11.4 46.1-11.9 70.5-0.3 13.1 0.7 26.3 1.6 37.6 0.2 2.9 0.6 6.1 1.1 9.8v0.3c0.1 4.4 0.4 8.4 1.2 12.1 0.6 2.7 0.8 5.5 0.9 8.2 0.3 4.5 0.6 8.8 2.7 12.6 2.2 4.2 6.8 7.9 11.9 9.8 1.7 0.6 3.9-0.1 5.9-0.9 5.9-2.5 11.5-3.6 17.2-3.3 5.5 0.2 11 2.3 16.3 4.5 2.7 1 5.2 2 7.6 2.7 7.1 2.1 13.5 2.7 19.7 1.7 12.9-2.1 18.8-15 18.7-26.2v-2.3l2.3 0.2c6.6 0.7 14.1 1.4 21.4 1.3 4.2-0.1 8.4-0.4 12.9-0.7 3.2-0.2 6.5-0.4 9.8-0.6l4.3-0.2-2.5 3.6c-2.3 3.2-2 8.7 0.6 11.2 4.5 4.4 12 6.9 20.7 6.9 4.7 0 9.4-0.8 13.4-2.1l2.1-0.7 0.6 2c2.2 6.7 4.7 13.8 7.8 19.8 2.9 5.7 7.2 8.3 13.6 8.3 3.3 0 7.1-0.7 11.8-2.2l1.9-0.6 0.7 1.8c1.8 4.6 3.5 8.6 6.8 11.7 3.3 3.2 9 5.2 13.6 6.8 3.6 1.2 7-0.7 10.7-2.9 1.5-0.8 3-1.7 4.5-2.4l1.4-0.6 1 1c1.2 1.3 2.4 2.2 3.9 2.8 2.4 1.2 5 1.8 7.9 1.8 7.4 0 15.3-3.9 22.8-7.7 4.9-2.5 9.5-4.8 13.9-6l1-0.3 0.9 0.6c6.2 5 11.5 8.9 17.4 12.2 10.5 5.8 19.3 8.6 26.8 8.6 6.7 0 12.3-2.2 17-6.9z" style="fill: rgb(86, 75, 68);"></path><path class="c" d="m196.2 218.1q-0.2-0.1-0.4-0.1-0.8-2.3-1.6-4.7c-1.6-4.9-5.5-11.6-5.4-17 2.2 2.5 6.8 3 9.9 1.5 5.2-2.4 5.7 6.7 6.7 9.6 0.6 2 1.1 4 1.3 6 0.7 6.2-6.2 6.9-10.5 4.7z" style="fill: rgb(243, 238, 228);"></path><path class="c" d="m220.2 218.3c-1.8-3.7-4.8-8.6-5.1-12.9q0.8 0.4 1.6 0.7c5 1.8 9.2 0.4 13-2.5 2.6 3.3 3.2 8.4 4.3 12.4 0.8 3 3 7.9 0.6 10.7-2 2.3-6.6 3.1-9.4 2.1q-0.2 0-0.3 0c-1.5-3.6-3-7.1-4.7-10.5z" style="fill: rgb(243, 238, 228);"></path><path class="c" d="m217.5 219.8c3.7 7.7 6.7 15.7 9.8 23.7-3.6 1-7.1 2.2-10.8 2.6-6.5 0.7-11.4-4.3-13.7-9.7q-3.1-7.4-5.8-15c3.1 1.4 6.9 1.4 9.7-1 3.4-3 2.9-7.1 1.9-11.2-0.6-2.2-1.5-4.4-2.1-6.7-0.7-2.4-0.7-4.8-2.2-6.9-3.7-5-11.3 4.4-14.9-2.2 0.7-1.9 2.3-3.6 5.2-4.7 8-3.4 15.6 2 19.7 8.5-5.7 5.7-0.1 15.6 3.2 22.6z" style="fill: rgb(243, 238, 228);"></path><path class="c" d="m101.6 199.3q2.9 0.2 5.8 0.5c-0.4 15.3-9.7 26-25.8 25.3-12.2-0.6-22.9-7.9-34.8-9.4-5-0.6-10.4 0.8-15.1 2.4-5.9 2.1-8.8 2.2-13.6-1.8-2.8-2.4-5.1-5.5-6.3-8.9-1.8-4.6-1.4-10.2-2.3-15.2-1.4-16.6-3.1-33.3-3.7-50-0.7-22.9 2.6-45 7.9-67.2 4.5-18.8 12.2-39.1 26.3-53 9-8.9 21.6-3.8 32.1-0.4 4.2 1.4 8.5 2.4 12.9 2.6q1 0 2-0.1c-1.3 0.8-2.5 1.7-3.7 2.7-7 6.4-10.6 16.5-15.7 24.3-0.5 0.7 0.6 1.5 1.2 0.9 9.4-8.6 12.3-23.7 25.7-27 6.6-1.7 14.3-1.7 20.8-0.1 9.2 2.3 11.8 9.8 12.9 17.9q-3.9 0.2-7.9 0.6-0.2-0.1-0.3-0.1-2.6 0.1-4.7 0.7-0.7 0.1-1.4 0.2c-0.5 0.1-0.9 0.4-1 0.8-2.9 1.5-5 3.9-6.8 7.6-4.4 8.5-6.7 18.6-9.5 27.7-7 22.3-8.5 44.3-10.6 67.4-1.1 11.2-2.3 22.3-2.8 33.5-0.3 8.2-0.8 16.2 3 23.7 1.9 3.8 5.9 8.1 10.4 6.1 3.5-1.6 4.6-7.8 5-11.7z" style="fill: rgb(243, 238, 228);"></path><path class="c" d="m257.3 241.9c2.3 5.2 4.1 11.5 7.4 16.3-3.1 1.5-5.9 3.5-9.2 4.9-4.3 1.8-10.7-2.7-14.5-4.5-8.7-4.4-11.7-17.7-14.9-26.8 4.7 1 12-2.1 12-7.2-0.1-4.4-1.6-8.6-2.7-12.9-1-3.8-2-7.7-4.7-10.8-0.3-0.3-1-0.5-1.5-0.1-2.6 2-4.6 3.2-8 3.3-1.2 0-4.4-0.1-5.9-1.3 0.5-2.1 1.9-3.8 4.8-5 5.2-2.2 12.4-1.9 17.4 0.6 3.2 1.6 5.6 4.9 8.4 7.2-0.8 1.7-1.1 3.8-0.6 6.4 0.8 5 4.4 10.1 6.2 14.8 2 5 3.7 10.1 5.8 15.1z" style="fill: rgb(243, 238, 228);"></path><path class="a" d="m89.5 203q-0.9-1.5-1.5-3.2c1.9-0.1 3.8-0.3 5.7-0.5 1.2-0.1 2.4-0.1 3.6-0.3q0.4 0 0.8 0c-1.4 5.2-3.2 12.3-8.6 4z" style="fill: rgb(86, 76, 68);"></path><path class="c" d="m187.7 205.4c1.6 3.3 2.7 6.8 3.8 10.4-7.3 1.3-14 1.9-21.4 0.6-3.1-0.6-5.9-1.6-8.6-3.1-4.2-2.5-6.1-9.9-1.9-13.3 9.5-0.2 19 0.6 27.6 4.3q0.3 0.5 0.5 1.1z" style="fill: rgb(243, 238, 228);"></path><path class="c" d="m500.5 202.5c4.1 11.8 10.6 23 0.2 33.7-8.3 8.3-20.2 11.7-31.6 8.8q-0.6-0.1-1.1 0.1-0.2-0.9-0.7-1.9c-4.5-9-8.6-18.5-12.8-27.7-4.3-9.6-8.7-19.2-12.9-28.8-3.8-8.7-7.1-15.5-13.8-22.3-7.2-7.3-13-15.7-20.7-22.5-3.8-3.4-7.9-6.3-11.8-9.6-3.6-3-6.5-6.7-10.2-9.5-0.6-0.4-1.2 0.4-0.7 0.9 5 5.1 9.2 10.7 14.6 15.6 6.4 5.7 12.2 11.6 17.8 18.1 4.9 5.8 11.5 11.1 15.5 17.5 4.4 7 7.1 15.6 10.5 23.1 6.5 14.6 13.2 28.9 19.5 43.5 1.7 4 2.8 6.5-0.2 10.4-2.3 2.9-5.4 4.8-8.7 6.6-7.8 4.1-17.4 5-25.2 0.7-6.9-10.6-15.4-19.7-21.3-31-5.9-11.4-11.3-22.8-18.9-33.3-7.3-10.1-16.1-18.7-25.6-26.8-4.3-3.7-8.4-7.6-13-10.9-5.9-4.3-12.3-7.9-17.9-12.8-0.5-0.4-1.1 0.2-0.7 0.7 4 4.4 8.7 8 13.4 11.6 4.9 3.8 9.2 8.2 13.8 12.4 10.2 9.3 20 18.4 28.3 29.6 7.7 10.3 12.7 22.1 18.5 33.5 4.8 9.1 11.2 17.8 17.9 25.7-2 2.1-3.3 4.5-5.3 6.7-2.3 2.4-6.4 3.6-9.4 4.6-7.1 2.3-15.5-0.3-21.7-4-5.8-3.5-11-10.6-15.7-15.5-5.2-5.4-9.7-11.5-14.4-17.3-9.2-11.5-16.8-22.8-28.8-31.4-6.2-4.4-12.6-8.6-19.2-12.4-6.1-3.5-12.8-6-18.5-10.3-0.2-0.3-0.6 0.2-0.3 0.5 5 5.1 11.5 8.2 17.5 12.2 7 4.7 13.7 9.9 20.6 14.8 7.6 5.4 12.1 12.1 17.8 19.2 6 7.4 12.1 14.6 18.2 21.9 4.7 5.6 9.7 11.8 15.4 16.9-8.3 5.1-15 7.3-25 4.7-8-2.1-15.7-6.4-22.7-10.7-7.1-4.4-13.4-9.8-20.1-14.8-7.3-5.4-15.3-9.8-22.3-15.4q-0.1-0.1-0.2-0.1c-3.5-11.7-9.2-23.7-21-26.8-6.3-1.7-15.4-1.8-19.8 2.4-3.1-3.3-6.2-7.6-10.5-9-6-1.9-12.2-1.9-18.1 0.2q-1.5 0.5-2.6 1.2c-5-15.5-34-15.4-31.3 4q0 0.2 0.1 0.5c-13.5-6.6-33.4-3.3-47.2-2.8-9.5 0.4-18.8 0.3-28.2-0.6-7.2-0.8-14.7-1.8-21.8-0.2q-0.5 0-1.1 0.1c-0.8-5-0.2-10.6 0-15.3 0.8-16.4 2.9-32.7 4-49.1 1.1-17.6 3.7-34 9.1-50.8 2.3-7.4 4.8-14.6 7.2-21.9 1.5-4.4 3.5-9.9 8.3-11.9q0.2-0.1 0.4-0.2c8-0.6 16-1.1 24.1-1.4 10.2-0.3 20.5-3 30.7-4.4 19.1-2.5 35.7-12 53.8-17.9 18.8-6.1 38.8-7.4 58.2-11 10.2-1.9 20.3-3.6 30.6-4.1 4.3-0.3 8.7-0.3 13.1-0.3-7.1 3.3-12.4 9-18 14.6-14.4 14.6-28 29.4-46.8 38.4-13.2 6.2-17.3 20.3-8.1 31.9 10.6 13.5 27.1 17.1 43.3 13.1 18.3-4.5 33.9-19.1 49.6-28.9 2-1.2 4-2.3 6.1-3.2 4.8 0.7 9.8 3.3 14.6 4.2 6.8 1.2 13.3 2.4 19.9 4.5 12.1 3.8 23.6 7.6 36 9.9q0.1 0.3 0.4 0.4c6.5 5.7 8.7 16.4 13.5 23.5 6.1 9.2 17.5 16.3 26.8 21.7q4.1 2.4 8.5 4.5c2.8 3.5 5.4 6.7 7 11.3 1.6 4.7 3.7 9.2 5.8 13.7 5.2 11.5 11.1 22.7 15.3 34.7z" style="fill: rgb(243, 238, 228);"></path><path class="a" d="m613.5 191.4q-0.1 3.1-0.1 6.3c0 2.1 0.7 9.3-4.7 4.9-3-2.4-4.6-6.6-5.1-10.4 3.3-0.1 6.6-0.3 9.9-0.8z" style="fill: rgb(86, 76, 68);"></path><path class="c" d="m693.8 137.8c0.1 11.2 0.1 22.4 0 33.6-0.2 7.1-1.1 14-2.3 21.1-0.4 2.4-0.5 5.4-0.8 8.3q-1.4 3.8-2.8 7.6c-3.3 8.9-10.6 8.3-18.4 6.2-4.2-1.2-8.2-2.8-12.6-3.4-5.6-0.7-11.9 0.4-17.4 1.5-11.1 2.3-19.3 10.8-30.9 4.1-8.4-4.8-12.8-15.4-14.5-24.7q2.9 0.1 5.8 0.1c0.4 5.3 3.2 12.1 7.9 14.6 4 2.1 7.4 1.4 9-3 0.8-2.2 0.5-5.1 0.4-7.4 0-5.8 0.7-11.6 0.5-17.5-0.4-12.1-0.9-24.2-1.8-36.2-1.6-22.9-3.5-47.4-10.4-69.3-1.6-5.3-12.8-36.3-21.5-36.7-0.3-0.3-0.9-0.5-1.5-0.3q-5.2 1-10.5 1.8c3.2-2.4 6.1-5.4 9-7.9 7-6 15-9.2 24.1-10.1 6.8-0.6 17.4 1.7 21.1 7.6 2.6 4 4.9 7.9 6.4 12.5 1.5 4.5 1.7 9.3 3.5 13.7 0.4 0.9 1.8 0.6 1.5-0.4-1.5-5.4-1.5-11-2.9-16.4-1.2-4.6-4-8.7-6.5-12.7-1.2-2-3.2-3.5-5.5-4.7 1.2 0 2.3 0 3.5-0.2 5.6-1 10.8-3.1 16.2-4.2 10.7-2.3 18.9 1 25.1 9.7 4.4 6.1 7.1 13.4 10 20.3 3.5 8.7 7 17.2 9.5 26.2 5.8 21.5 6.5 44.1 6.8 66.2z" style="fill: rgb(243, 238, 228);"></path><path class="c" d="m253.7 223.4c-1.2-3.1-3.9-7.4-4.8-11.3 1.3 1 3.2 1.4 4.9 1.7 3.7 0.6 6.4-0.8 9.4-2.5 2.2 4.2 3.5 8.8 5.3 13.1 1.4 3.5 2 7.6-1.5 10.1-2.3 1.6-5.6 2.3-8.1 1q-0.2-0.1-0.4-0.1-2.4-6-4.8-12z" style="fill: rgb(243, 238, 228);"></path><path class="c" d="m311.2 247.2q1.5 1.2 3 2.4c-5.9 1.7-11.1 5.3-16.6 7.9-5.5 2.6-11.7 4.4-17.8 4.7-9 0.4-12.3-5.5-15.5-12.8q-2.2-5.2-4.4-10.5c4.6 1.1 10.1-1.7 12.3-5.8 1.8-3.4-0.2-7.8-1.5-11-1.8-4.6-3.1-9.3-5.6-13.6-0.4-0.7-1.3-0.9-2-0.5-3.7 2.1-10.7 5.7-14.6 1.7-0.1-2.5 1-4.6 4.3-5.8 4.7-1.6 10.5-0.7 15.1 0.5 7.1 2 10.3 9.1 13.5 15 3.7 6.7 6.2 13.8 9.4 20.6 0.2 0.6 1.1 0.2 1-0.4-0.7-2.8-1.5-5.9-2.3-9.1 6.7 6.1 14.5 11 21.7 16.7z" style="fill: rgb(243, 238, 228);"></path><path class="c" d="m262.2 65.4c6.2-4.1 13.1-6.3 19-10.9q2.7-2.1 5.2-4.3c5.9-3.4 16.5-5.6 21.2 0.8 3.3 4.6-0.5 11.6-3.6 15.2-3.3 3.7-7.8 5.9-11 9.7-1.5 1.9-2.8 4-4.5 5.9-2.5 2.8-6.6 0.1-8.9-1.3-4.9-3-15.9-11.5-23.4-10.3 1.9-1.9 4.1-3.6 6-4.8z" style="fill: rgb(243, 238, 228);"></path><path class="c" d="m613.6 187.8c-13 1.2-25.9-1.2-38.1 3.8 2.7-4.6 4.6-9.8 6.5-14.3 2.2-5.2 4.5-10.3 5.9-15.8 1.3-5.3 2-10.7 3.8-15.8 0.2-0.8-0.9-1.3-1.3-0.6-3.9 8.5-5.9 17.7-9.9 26.2-4.5 9.3-7.7 20.7-16.4 27.1-7.5 5.6-16.3 11.3-24.7 15.4-5.2 2.5-11 3.9-16.5 5.2-4.3 1.1-8.6 0.6-12.9 1.3q-0.2-2.7-1-5.7c-1.8-6.8-5.1-13.4-7.4-19.9-2.7-7.5-6.4-14.5-9.7-21.6-3.4-7.3-6.7-14.5-9.7-22-0.5-1.2-1.7-3.4-3.2-5.5 16.6 6.6 35.8 9.7 52.5 6.1 0.9-0.2 0.6-1.6-0.2-1.6-25-1.3-47.9-4.2-69.7-17.6-10.2-6.3-20-14.1-25.4-25-1.8-3.6-4-10.7-7.7-14.3q1.6-0.2 3.2-0.8c1.7-0.7 3.9-1.6 4.5-3.4 0.2-0.6-0.5-1.1-1-0.8-2.5 1.6-6 2.3-9 2.7q-0.2-0.2-0.4-0.3c-6.1-2.3-12.5-3.3-18.7-5.1-7.2-2.1-14.1-4.9-21.3-7.1-7.4-2.3-15-3.1-22.6-4.7-2.8-0.6-5.2-1.8-7.6-1.9 0.7-2.1 1-4.4 1.4-6.5 0.3-1.5 0.8-3.7-0.4-4.8-0.1-0.1-0.3-0.1-0.4 0-0.4 0.7-0.4 0.8-0.5 1.6-0.2 1.6-0.7 3.1-1.3 4.6-0.8 1.7-1.6 3.2-2 5-15.5 4.9-28.4 16.2-42.3 24.4-16.9 9.9-38.2 11.4-52.2-4.2-3.5-3.8-5.4-8.6-5.5-13.8 0-1.5 0.4-2.9 1.1-4.2 6.3-4.6 20.2 7.1 25.1 10.2 11.4 7.1 15.1-4.9 22.9-11 6.2-4.8 14.1-14.1 9.9-22.7-3.6-7.4-11.7-8-18.9-5.8 9.4-8.9 18-18.7 27.5-27.4 7.6-6.9 17.6-8.4 27.4-9.8 4.7-0.7 9.5-1.2 14.3-1.4 5.5-0.2 10.6 1.4 16 2.4 18.4 3.5 36.4 7.5 55.1 9.1 9.4 0.8 18.9 1 28.3 2.3 9.4 1.3 17.8 4.8 26.2 9 8.1 4 14.6 9.4 21.7 14.9 5.6 4.3 11.2 7.4 18.4 6.9 1 0 1-1.5 0-1.6-4.3-0.6-8.1-2.4-11.6-4.8 8.1 1.8 17 0.9 25 1 14.3 0.1 28.7-1.3 42.5-5.3 4.8 1.9 8.6 12.3 10.5 16q5.8 11.3 9.4 23.5c4.6 16 5.9 33.6 7.6 50.2 1.5 15.5 1.8 31 2.8 46.5 0.3 3.9 0.2 7.8 0 11.7z" style="fill: rgb(243, 238, 228);"></path><path class="a" d="m524 152.3c-7.5 2.3-12.8 11.7-15.8 18.4-4.3 9.5-6.4 18-5 28.4 0.1 0.8-1.1 1-1.4 0.4-6.7-11.2-3.5-22.6 2.8-33.5 3.2-5.8 11.2-18 19.4-15.6 0.9 0.3 0.9 1.6 0 1.9z" style="fill: rgb(86, 76, 68);"></path><path class="a" d="m501.5 183.4c0.1 2.7-4.1 4-5.2 1.4-0.9-1.8-1.5-3.6-2-5.5-0.5-1.5-1.2-3-1.8-4.5-0.9 0-1.8-0.4-2.3-1.4q-2-3.5-2.6-7.3c-2.7-6.3-6.4-12-8.6-18.6-0.8-2.4 2.4-3.9 4.1-2.3 3.3 3 5.8 8.5 7.6 12.6 0.9 0.1 1.7 0.6 2.2 1.3q0.4 0.5 0.7 1c0.7 0.3 1.3 0.8 1.6 1.8 0.9 2.4 1.7 4.7 2.7 7.1q0 0 0 0.1 0.1-0.4 0.2-0.7c0.5-2 3.4-1.1 3 0.9q-0.4 1.8-0.4 3.7c0.2 0.4 0.4 0.8 0.4 1.4q0.2 4.5 0.4 9z" style="fill: rgb(86, 76, 68);"></path><path class="a" d="m514.5 157.3c-2.8 1.6-5.8 3.6-7.1 6.5-1.2 2.7-1.9 5.5-3.3 8q-0.2 0.3-0.4 0.6c-0.5 4.1-6.7 4.1-6.8-0.2q0-0.8 0.1-1.5c-0.8-0.2-1.5-0.7-2-1.3-3.3-4.5-5.7-9.3-7.6-14.6-0.3-1-0.2-1.8 0.2-2.5q-2.3-1.3-4.4-2.8c-1.3-0.8-1-3.4 0.8-3.1 4.3 0.5 8.1 2.4 12.2 3.6 5.7 1.7 10.7 1.1 16.6 1.2 3.2 0 4.6 4.5 1.7 6.1z" style="fill: rgb(86, 76, 68);"></path><path class="a" d="m545.2 150c-6.1 3.3-14.5 4-21.4 4.5-8.8 0.5-16.6-0.7-24.9-3.5-2.2-0.7-1.3-4 0.9-3.5 15.1 3.6 29.9 2.7 45.2 1.5 0.5-0.1 0.7 0.7 0.2 1z" style="fill: rgb(86, 76, 68);"></path><path class="a" d="m549 155c-15.3 7.9-31.6 5.3-47.7 1.2-2.8-0.7-2.2-5.4 0.7-5 8.4 1 16.2 3.5 24.8 4.1 7.7 0.5 14.3 0.3 21.9-1 0.4 0 0.7 0.5 0.3 0.7z" style="fill: rgb(86, 76, 68);"></path><path class="a" d="m550.7 161.3c-7.1 4.5-17.3 6.3-25.6 5.7-8.6-0.6-15.7-4.9-23.2-8.8-3-1.5-0.9-6.5 2.3-5.4 8.1 2.7 14.5 8 23.3 8.8 8 0.7 14.9 0 22.7-1.3 0.7-0.1 1.1 0.7 0.5 1z" style="fill: rgb(86, 76, 68);"></path><path class="a" d="m555.7 167.1c-8.6 6.5-18.5 8.6-29.3 6.8-5.6-0.9-10.9-2-15.7-5.1-3.8-2.4-6.9-6.3-9.9-9.4-2.5-2.4 0.6-6.4 3.6-4.7 3.5 1.9 5.7 4.9 8.7 7.4 3.6 2.9 7.9 4.2 12.3 5.2 10.7 2.4 19.7 1.6 30.1-0.5 0.2 0 0.3 0.2 0.2 0.3z" style="fill: rgb(86, 76, 68);"></path><path class="a" d="m553.4 175.9c-15.7 12.9-43.7 3.9-55.3-10.5-2.6-3.1 1.3-7.1 4.5-4.5 13.3 11.2 32.2 22.5 50.1 14 0.6-0.2 1.3 0.5 0.7 1z" style="fill: rgb(86, 76, 68);"></path><path class="a" d="m544.6 186.3c-16.6 6.6-36.2-1.9-47.4-14.5-2.7-3 1.4-7.1 4.4-4.4 12.7 11.3 25.7 17.6 42.9 18 0.5 0 0.6 0.7 0.1 0.9z" style="fill: rgb(86, 76, 68);"></path><path class="a" d="m536.3 194.7c-16.3 4.1-33.9-5.7-41-20.5-1.7-3.6 3-6.4 5.3-3.1 4.7 6.7 9.4 12.2 16.7 16.2 6.2 3.4 12.3 4.8 19 6.7 0.4 0.1 0.4 0.7 0 0.7z" style="fill: rgb(86, 76, 68);"></path><path class="a" d="m525.4 200.9c-3.6 1-7.3-0.6-10.9-1.5-3.6-0.9-6.7-2.2-9.7-4.5-5.4-4-10-10.2-12.2-16.5-1.1-3.3 3.4-4.7 5.2-2.2 3.8 5.4 6.5 11 11.8 15.2 4.8 4 10.4 6.2 15.9 8.8 0.4 0.1 0.2 0.6-0.1 0.7z" style="fill: rgb(86, 76, 68);"></path><path class="a" d="m515.4 205.5c-10.2 1.3-17.9-11.6-18.5-20.3-0.3-3 4-3.3 4.9-0.7 2.4 7.3 5 17.6 13.6 19.6 0.7 0.1 0.7 1.3 0 1.4z" style="fill: rgb(86, 76, 68);"></path><path class="a" d="m579 182c-0.1 0.7-0.6 1.3-0.8 2.1q-0.5 1.4-0.6 2.9-0.2 2.5-0.6 5c-0.3 2.1-3.6 1.2-3.2-0.9 0.5-2.2 0.8-4.3 1.6-6.3 0.5-1.3 1.5-3.5 3.1-3.5 0.4 0 0.6 0.3 0.5 0.7z" style="fill: rgb(86, 76, 68);"></path><path class="a" d="m613.9 184.2c-7.4 0.1-15 0.3-22.4 1.1-4.4 0.6-14.1 1.4-15.3 6.7-0.2 1-1.8 1-2 0-2.2-13.6 33-12.1 39.7-12.1 2.8 0.1 2.8 4.3 0 4.3z" style="fill: rgb(86, 76, 68);"></path><path class="a" d="m615.1 188.2c0.1 1.4-1.9 2.3-2.8 1.2-0.9-1.1-1-2.3-1.2-3.7 0-0.4 0.1-1.9-0.2-2.4-0.3 0-0.7-0.1-0.8-0.5 0-0.2-0.1-0.3-0.1-0.4-0.1-0.4 0.1-0.8 0.4-1 1.4-0.9 3.1 0.9 3.7 2.1 0.7 1.3 1 3.2 1 4.7z" style="fill: rgb(86, 76, 68);"></path><path class="a" d="m594.1 136c-1.5 8.1-2 16.7-4.4 24.6-2.3 7.5-5.9 14.5-9.6 21.5-0.7 1.4-2.8 0.4-2.4-1.1 2.2-8.2 6.1-15.8 8.6-23.9 2.2-7.1 4.2-14.3 6.4-21.5 0.3-0.9 1.5-0.5 1.4 0.4z" style="fill: rgb(86, 76, 68);"></path><path class="a" d="m613 180.8c-7.8 1.1-19 1-23.6-6.8-2-3.5-2.5-7.1-2.1-11.1 0.3-3.3 1.2-7.9 2.8-10.8 0.3-0.5 1.1-0.2 0.9 0.4-1.3 5.8-1.4 15 3.8 19.1 5.4 4.3 11.9 2.6 18.2 3.2 3.9 0.5 3.8 5.5 0 6z" style="fill: rgb(86, 76, 68);"></path><path class="a" d="m595.9 182c-4.1-1.7-9.1 0.8-12.3 3.4-3 2.6-7.2-1.4-4.4-4.5 2.3-2.5 3.9-6 4.3-9.4 0.2-1.3 1.2-2.4 2.4-2.8 0.8-2.4 4.8-1.8 4.6 0.8-0.1 1.1 0.3 3.5 1.2 4.2 0.4 0.3 0.5 0.8 0.4 1.3 2.2-0.2 4.3 0.2 6.1 1.4 2.8 1.8 1 7-2.3 5.6z" style="fill: rgb(86, 76, 68);"></path><path class="a" d="m600.1 152.5c-0.5 8-0.1 16.3-2.9 23.9-1.6 4.2-7.6 2.6-6.7-1.8 3.3-16.9 5.6-34 7.5-51.1 0.1-0.8 1.1-0.8 1.2 0 1.1 9.7 1.4 19.3 0.9 29z" style="fill: rgb(86, 76, 68);"></path><path class="a" d="m589.8 173.2c-1.1-5-1.6-10.1-1.1-15.1 0.3-4 1.8-7.8 2.4-11.8 0.1-0.4 0.7-0.4 0.8 0 0.7 4-0.5 7.8-0.3 11.8 0.1 4.9 1.6 9.6 2.1 14.5 0.2 2.3-3.4 2.7-3.9 0.6z" style="fill: rgb(86, 76, 68);"></path><path class="a" d="m607.2 147.8c-0.3 9.6-2.2 18.8-2.8 28.4-0.3 4.7-7.5 4.8-7.4 0 0.4-10.4 3.9-20.7 4.9-31.1 1-9.7 0.8-19.4 1.3-29.2 0.1-1 1.5-1 1.6 0 0.8 10.6 2.7 21.3 2.4 31.9z" style="fill: rgb(86, 76, 68);"></path><path class="a" d="m613.6 148.2c-0.3 5.3-0.9 10.5-2.1 15.6-0.6 2.8-3.9 9.7-3.2 12.6 1.2 4.7-5.5 6.4-7.2 2-1.2-3.2 0.9-6.5 1.8-9.5 1.6-5.3 3.4-10.6 4.3-16.1 2.3-13.2 3.2-26.5 2.5-39.9-0.1-0.8 1.2-1 1.4-0.2 2.1 11.7 3.2 23.6 2.5 35.5z" style="fill: rgb(86, 76, 68);"></path><path class="a" d="m616.3 172.6c0 1.6-0.3 3.1-1.2 4.5-1.8 2.9-5.5 2.9-8.4 2.1-3.7-1-2.8-6.4 0.9-6.5q0 0 0 0c0.1-0.4 0.3-0.7 0.4-1.1 0.4-1.5 0.8-3 1.1-4.5 0.7-3 0.9-6 1.5-9q0 0 0 0c0.5-1.5 3-1.9 3.4 0 0.5 2.5 0.5 5.2 0.3 7.8 0.5 0.4 1 0.9 1.3 1.7q0.4 1 0.8 2c0.5 1.1 0.3 2.2-0.1 3z" style="fill: rgb(86, 76, 68);"></path><path class="a" d="m468.5 133.1c-10.2-4.7-16.2-13.5-23-22.1-0.3-0.4 0.1-0.8 0.5-0.5 4.2 4 8.5 7.9 12.8 11.8 3.5 3.2 7.6 6 10.6 9.7 0.6 0.6-0.1 1.5-0.9 1.1z" style="fill: rgb(86, 76, 68);"></path><path class="a" d="m484.6 138.7c-11.6-4.4-17.9-13.1-26.4-21.5-0.4-0.4 0.2-0.9 0.6-0.6 8.8 7 17.2 14.3 26.2 21.1 0.5 0.3 0.2 1.3-0.4 1z" style="fill: rgb(86, 76, 68);"></path><path class="a" d="m496.4 140.6c-10.2-3.5-19.7-12-26.3-20.4-0.2-0.3 0.1-0.7 0.4-0.4 4.6 3.7 9.2 7.4 14 10.8 4.2 2.9 7.8 6.7 12.2 9.4 0.4 0.2 0.1 0.8-0.3 0.6z" style="fill: rgb(86, 76, 68);"></path><path class="a" d="m515.7 144.5c-13.5-0.7-28.1-12.6-36.7-22.4-0.4-0.4 0.2-0.9 0.6-0.5 10.1 8.9 23.4 16.9 36.3 21.1 1 0.3 0.9 1.9-0.2 1.8z" style="fill: rgb(86, 76, 68);"></path><path class="a" d="m538.1 144.6c-8.6 0.1-16.1-2.6-23.9-6.1-7.4-3.4-14.6-6.8-20.3-12.9-0.3-0.3 0.2-0.7 0.5-0.5 11.7 10.2 29.2 14.3 44 17.5 1.2 0.2 0.9 2-0.3 2z" style="fill: rgb(86, 76, 68);"></path><path class="a" d="m552.3 141.9c-14.5 0.5-25.7-4.2-38.5-10.5-0.3-0.2-0.1-0.8 0.3-0.7 12.3 4.6 24.9 9.5 38.2 10.3 0.6 0 0.6 0.9 0 0.9z" style="fill: rgb(86, 76, 68);"></path><path class="a" d="m571.2 139.2c-11.7 3.1-25.8-2.5-36.3-7.2-0.4-0.1-0.1-0.6 0.2-0.5 10.6 3.4 24.4 7.6 35.6 5.6 1.3-0.2 1.8 1.7 0.5 2.1z" style="fill: rgb(86, 76, 68);"></path><path class="a" d="m577.6 134.2c-1.8 1.7-4.8 1.5-7.1 1.2-1.9-0.3-3.9-0.7-5.7-1.3-0.6-0.2-2.6-0.9-2.6-0.9 0.1 0 0 0.1 0 0q-0.4-0.1-0.7-0.3c-0.1-0.1-0.1-0.3 0.1-0.3 5.4 0.1 9.9 1.9 15.3 0.3 0.7-0.2 1.3 0.8 0.7 1.3z" style="fill: rgb(86, 76, 68);"></path><path class="a" d="m541.7 56.9c-9.3-4.4-20.1-6.1-28.9-11.3-1.5-0.8-0.5-3.4 1.1-2.8 9.8 3.9 19.4 7.5 28.2 13.3 0.5 0.4 0.1 1.1-0.4 0.8z" style="fill: rgb(86, 76, 68);"></path><path class="a" d="m560.1 62.5c-7.8-4.1-15.6-8.1-23.2-12.5-0.4-0.3-0.1-0.9 0.3-0.7 8.2 3.4 15.9 7.6 23.7 11.9 0.9 0.5 0.1 1.8-0.8 1.3z" style="fill: rgb(86, 76, 68);"></path><path class="a" d="m570.4 63.7c-5.6-3.7-11.7-6.3-17.3-9.9-0.5-0.4 0-1.2 0.6-0.9 5.8 3.1 12.4 5 17.8 8.9 1.1 0.8 0.1 2.7-1.1 1.9z" style="fill: rgb(86, 76, 68);"></path><path class="a" d="m575.2 60.8c-1.6-0.9-3.1-1.9-4.5-2.9-0.6-0.4-0.1-1.3 0.5-1 1.5 1 3.1 2 4.7 2.8 0.7 0.4 0.1 1.5-0.7 1.1z" style="fill: rgb(86, 76, 68);"></path><path class="a" d="m515.5 61.7c0.1 0.5-0.5 0.7-0.7 0.3-6.4-8.7-15.1-18.4-24.8-23.3-0.2-0.2-0.1-0.6 0.2-0.5 9.9 3.9 22.2 12.9 25.3 23.5z" style="fill: rgb(86, 76, 68);"></path><path class="a" d="m522.1 64.3c0.1 0.8-1 1.5-1.4 0.6-1.8-3.4-3.5-6.7-5.5-9.9-1.9-3-3.8-6.6-7.1-8.1-0.4-0.2-0.1-0.7 0.2-0.6 3.2 0.9 5.7 3.5 7.6 6.1 2.7 3.5 5.5 7.4 6.2 11.9z" style="fill: rgb(86, 76, 68);"></path><path class="a" d="m528.7 63.7c0.1 1.3-1.5 1.7-2 0.5-1.5-3.8-3.8-7.1-7-9.7-0.3-0.3 0.1-0.8 0.4-0.6 3.5 2.2 8 5.4 8.6 9.8z" style="fill: rgb(86, 76, 68);"></path><path class="a" d="m531.5 61.5c-0.6-1.4-1.9-2.4-2.9-3.6-0.2-0.2 0-0.5 0.3-0.3 1.5 0.9 2.9 1.6 3.9 3.2 0.5 0.8-0.9 1.6-1.3 0.7z" style="fill: rgb(86, 76, 68);"></path><path class="a" d="m442 78.5c-0.7 3.6-1.7 8.1-4 11-2.7 3.4-6.6 4.6-10.7 5.2-2.2 0.4-3.1-2.6-0.9-3.4 3.3-1.2 7.2-2.2 9.8-4.8 2.4-2.4 3-5.6 4.8-8.4 0.4-0.5 1.1-0.2 1 0.4z" style="fill: rgb(86, 76, 68);"></path><path class="a" d="m448.6 75c-0.6 3-0.3 6.1-1.6 9-1.1 2.6-2.5 4.9-4.6 6.9-1.2 1.2-3-0.6-1.8-1.9 1.9-2 3.9-4.3 5.1-6.9 1-2.4 1.1-5 1.9-7.4 0.2-0.6 1.1-0.4 1 0.3z" style="fill: rgb(86, 76, 68);"></path><path class="a" d="m453.8 83c-0.7 1.6-3.1 0.6-2.3-1 1.7-3.4 3.1-6.8 2.8-10.7 0-0.7 1.1-0.8 1.2-0.2 0.9 4.2-0.1 8-1.7 11.9z" style="fill: rgb(86, 76, 68);"></path><path class="a" d="m460.4 74.8c-0.1 1.7-2.6 1.4-2.3-0.3 0.3-1.9 0.4-3.9 0.6-5.8 0.1-0.9 1.4-0.9 1.5 0 0.2 2.1 0.3 4.1 0.2 6.1z" style="fill: rgb(86, 76, 68);"></path><path class="a" d="m359.6 67.3c-0.4 1-1.8 0.6-1.6-0.5 0.5-2.6 1.1-5.1 1-7.8-0.1-2.1-0.3-4.1-0.2-6.1 0-0.6 0.8-0.7 1-0.2 1.5 4.6 1.5 10.1-0.2 14.6z" style="fill: rgb(86, 76, 68);"></path><path class="a" d="m363.7 57.1c0 1.2-1.8 1.2-1.8 0 0-3.5-2.2-6.7-1.6-10.2 0-0.2 0.3-0.2 0.3 0 1 3.4 3.2 6.6 3.1 10.2z" style="fill: rgb(86, 76, 68);"></path><path class="a" d="m362.5 44.5c-0.5-0.8-0.9-1.6-1.2-2.4-0.2-0.4 0.3-0.6 0.6-0.4 0.6 0.6 1.1 1.3 1.6 1.9 0.7 0.8-0.6 1.7-1 0.9z" style="fill: rgb(86, 76, 68);"></path><path class="a" d="m273.5 99.1c-3.3-1.1-6.5-2.9-8.9-5.3-2.5-2.4-3.8-5.4-5.8-8.2-0.2-0.3 0.3-0.6 0.5-0.4 2.5 2.5 4.4 5.6 7.3 7.6 2.5 1.6 5.1 2.8 7.7 4.2 1.1 0.6 0.4 2.5-0.8 2.1z" style="fill: rgb(86, 76, 68);"></path><path class="a" d="m280.3 98c-5.1-1.2-9.3-4.6-13.3-7.7-0.4-0.3-0.1-0.9 0.3-0.7 4.5 2.5 8.9 4.5 13.6 6.5 1.1 0.5 0.7 2.2-0.6 1.9z" style="fill: rgb(86, 76, 68);"></path><path class="a" d="m290.1 98.2c-5.4-0.4-11-2.6-14.5-6.8-0.3-0.4 0.2-0.9 0.6-0.5 3.6 3.2 9.1 4.9 13.9 5 1.5 0 1.5 2.5 0 2.3z" style="fill: rgb(86, 76, 68);"></path><path class="a" d="m299.2 96.3c-4.3-0.8-8.5-1.9-12.2-4.3-0.4-0.3-0.1-1 0.3-0.8 4.1 1.6 8.4 1.6 12.5 2.9 1.4 0.4 0.8 2.4-0.6 2.2z" style="fill: rgb(86, 76, 68);"></path><path class="a" d="m306.5 94.3c-4.2-0.7-8.4-2.3-12.5-3.4-0.6-0.2-0.4-1 0.2-0.9 4.3 0.6 8.7 1.3 12.9 2.2 1.4 0.3 0.8 2.3-0.6 2.1z" style="fill: rgb(86, 76, 68);"></path><path class="a" d="m314.2 90.8c-3.8 0.1-8-0.5-11.2-2.5-0.6-0.4-0.1-1.3 0.6-1 3.1 1.7 7.1 1.9 10.6 1.8 1.1-0.1 1.1 1.7 0 1.7z" style="fill: rgb(86, 76, 68);"></path><path class="a" d="m354.3 30.9c0 0.7-1 0.9-1.3 0.3-1.8-3.5-4.8-6.1-7.5-8.9-2.9-3.1-7.1-4.1-10-7.1-1.1-1.2 0.4-3.2 1.8-2.3 2.5 1.3 4.9 2.6 7.2 4.1 1.8 1.2 2.9 2.9 4.2 4.5 2.2 2.8 5.1 5.8 5.6 9.4z" style="fill: rgb(86, 76, 68);"></path><path class="a" d="m354.7 22.5c-4-3.1-7.8-5.8-12.4-7.8-1.3-0.6-0.7-2.9 0.7-2.7 5.4 0.7 8.8 6.1 12.5 9.5 0.5 0.5-0.2 1.4-0.8 1z" style="fill: rgb(86, 76, 68);"></path><path class="a" d="m303.8 71.1c-4.6 5.9-10.5 16.2-19.2 15.9-3.9-0.2-8-0.5-11.6-2.3-5.3-2.6-10.9-8.9-17.5-7.4-0.7 0.2-1.1-0.7-0.5-1.1 6.9-3.7 12.1 0.7 18.2 3.9 6.1 3.2 14 4.8 19-1 3.2-3.8 6.7-6 10.6-9 0.7-0.6 1.6 0.3 1 1z" style="fill: rgb(86, 76, 68);"></path><path class="a" d="m314 57.9c-0.1 8.5-3.4 13.3-10.5 17.7-0.4 0.3-0.7-0.2-0.5-0.5 2.7-4.8 7.1-7.4 7.1-13.7 0-6.2-0.6-13-7.6-15.1-1.3-0.3-0.7-2.3 0.6-2 7.2 1.7 11.1 6 10.9 13.6z" style="fill: rgb(86, 76, 68);"></path><path class="a" d="m299.9 65.3c-4 3.4-14.9 15.5-20.2 9.1-0.6-0.7-0.1-2 0.9-1.7 6.6 2.1 10.2-5.9 13.4-10.1 2.9-3.7 7-8.2 0.7-10.9-0.9-0.4-0.5-1.7 0.3-2 11-3.2 11.8 9.9 4.9 15.6z" style="fill: rgb(86, 76, 68);"></path><path class="a" d="m263.8 233.4c-2.4 1.6-4.8-2.4-2.3-3.9 5.2-3.1-2.2-9.7 0-13.7 0.1-0.2 0.3-0.2 0.4 0 1.4 3.2 3.4 6.2 4.8 9.5 1.4 3.2-0.1 6.3-2.9 8.1z" style="fill: rgb(86, 76, 68);"></path><path class="a" d="m228.8 227.2c-1.6-0.4-1.9-2.7-0.4-3.6 4.2-2.4 1.6-9.7 0.3-13.5-0.1-0.4 0.4-0.8 0.7-0.4 2.1 2.7 3.7 6.8 4.5 10.2 0.8 3.4-0.7 8.4-5.1 7.3z" style="fill: rgb(86, 76, 68);"></path><path class="a" d="m200 217.3c-2.2 0.6-3-2.6-0.9-3.4 4.9-1.6 3-9.2 1.3-12.7-0.3-0.5 0.5-1 0.8-0.4 2.6 4.5 6.5 14.5-1.2 16.5z" style="fill: rgb(86, 76, 68);"></path><path class="a" d="m311.2 252.3c-11.3-1.6-20.8 6.3-32 5.6-6.8-0.4-9.4-6.3-12.4-11.4-0.4-0.7 0.5-1.5 1.1-0.9 2.5 2.9 5.2 6.3 9.3 7 6 1.1 11.1-1.4 16.4-3.4 6.5-2.5 12.4-4.1 19.2-2.7 3.9 0.8 2.2 6.4-1.6 5.8z" style="fill: rgb(86, 76, 68);"></path><path class="a" d="m308.5 247.6c-1.3 1.2-2.9 1.7-4.7 1.5-1-0.1-1.9-0.3-2.9-0.4q-0.7 0-1.4-0.1-0.2 0.1-0.4 0.1c-1.2 1.2-3.2 1.1-4.4 0.2q-0.4 0.6-0.9 1.2c-0.3 0.4-1.1 0.1-1.1-0.4 0.3-6-1.6-11.5-3.7-17-0.7-1.8 2.1-2.9 3-1.3q0.8 1.4 1.6 2.7 0.7 0 1.3 0.3c2.4 1.2 4.2 3 6.2 4.6 1.6 1.5 3.4 2.6 5 3.9 2.5-0.4 4.4 2.9 2.4 4.7z" style="fill: rgb(86, 76, 68);"></path><path class="a" d="m288.8 253.8c-3 3.8-8.4 2-11.6-0.5-3-2.2-6-6.3-7-9.9-0.1-0.5 0.6-0.8 0.9-0.4 1.8 2.9 4.7 4.6 7.7 5.9 1.4 0.6 2.8 1.2 4.3 1.4 1.2 0.2 2.2-0.4 3.4-0.4 1.8-0.1 3.5 2.3 2.3 3.9z" style="fill: rgb(86, 76, 68);"></path><path class="a" d="m292.7 252.5c-3.5 2.7-7.5 0.8-10.4-1.9-2.3-2.1-5.3-4.8-5.4-8.3-0.1-0.8 1.1-0.9 1.3-0.1 1 3.4 7.6 7.5 11.2 6 2.6-1.1 6 2.3 3.3 4.3z" style="fill: rgb(86, 76, 68);"></path><path class="a" d="m292.7 251.6c-4.7-1.3-8.3-5.4-10.5-9.5-0.5-0.9 0.7-1.9 1.4-1.1 3 3.3 6.4 4.3 10.4 5.8 3 1.1 1.8 5.6-1.3 4.8z" style="fill: rgb(86, 76, 68);"></path><path class="a" d="m295.5 248.7c-0.2 3-4.5 3-4.7 0-0.2-2.9-0.5-5.7-1.2-8.6-0.6-2.3-1.4-4.7-1.4-7.2 0-0.9 1.3-1.3 1.7-0.5 2.2 5 5.8 10.7 5.6 16.3z" style="fill: rgb(86, 76, 68);"></path><path class="a" d="m292.2 248.5c-2.5-2.2-4.6-5.1-5.8-8.1-0.2-0.6 0.6-1 1-0.6 2.2 2.3 4.7 4.3 7.2 6.3 1.7 1.3-0.8 3.9-2.4 2.4z" style="fill: rgb(86, 76, 68);"></path><path class="a" d="m261.5 258.9c-1-1.6-8.7 0.4-10.8 0-3.8-0.8-7.5-2.5-10.3-5.4-4.1-4.2-9.3-10.1-9-16.4 0-0.5 0.9-0.7 1.1-0.1 1.3 7.5 13.8 16.8 21.1 16.2 5.9-0.5 9.4-3 13 2.8 2 3.2-3 6.1-5.1 2.9z" style="fill: rgb(86, 76, 68);"></path><path class="a" d="m252.8 256.9c-7.8-1.9-12-10.2-15-16.9-0.2-0.6 0.7-1.2 1-0.5 3.3 6 9 10 15.3 12.4 3.1 1.1 1.9 5.8-1.3 5z" style="fill: rgb(86, 76, 68);"></path><path class="a" d="m259.6 255.8c-4 0-7.4-3.5-10-6.2-2.6-2.7-4.8-5.7-5.6-9.5-0.1-0.6 0.6-0.8 0.9-0.4 2.2 3 4.8 5.8 8.3 7.1 2.8 1.1 6.4 1.5 8.6 3.7 1.9 1.9 0.5 5.3-2.2 5.3z" style="fill: rgb(86, 76, 68);"></path><path class="a" d="m258.3 253c-2.7-1.8-3.7-4.4-5.5-6.8-1.9-2.6-4-5-5.9-7.5-0.6-0.7 0.6-1.4 1.2-0.9 4.5 3.6 9.7 6.3 13.9 10.4 2.5 2.4-0.8 6.7-3.7 4.8z" style="fill: rgb(86, 76, 68);"></path><path class="a" d="m260.8 244.9c0.1 2.1-2.7 3.2-4.1 1.7-1.1-1.2-1.7-2.8-2.6-4.3q-1.3-2-2.9-3.9c-1.6-1.9-3.8-4-4.7-6.5-0.2-0.6 0.6-1.3 1.2-0.9 2.7 1.9 5.3 4.3 7.8 6.4 2.4 1.9 5.1 4.3 5.3 7.5z" style="fill: rgb(86, 76, 68);"></path><path class="a" d="m257.1 237.1c0.1 1.8-2.5 2.5-3.3 0.9-1.3-2.3-2-5-3.3-7.4-1.3-2.6-2.8-4.5-4.9-6.4-0.5-0.5-0.1-1.3 0.5-1.3 2.8 0.1 5.3 3.4 6.8 5.4 1.8 2.4 4.1 5.8 4.2 8.8z" style="fill: rgb(86, 76, 68);"></path><path class="a" d="m250.7 226.8c-1.3-3.6-2.9-6.7-5.6-9.5-0.2-0.3 0-0.7 0.4-0.6 4 0.9 6 6.2 7.4 9.5 0.6 1.4-1.7 2-2.2 0.6z" style="fill: rgb(86, 76, 68);"></path><path class="a" d="m224 245.5c-5.7-1.2-11.7-1-15.8-5.7-3.3-3.7-4.4-9.1-5.9-13.7-0.1-0.4 0.4-0.6 0.7-0.2 2.5 3.6 4.3 8.5 7.7 11.4 4.4 3.8 9.9 0.7 15 1.9 4.2 0.9 2.4 7.1-1.7 6.3z" style="fill: rgb(86, 76, 68);"></path><path class="a" d="m221.5 243.3c-7.4-2.2-12.6-9.3-14.8-16.4-0.2-0.6 0.6-0.9 0.9-0.4 1.9 3.1 4.6 6.8 8 8.3 2.9 1.4 6.3 1.6 8.6 3.9 2 1.9 0 5.4-2.7 4.6z" style="fill: rgb(86, 76, 68);"></path><path class="a" d="m223.2 241.5c-3.1-2-5.6-5.2-7.6-8.2-2-3.1-4-6.2-5.3-9.6-0.4-1.1 1.1-1.5 1.6-0.7 2.3 3.2 4.9 5.9 8 8.3 2.4 1.9 5.9 3.3 7.2 6.3 1 2.4-1.3 5.6-3.9 3.9z" style="fill: rgb(86, 76, 68);"></path><path class="a" d="m222.5 236.5c-2.1-3-3-6.6-4.9-9.8-1.7-3-3.7-5.9-5.7-8.8-0.6-0.8 0.6-1.5 1.2-0.9 5.7 4.9 9.7 10.7 13.6 17 1.7 2.7-2.4 5-4.2 2.5z" style="fill: rgb(86, 76, 68);"></path><path class="a" d="m218.1 223.6c-2.3-4.9-5.4-9.6-7.2-14.7-0.2-0.5 0.5-0.8 0.8-0.5 3.9 4 7.9 8.5 9.7 13.8 0.7 2-2.5 3.3-3.3 1.4z" style="fill: rgb(86, 76, 68);"></path><path class="a" d="m274.4 230.8c-1 3.8-3.7 5.2-7.1 6.7-1.2 0.5-2.6-0.9-1.5-1.9 1.3-1.2 4.3-2.8 4.7-4.3 0.6-2.9-0.1-5.5-1.3-8.1-1.2-2.6-2.3-5-3.2-7.7-2.1-6.1-5.9-2.1-10.1-3.7-2.1-0.8-3.8-1.9-5.6-3.4-0.3-0.3 0-0.9 0.4-0.7 3.3 1.2 6.5 1.2 9.8 0.3 1.2-0.3 2.7-0.8 3.9-0.2 4.2 2.1 4.4 6.7 6.4 10.5 1.8 3.6 4.6 8.3 3.6 12.5z" style="fill: rgb(86, 76, 68);"></path><path class="a" d="m235.2 229.2c-0.7 0.2-1-0.7-0.5-1 4.7-3.1-2.5-18.2-4-22.3-0.9-2.3-8.6-0.6-11-1.2-1.6-0.5-2.8-1.7-2.3-3.3 0.1-0.4 0.5-0.4 0.7-0.1 3.9 5.1 10.4-4.3 13.8-0.1 2.3 2.7 3.1 6.7 4.3 10 1.9 5.1 6 15.4-1 18z" style="fill: rgb(86, 76, 68);"></path><path class="a" d="m201.2 197.5c-2.7-1.4-10.1 0.6-10.2-4.3 0-0.3 0.3-0.4 0.5-0.3 1.1 0.6 1.9 1.4 3.3 1.3 1.1-0.1 2.2-0.4 3.2-0.5 2-0.3 4.1 0 5.2 1.8 0.7 1.3-0.7 2.7-2 2z" style="fill: rgb(86, 76, 68);"></path><path class="a" d="m261.1 259.4c-6.8 0.3-12.9 2.3-19.1-1.9-5-3.3-8.1-11.1-10.2-16.4-0.1-0.4 0.5-0.6 0.7-0.3 3.3 4.5 7.8 13.3 13.7 14.4 3.1 0.6 6.6 1.1 9.6 0.1 1.9-0.5 3.4-0.8 5.3-0.8 3.1 0 3.1 4.7 0 4.9z" style="fill: rgb(86, 76, 68);"></path><path class="a" d="m307.6 253.1c-3.6-1.8-10.3 2.4-13.8 3.5-4.4 1.3-9 2.1-13.5 2.8-7.1 1.1-8.9-5.7-11.9-10.5-0.1-0.3 0.3-0.6 0.5-0.3 1.1 1.2 1.4 1.5 2.3 2.8 3.2 4.4 7.6 4.5 12.7 3.4 3.7-0.8 7.3-1.7 10.9-3.1 4.5-1.8 10.4-5.4 15-2.3 2.4 1.5 0.3 5-2.2 3.7z" style="fill: rgb(86, 76, 68);"></path><path class="b" d="m64.4 238.2c-0.2-0.2-0.2-0.4-0.3-0.7 0-0.3 0.6-0.3 0.5 0.1q0 0.2 0.1 0.4c0.1 0.1-0.1 0.3-0.3 0.2z" style="fill: rgb(86, 75, 68);"></path><path class="a" d="m192.2 216.3c-0.3 1.1-1.3 1.7-2.4 1.8-5.1 0.2-4.7-5.4-7-8.5-5.1-6.9-12.1-8.2-19.7-10.5-0.5-0.2-0.4-0.9 0.2-1 6.5-0.8 11.9-0.2 17.5 3.6 0.9-1 2.4-1.4 3.6-0.1 3.4 3.8 9 9 7.8 14.7z" style="fill: rgb(86, 76, 68);"></path><path class="a" d="m186.9 206.6c-0.8 0.2-1.5-0.1-1.9-0.8q-0.2-0.3-0.4-0.6c-0.3-0.4-0.5-0.7-0.7-1.2q-0.1-0.3 0-0.7 0-0.5 0.4-0.8 0 0 0-0.1 0.1-0.1 0.2-0.1 0.1-0.1 0.2-0.2c0.6-0.3 1.2-0.3 1.8 0 0.9 0.4 1.4 1.5 1.6 2.4 0.3 0.9-0.3 1.9-1.2 2.1z" style="fill: rgb(86, 76, 68);"></path><path class="a" d="m171.2 201.6c-2-0.5-3.8-1-5.9-0.8-2.1 0.2-3.4 0.9-5.1 1.8-0.5 0.3-0.9-0.1-0.8-0.6 0.7-4.5 9.9-4.7 12.9-3 1.4 0.8 0.4 2.9-1.1 2.6z" style="fill: rgb(86, 76, 68);"></path><path class="a" d="m177.6 203.3c-2.3 0.1-4.4-0.8-6.6-0.8-2.7-0.1-5.2 0.3-7.6 1.8-0.3 0.2-0.7-0.3-0.4-0.6 1.9-1.8 4.1-3.2 6.6-3.9 2.7-0.8 5.3-0.5 8-0.5 2.6 0 2.5 3.9 0 4z" style="fill: rgb(86, 76, 68);"></path><path class="a" d="m181.5 206.3c-2.7 0.1-5.3-1.1-8.1-0.9-2.8 0.2-5.1 1-7.5 2.6-0.3 0.2-0.7-0.3-0.4-0.6 4.3-4.6 9.9-5.6 16-5.5 2.9 0 2.8 4.3 0 4.4z" style="fill: rgb(86, 76, 68);"></path><path class="a" d="m185.1 209c-4.8-0.3-9.6-1.5-14.2 0.7-0.5 0.2-1-0.5-0.4-0.9 4.1-2.8 9.6-3.6 14.6-3.9 2.5-0.1 2.5 4.2 0 4.1z" style="fill: rgb(86, 76, 68);"></path><path class="a" d="m186.6 212.1c-3.7 0.7-7.3-1.1-11-0.3-0.6 0.1-1.1-0.8-0.4-1.1 3.3-1.5 7-0.7 10.5-1.8 2.1-0.7 3 2.8 0.9 3.2z" style="fill: rgb(86, 76, 68);"></path><path class="a" d="m187.4 216.9c-2.6 0.3-5.6-0.3-8-1.3-1-0.5-0.3-2.1 0.8-1.8 2.4 0.6 4.7 0 7.2 0.2 1.8 0.2 1.8 2.7 0 2.9z" style="fill: rgb(86, 76, 68);"></path><path class="a" d="m184.7 195.8c-17.1-4.9-34.4-1.2-51.9-1.8-8.8-0.3-17.8-0.2-26.7-1.1-6.7-0.7-13.5-0.1-20.2-1.1-1.3-0.2-1.2-2.2 0-2.4 16.3-2.9 33.1 0.9 49.6 0.3 17.1-0.6 33.8-3.4 50.6 1.3 3.1 0.9 1.7 5.7-1.4 4.8z" style="fill: rgb(86, 76, 68);"></path><path class="a" d="m89.2 199.2q-0.4-0.2-0.8-0.4c-0.5 0.3-1.1 0.3-1.7-0.1-1.1-0.6-1.7-1.7-1.9-3-0.2-0.8 0.3-1.7 0.9-2.1q-0.5-1.3-0.6-2.7c-0.1-1.1 1.5-1.7 2.3-0.9q0.1 0 0.2 0.1c0.5 0.2 0.7 0.8 0.4 1.2q0 0.1 0 0.2 0.2 0.4 0.4 0.8 0.4 0.8 0.9 1.6c0.7 0.9 1.4 1.7 2.1 2.5 1.5 1.6-0.3 3.6-2.2 2.8z" style="fill: rgb(86, 76, 68);"></path><path class="a" d="m95.3 197.4c-1.8 1.5-4.1 0.7-5.4-1.1-0.6-0.8-1-1.6-1.4-2.5-0.3-0.7-0.8-1.5-1-2.2-0.2-1 0.8-1.6 1.7-1.2 1.1 0.5 1.8 2.5 2.5 3.5 0.8 1.2 1.8 1.8 3.2 2 0.7 0.1 0.9 1.1 0.4 1.5z" style="fill: rgb(86, 76, 68);"></path><path class="a" d="m352.9 263.3c-13.6-4.2-24.7-14.7-36.8-21.7-6.5-3.7-12.5-7.3-18.4-11.9-5.6-4.3-12.1-7.1-17-12.3-1.1-1.2 0.4-3.4 1.8-2.3 5.2 3.8 11.1 6.3 16.1 10.4 6.2 5 12.5 9 19.2 13.2 11.9 7.6 23.6 16.1 35.2 24.3 0.1 0.1 0 0.3-0.1 0.3z" style="fill: rgb(86, 76, 68);"></path><path class="a" d="m290.9 232.1c-1.6-1.8-2.9-4-3.9-6.2-0.7-1.3-2.1-3.7-1-5.1 0.3-0.6 1.1-0.4 1.1 0.3 0.4 3.6 3.8 6.7 5.6 9.5 0.8 1.2-0.9 2.5-1.8 1.5z" style="fill: rgb(86, 76, 68);"></path><path class="a" d="m285.8 224.6c-0.8-0.9-1.3-1.9-1.7-3-0.1-0.4 0-0.8 0.3-1q0-0.3 0.2-0.5c0.2-0.4 0.6-0.4 0.9-0.2q0.1 0.1 0.2 0.2 0.4 0.1 0.7 0.6c0.5 0.7 1 1.5 1.4 2.3q0 0-0.1 0c0.7 1.2-0.9 2.7-1.9 1.6z" style="fill: rgb(86, 76, 68);"></path><path class="a" d="m182.9 193.5c-1.8-1.6-5.8-2-8.1-2.5-3.9-0.9-7.8-1.9-11.8-2-6.8-0.3-13.5 1-20.3 1.2-10.2 0.3-24.5 0.9-34-3.9-8.3-4.2-17.3-12.1-19.8-21.5-2.6-10.1-1.1-20.2 0-30.4 0-0.8 1.2-0.8 1.2 0 0.9 10.3 0.1 22.5 5.7 31.7 2.9 4.8 7.6 9.4 12.4 12.4 5.4 3.5 10.8 4.1 17 4.8 6.7 0.7 13.3 1.1 20 0.6 5.9-0.4 11.9-1.6 17.8-1 5.4 0.6 10.5 1.8 15.8 3 3.1 0.8 5.9 1.2 8.1 3.7 2.5 2.6-1.2 6.3-4 3.9z" style="fill: rgb(86, 76, 68);"></path><path class="a" d="m116.2 192.1c-3.5-0.7-6.6-1.6-9.4-2.8-0.6 0.4-1.2 0.6-2 0.7-3.4 0.3-9.8 3.1-12.4-0.7q-0.1-0.1-0.1-0.1c-0.6 0.8-1.4 1.5-2.5 2-1.9 1-4.5 0.2-5-2-0.7-3.1 0-5.7 0.4-8.7 0.8-5.5 1.5-11 1.7-16.6-0.3-3.3 5-3.3 5.2 0q0.2 3.2 0.1 6.4c1.7 0.1 3.5 1.5 3.7 3.4q0.1 0.6 0.2 1.1 0.6 0.1 1.2 0.6 0.3 0.2 0.7 0.5 0 0 0 0c3 2.3 6 4.9 9.5 6.5 3.4 1.6 7 2 10.6 2.9 4.4 1.1 2.5 7.7-1.9 6.8z" style="fill: rgb(86, 76, 68);"></path><path class="a" d="m93.8 174.6c-6.2-22.5-5.1-45.2-2.1-68.1 0.1-0.8 1.1-0.8 1.2 0 1.1 10.7 0 22.2 0.3 33 0.3 11.7 2.2 22.5 4.3 34 0.4 2.5-3.1 3.5-3.7 1.1z" style="fill: rgb(86, 76, 68);"></path><path class="a" d="m102.4 181.7c-6.8-7.9-8.8-20.9-8.3-31 0.7-13 1.2-26.5 6.1-38.7 0.3-0.8 1.4-0.5 1.3 0.3-2.2 12.1-1.3 23.9-0.7 36 0.5 11.1 3.5 19.8 7.3 30 1.2 3.2-3.5 5.9-5.7 3.4z" style="fill: rgb(86, 76, 68);"></path><path class="a" d="m114.3 185.4c-15.5-17-14.7-41.9-9.2-63 0.2-0.8 1.4-0.6 1.4 0.2-0.7 11-1.1 22.7 2.2 33.4 1.5 4.8 2.4 9.9 4.2 14.5 1.6 4 4.8 7 7.2 10.4 2.3 3.5-3 7.5-5.8 4.5z" style="fill: rgb(86, 76, 68);"></path><path class="a" d="m109.8 185.4c-4.6-0.5-6.5-7-7-10.9-0.2-1.5 1.6-3.2 2.8-1.7 0.9 1.2 1.7 2.4 2.5 3.7 0.2 0.5 0.1 1-0.2 1.4 0.7 1.4 1.6 2.6 3 3.5 1.6 1.1 1.2 4.3-1.1 4z" style="fill: rgb(86, 76, 68);"></path><path class="a" d="m110.1 181.8c-1.1 2.1-3.8 0.8-4.1-1.1q0-0.3 0-0.6c-0.2-1-1-2.1-1.6-3-0.8-1.2-1.7-2.4-2.3-3.7-1.1-2.4 1.9-5.2 3.9-3 0.8 0.9 1.6 1.8 2.2 2.9q0.4 0.7 0.3 1.4c1.4 2.2 2.8 4.7 1.6 7.1z" style="fill: rgb(86, 76, 68);"></path><path class="a" d="m119.9 183.8c-14.8-12.4-11.1-36.5-7.8-52.9 0.2-0.6 1-0.4 1.1 0.2 0.9 9.1-0.7 18.7 2.2 27.6 2.3 7 4.7 14.2 9.9 19.7 3.4 3.7-1.7 8.6-5.4 5.4z" style="fill: rgb(86, 76, 68);"></path><path class="a" d="m125.6 188.3c-6.2-7.1-6.6-15.5-7.7-24.4-1.3-10.3-2.2-22.7 1.7-32.5 0.2-0.7 1.3-0.7 1.3 0.1-0.2 10.2 0.6 19.3 3.2 29.1 1.9 7.4 2.3 15.8 7.2 21.9 3.2 4-2.2 9.8-5.7 5.8z" style="fill: rgb(86, 76, 68);"></path><path class="a" d="m132.9 189c-6.8-7.2-7.9-18-8.1-27.5-0.1-6.4 0.5-12.6 0.7-19 0.2-3.7 0.5-7 2.2-10.3 0.3-0.7 1.3-0.2 1.1 0.5-1.9 9.3 0.3 21.4 2.4 30.5 1.7 7.5 3.4 14.7 8.2 20.8 2.8 3.8-3.4 8.4-6.5 5z" style="fill: rgb(86, 76, 68);"></path><path class="a" d="m140.9 188.9c-7.5-4.1-8.6-16.8-9.1-24.5-0.7-10.7-0.9-22.4 3.4-32.5 0.3-0.6 1.3-0.3 1.2 0.3-1.1 10-1.2 19.2 1.1 29 1.7 7.3 3.3 15.8 8.1 21.7 2.6 3.3-0.6 8.3-4.7 6z" style="fill: rgb(86, 76, 68);"></path><path class="a" d="m144.3 187.6c-6.5-5.5-5-17.7-5.7-25.3-0.9-9.4-0.4-19.3 4-27.8 0.3-0.7 1.2-0.2 1.1 0.5-1.7 9.7-0.3 18.7 1.3 28.2 0.7 4 1.2 8 2.1 11.9 0.7 3.2 2.2 6 2.8 9.2 0.7 3.4-3 5.5-5.6 3.3z" style="fill: rgb(86, 76, 68);"></path><path class="a" d="m149.8 185.8c-4.5-6.2-4.5-15.2-3.8-22.6 0.8-9.4 1.9-20.5 5.3-29.3 0.3-0.8 1.7-0.8 1.6 0.2-0.7 14.8-2.7 33.9 3.9 47.6 2.2 4.8-4 8.3-7 4.1z" style="fill: rgb(86, 76, 68);"></path><path class="a" d="m158.5 187.5c-2.5-3.1-2.8-6.2-3.2-10.1-0.5-5-1.6-10.1-1.2-15.1 0.9-9.6 2.6-19.6 6.8-28.3 0.3-0.6 1.5-0.4 1.4 0.4-1.1 8.5-2.6 16.7-2 25.3 0.3 5.2 1.9 9.9 2.7 14.9 0.4 2.7 0.6 5.5 1.7 8.1 1.6 3.7-3.1 8.5-6.2 4.8z" style="fill: rgb(86, 76, 68);"></path><path class="a" d="m170 189.9c-3.4-0.2-6.5-1.7-9.9-2.4-4.9-1.1-3.6-8.4 1.2-8.6 1 0 1.9 0.1 2.7 0.3-2-14.5 0.6-30.1 7.1-43.1 0.4-0.7 1.4-0.1 1.3 0.6-2.3 16.4-3.3 31.2 2.2 47.2 0.9 2.8-1.6 6.2-4.6 6z" style="fill: rgb(86, 76, 68);"></path><path class="a" d="m181.6 186.1c0.4 4.5-6.9 5.4-7.8 1.1-1.8-7.9-2-16.8-0.6-24.8 1.3-7.5 2.3-16.5 6.9-22.8 0.3-0.3 0.8-0.1 0.7 0.3-1.9 7.2-1.5 15.9-1.6 23.3 0 7.8 1.7 15.2 2.4 22.9z" style="fill: rgb(86, 76, 68);"></path><path class="a" d="m188.1 187.3c-0.1 5.2-8.1 5.2-8.2 0-0.3-15-0.2-30 7.2-43.5 0.3-0.6 1-0.2 0.9 0.4-1 7.6-2.6 15.5-1.8 23.1 0.8 6.8 2 13.2 1.9 20z" style="fill: rgb(86, 76, 68);"></path><path class="a" d="m193.1 166.9c0.4 6.9-0.9 12.9-1.2 19.7-0.3 4.9-7.5 4.9-7.7 0-0.2-3.8 0.7-6.9 1.3-10.5 0.8-4.1 0.9-8.6 2.2-12.6 1.8-6.1 4.4-11.9 7.1-17.7 0.2-0.5 1.3-0.3 1.2 0.4-1 7.1-3.3 13.3-2.9 20.7z" style="fill: rgb(86, 76, 68);"></path><path class="a" d="m206 150.3c-4.1 11.5-6.2 22.9-8.8 34.7-1.1 4.8-8.9 2.7-7.5-2 3.4-11.3 6.8-24.7 15.4-33.2 0.4-0.4 1.1 0 0.9 0.5z" style="fill: rgb(86, 76, 68);"></path><path class="a" d="m213.1 152.7c-1.9 6.5-5.6 13.1-5.9 20-0.2 4.4-0.1 8.8-2.6 12.6-3.6 5.2-10.9-0.3-7-5.4 3.1-3.9 3.7-9.8 6-14.2 2.5-4.7 5.5-9 8.5-13.4 0.3-0.6 1.2-0.3 1 0.4z" style="fill: rgb(86, 76, 68);"></path><path class="a" d="m222.3 156.6c-4.3 7.3-7.6 14.6-8 23-0.3 4.5-1.1 8.8-6.2 9.4-4.5 0.5-5.6-7.3-1.1-8-1.4 0.3-0.7 0.8-0.3-1.2q0.3-1.6 0.6-3.1c0.5-2 1.4-3.9 2.3-5.6 3.3-5.7 7.6-10.1 11.8-15.2 0.4-0.5 1.2 0.2 0.9 0.7z" style="fill: rgb(86, 76, 68);"></path><path class="a" d="m228.4 161c-4.5 9.7-6.3 20.3-8.9 30.6-1.4 5.6-10.4 3.2-8.7-2.4 1.7-5.7 5.3-11 7.9-16.4 2.3-4.7 4.8-8.9 8.4-12.8 0.7-0.7 1.6 0.2 1.3 1z" style="fill: rgb(86, 76, 68);"></path><path class="a" d="m236.6 165.7c-3.7 6.1-5.5 12.5-8.1 19.1-1 2.6-1.7 5.2-3 7.7-1.1 2-3.5 2.5-5.2 3.8-3.9 2.9-7.8-3.2-5-6.5 0.7-0.8 1.4-1.4 2.3-1.9 1.6-0.8 1.7-2.1 2.6-3.4 1.9-2.6 3.9-5.2 5.7-7.9 2.8-4.3 5.3-9 9.7-11.9 0.6-0.4 1.3 0.4 1 1z" style="fill: rgb(86, 76, 68);"></path><path class="a" d="m240.9 173.8c-3 5.5-4.3 10.8-5.6 16.9-0.8 4-4.9 5.4-8.6 4.8-3-0.5-3.6-4.5-1.7-6.4 1.3-1.4 2.5-1.4 4.1-2 0 0 2.2-3.6 2.7-4.2 2.5-3.5 5.2-6.7 8.3-9.7 0.4-0.3 1 0.1 0.8 0.6z" style="fill: rgb(86, 76, 68);"></path><path class="a" d="m248.7 178.1c-1.7 2.2-3.3 4.6-4.6 7.1-1.4 2.8-1.5 5.7-2.6 8.4-2.3 6-11.1 1.9-7.9-3.3 1.8-2.8 5.1-5 7.5-7.4 2.1-2.1 4.4-3.9 6.9-5.5 0.4-0.3 1 0.3 0.7 0.7z" style="fill: rgb(86, 76, 68);"></path><path class="a" d="m254.9 183c-1.9 5.3-4.6 10.5-7.1 15.5-2.9 5.6-11.7-0.8-6.9-5.3 4-3.8 8.4-7.4 12.7-10.9 0.5-0.4 1.5-0.1 1.3 0.7z" style="fill: rgb(86, 76, 68);"></path><path class="a" d="m262.6 186c-0.8 1.5-2.1 2.7-2.8 4.3-0.9 1.8-1.4 3.7-2.3 5.4-1.8 3.6-4.4 7.4-8.7 8.2-3.7 0.6-6.9-3.7-3.8-6.7 2.9-2.8 6.8-4.2 9.6-7.2 1.8-1.9 4.4-5.9 7.6-5.1 0.5 0.1 0.7 0.7 0.4 1.1z" style="fill: rgb(86, 76, 68);"></path><path class="a" d="m269.6 188.8c-1.7 2.8-3.8 5.2-5.9 7.8-1.9 2.3-4 4.7-7.2 5-2 0.2-3.5-2.5-2.3-4.1 1.8-2.5 4.9-3.3 7.5-4.9 2.4-1.5 4.6-3.3 7-4.7 0.6-0.3 1.2 0.3 0.9 0.9z" style="fill: rgb(86, 76, 68);"></path><path class="a" d="m278.3 191.1c0.1 3.3-4.4 6.6-6.7 8.5-3.3 2.8-7.9 4.7-11.9 1.9-2.9-2.1-1-6 2.3-5.6 3.1 0.5 7.1-0.1 9.8-1.8 1.9-1.2 3.9-3.3 6.2-3.4 0.2 0 0.3 0.2 0.3 0.4z" style="fill: rgb(86, 76, 68);"></path><path class="a" d="m285.4 194.4c-3.5 4.7-9.4 8-15.2 9-3.5 0.7-4.9-4.2-1.4-5.3 2.7-0.9 5.5-0.8 8.3-1.5 2.6-0.6 5.1-1.6 7.5-3 0.4-0.2 1.1 0.3 0.8 0.8z" style="fill: rgb(86, 76, 68);"></path><path class="a" d="m293.6 197.9c-4 7.7-13.1 12.4-21.4 8-3.6-2-1-7.1 2.7-6.4 6.5 1.4 12 1.3 17.6-2.8 0.7-0.5 1.5 0.5 1.1 1.2z" style="fill: rgb(86, 76, 68);"></path><path class="a" d="m299.6 202.4c-2.6 4-5.7 9-10.7 10.1-4.4 1-9.7 1-12.5-3-2.3-3.2 2-7 5.2-5.2 5.5 3.3 12.1 0.2 16.7-3.2 0.8-0.6 1.9 0.5 1.3 1.3z" style="fill: rgb(86, 76, 68);"></path><path class="a" d="m305.2 209.9c-6.2 5.5-16.6 15.6-24.4 6.2-2.6-3.1 0.7-8.1 4.5-5.8 3.5 2.1 6 2.3 10 1.5 3.1-0.7 6.1-2.1 9.2-2.9 0.6-0.2 1.2 0.6 0.7 1z" style="fill: rgb(86, 76, 68);"></path><path class="a" d="m310.7 217.4c-6 4.8-12.4 7.7-20.3 5.4-3.1-0.9-2.7-6.4 0.8-5.9 6.4 0.7 12.5 1.2 18.7-0.9 0.8-0.2 1.5 0.9 0.8 1.4z" style="fill: rgb(86, 76, 68);"></path><path class="a" d="m318.7 222.7c-4.5 6.4-19.4 10.2-24.2 2.3-1.8-2.8 1.1-6 4.1-5.3 3 0.6 5.6 2.7 8.7 3.3 3.5 0.7 7.2 0.6 10.2-1.5 0.7-0.4 1.6 0.5 1.2 1.2z" style="fill: rgb(86, 76, 68);"></path><path class="a" d="m326.1 229c-3.7 3.7-8.5 5.5-13.7 5.8-4.2 0.2-9.9-0.6-12.3-4.4-1.9-3.1 1.8-6.3 4.7-4.7 6 3.1 13.5 4.7 19.8 1.4 1.3-0.7 2.6 0.9 1.5 1.9z" style="fill: rgb(86, 76, 68);"></path><path class="a" d="m335.6 233.3c-4.7 4.8-18.8 10.7-24.5 4.5-2.9-3.1 0.7-7.4 4.4-5.7 6.1 2.8 13.2 2.1 19.2-0.3 0.9-0.4 1.5 0.9 0.9 1.5z" style="fill: rgb(86, 76, 68);"></path><path class="a" d="m338.5 239c-5.8 4.9-12.4 6.3-19.7 4-3.9-1.2-2.2-7.3 1.6-6 5.2 1.7 12.1 3.7 17.3 1 0.6-0.3 1.3 0.5 0.8 1z" style="fill: rgb(86, 76, 68);"></path><path class="a" d="m345.1 244.7c-5.4 5-13.9 5.8-20.1 1.9-2.2-1.4-1.4-5.2 1.4-5.1 2.9 0 4.7 1.9 7.4 2.4 3.5 0.7 6.9-0.1 10.3-0.9 1-0.3 1.8 1 1 1.7z" style="fill: rgb(86, 76, 68);"></path><path class="a" d="m349.9 250c-2.1 2.6-5.4 3.9-8.6 4.3-3.4 0.5-8.7-0.4-10.3-3.9-0.9-2 0.7-5.4 3.3-4.3 2.4 1 4.2 2.5 6.9 3.1 2.7 0.6 5.3 0.4 8-0.1 0.5-0.1 1 0.4 0.7 0.9z" style="fill: rgb(86, 76, 68);"></path><path class="a" d="m354.7 256c-4.4 4.1-12 2.9-16.5-0.6-2.5-2 0.7-5.7 3.3-4.3 4.1 2.2 8 4.1 12.8 3.9 0.5 0 0.8 0.6 0.4 1z" style="fill: rgb(86, 76, 68);"></path><path class="a" d="m362.3 262.6c-9.9 5.4-22.2-5.3-29.5-10.8-1.8-1.3-0.8-4.1 1.5-3.6 4.4 1.1 7.6 4.5 11.8 6.3 5.4 2.3 9.8 5.9 15.8 6.6 0.7 0.1 1.1 1.1 0.4 1.5z" style="fill: rgb(86, 76, 68);"></path><path class="a" d="m326.1 9.7c-2.8 0.2-8.3-0.6-10.4 1.6-2 2-3.3 4.3-4.8 6.7-2.8 4.7-5.4 9.7-8.6 14.2-5.8 8.1-12.9 14.1-20.9 19.9-0.6 0.4-1.1-0.5-0.7-0.9 4.9-5.7 11.1-10.6 15.2-16.9 3.9-6.1 7.2-12.5 10.9-18.8 4.9-8.3 9.9-11.9 19.8-9.8 2.4 0.5 1.6 3.8-0.5 4z" style="fill: rgb(86, 76, 68);"></path><path class="a" d="m326 9.7c-2.8 1.3-6.5 3.1-9.6 5.4 0.9 0.9 1.1 2.4 0 3.7-2.2 2.5-4.5 4.5-7.6 5.7-1.7 0.8-4.1-1.1-3.9-3 0.9-8.4 13.1-13.5 20.5-14 1.1 0 1.6 1.7 0.6 2.2z" style="fill: rgb(86, 76, 68);"></path><path class="a" d="m300.7 19.9c-2 7.6-7.2 13.6-11.5 20-1 1.6-3.4 0.2-2.5-1.5 3.4-6.8 9.4-12.1 13.1-18.9 0.3-0.5 1.1-0.1 0.9 0.4z" style="fill: rgb(86, 76, 68);"></path><path class="a" d="m293.3 20c-1.3 6.2-5.6 10.9-8.8 16.1-1 1.6-3.6 0.1-2.5-1.4 3.5-4.9 8.1-9.2 10-15.1 0.3-0.8 1.4-0.4 1.3 0.4z" style="fill: rgb(86, 76, 68);"></path><path class="a" d="m286 21.2c-2.7 3.1-4.2 7.1-6.7 10.3-0.8 1-2.4-0.3-1.8-1.4 1.9-3.5 4.7-7.1 7.6-9.8 0.6-0.6 1.5 0.3 0.9 0.9z" style="fill: rgb(86, 76, 68);"></path><path class="a" d="m277.1 22.9c-1.9 2.5-3 5.5-5.5 7.5-1.1 0.9-2.3-0.7-1.2-1.5 2.5-1.7 3.8-4.5 5.8-6.7 0.4-0.5 1.3 0.2 0.9 0.7z" style="fill: rgb(86, 76, 68);"></path><path class="a" d="m265.4 26.6c-1.6 1.8-2.8 4-4.8 5.4-1 0.7-2.1-0.8-1.3-1.6 1.8-1.6 3.2-3.4 4.9-5.1 0.8-0.7 1.9 0.4 1.2 1.3z" style="fill: rgb(86, 76, 68);"></path><path class="a" d="m412.9 259.5c-1.7 9.2-16.6 6.9-22.6 4.9-10.9-3.7-21.5-10.6-27.2-21-0.3-0.7 0.6-1.4 1.2-0.9 3.1 3.2 7 4.6 10.7 6.7 3.9 2.2 7.3 5.1 11.3 7 4.7 2.2 21.3 9.5 25.3 2.8 0.4-0.7 1.4-0.2 1.3 0.5z" style="fill: rgb(86, 76, 68);"></path><path class="a" d="m408.8 255.1c-11.6 8.6-24.8 3.7-36.2-2.8-2.5-1.4-0.8-5.3 2-4.6 11.5 2.8 21.4 9.5 33.6 5.9 0.9-0.2 1.3 1 0.6 1.5z" style="fill: rgb(86, 76, 68);"></path><path class="a" d="m397.4 247.6c-7.7 5.8-26.1 7.5-31.9-2.3-1.3-2.2 1.3-4.9 3.6-3.6 7.9 4.7 18.8 7 27.8 4.8 0.7-0.2 1 0.7 0.5 1.1z" style="fill: rgb(86, 76, 68);"></path><path class="a" d="m392 240.8c-7 8.3-20 6.5-28.7 2.4-2.4-1.1-1.2-5.2 1.4-5 4.1 0.3 8 1.4 12 2 5.4 0.8 9.2 0.8 14.5-0.8 0.8-0.2 1.3 0.8 0.8 1.4z" style="fill: rgb(86, 76, 68);"></path><path class="a" d="m384.7 234.2c-5.3 6.1-17.7 11.4-24.9 5.8-2.6-1.9-1.1-5.6 2.1-5.1 3.8 0.7 7.2 1.1 11.2 0.6 3.8-0.4 7.1-1.8 10.8-2.7 0.8-0.2 1.3 0.8 0.8 1.4z" style="fill: rgb(86, 76, 68);"></path><path class="a" d="m378.1 227.1c-2.6 3.9-6.3 6.9-10.8 8.2-3.5 1-7.9 1.9-10.9-0.7-2.3-1.9 0.1-5.3 2.7-4.6 6.3 1.6 12.7-0.7 18-3.9 0.6-0.4 1.4 0.4 1 1z" style="fill: rgb(86, 76, 68);"></path><path class="a" d="m372.7 221.1c-1.5 3.3-5.1 6-8.1 8-2.9 2-6.7 3.6-10.3 2.8-2.2-0.4-2.7-3.9-0.6-4.9 3-1.5 6.7-1.6 10-2.8 3-1 5.5-2.9 8.4-3.9 0.5-0.1 0.8 0.4 0.6 0.8z" style="fill: rgb(86, 76, 68);"></path><path class="a" d="m369.2 216c-2.9 4-6.8 8.3-11.4 10.3-3 1.2-8.7 3-10.4-1.1-0.8-2 0.1-4.6 2.7-4.6 2.4 0 4.7 0.2 7.2-0.3 4-0.9 7.5-2.9 10.8-5.4 0.6-0.4 1.6 0.5 1.1 1.1z" style="fill: rgb(86, 76, 68);"></path><path class="a" d="m363.6 212.6c-2.4 3-5.9 6-9.3 7.7-3.1 1.5-8.9 3.2-10.3-1.4-0.6-2 1.4-3.5 3.2-3.2 1.3 0.3 1.9 0.7 3.2 0.6 1.6-0.2 3.4-0.7 4.9-1.2 2.5-1 5.1-2.1 7.4-3.7 0.7-0.5 1.4 0.6 0.9 1.2z" style="fill: rgb(86, 76, 68);"></path><path class="a" d="m359.2 206.1c-1.5 3.1-4.8 5.8-7.5 7.8-3.2 2.3-6.7 4.4-10.6 2.6-2.1-1-2-4.5 0-5.5 3-1.4 6.5-0.8 9.6-2 2.7-1 5-2.9 7.7-4 0.6-0.2 1 0.6 0.8 1.1z" style="fill: rgb(86, 76, 68);"></path><path class="a" d="m353.5 198.5c-2.6 5.2-6.2 14.7-13.4 14.3-3.8-0.2-5-6-0.9-6.9 2.8-0.6 5-1.4 7.4-3.1 2.1-1.5 3.9-3.3 5.8-5.1 0.6-0.6 1.4 0.1 1.1 0.8z" style="fill: rgb(86, 76, 68);"></path><path class="a" d="m349 192.9c-2.3 5.7-5.8 14.2-12.4 15.8-4.6 1.1-6-5.2-1.9-6.9 2.9-1.1 5.5-2.2 7.8-4.3 1.9-1.7 3.6-3.7 5.6-5.3 0.4-0.3 1 0.2 0.9 0.7z" style="fill: rgb(86, 76, 68);"></path><path class="a" d="m342.5 188.2c-1 1.1-1.4 3.2-2.1 4.5-0.8 1.4-1.6 2.8-2.4 4.1-2.1 3-3.8 6.1-6.8 8.1-4.1 2.8-7.7-3.6-3.8-6.4 1.7-1.3 3.6-1.9 5.4-3 1.7-1.1 3.2-2.4 4.4-4 1.4-1.7 2.5-4 4.8-4.3 0.6-0.1 0.7 0.6 0.5 1z" style="fill: rgb(86, 76, 68);"></path><path class="a" d="m333.2 206.1c-1.7-0.4-2.9-1.9-3.9-3.3-0.7-1-0.2-2.4 0.7-3 0.9-0.5 2-0.4 2.7 0.3 0.6 0.7 1 1.2 1.5 1.7 0.5 0.2 0.9 0.5 1.1 1.1q0.1 0.5 0.2 0.9c0.3 1.4-0.8 2.7-2.3 2.3z" style="fill: rgb(86, 76, 68);"></path><path class="a" d="m337.8 183.7c-0.6 1.6-1.6 2.9-2.4 4.4-0.8 1.5-1.5 3.1-2.3 4.7-1.6 3.2-3.5 5.9-6.9 7.4-3.9 1.6-6.2-4.6-2.8-6.6 2.7-1.6 5.2-3.1 7.5-5.3 1.9-1.9 3.4-4.5 6-5.5 0.5-0.2 1.1 0.4 0.9 0.9z" style="fill: rgb(86, 76, 68);"></path><path class="a" d="m331 182.6c-0.2 1.8-1.1 3.6-1.8 5.3-1.6 3.7-3.3 7.2-7.2 8.9-4.5 1.9-8.4-4.2-3.9-6.7 3.5-2 8.2-4.6 10.1-8.3 0.6-1.1 1.1-4 3-3.3q0 0 0 0.1c-0.4 1.2 0 2.7-0.2 4z" style="fill: rgb(86, 76, 68);"></path><path class="a" d="m325.6 174c-1.2 7.2-4.9 15.2-11.5 18.8-4.2 2.4-7.6-3.7-3.7-6.3 5.4-3.8 10.6-7 13.7-13.1 0.4-0.9 1.6-0.2 1.5 0.6z" style="fill: rgb(86, 76, 68);"></path><path class="a" d="m318.8 192.7c-0.1 1.1-0.8 2-2 2q-0.4 0-0.7-0.1-0.2 0-0.3 0c-2.8 0-4.3-3.1-4-5.6 0.1-1.2 0.7-2.3 2-2.7 1.4-0.4 2.5 0.3 3.3 1.3 0.1 0.2 0.7 1.3 0.3 0.6q0.1 0.2 0.2 0.4 0.3 0.6 0.5 1.1 0.1 0.2 0.2 0.4 0.2 0.4 0.3 0.8 0 0.1 0 0.1c0.2 0.6 0.3 1.1 0.2 1.7z" style="fill: rgb(86, 76, 68);"></path><path class="a" d="m319.2 167.9c-0.6 7.5-2.6 17.5-9.9 21.2-4.5 2.3-8.4-4.3-4-6.9 2.7-1.6 5.6-3.5 7.6-5.9 2.2-2.6 3.5-5.7 4.8-8.8 0.4-0.7 1.5-0.3 1.5 0.4z" style="fill: rgb(86, 76, 68);"></path><path class="a" d="m311.2 165.3c-0.3 4.1-0.7 8.6-2.1 12.4-0.6 1.5-1.6 2.6-2.5 3.9-0.7 1.1-1 2.4-1.7 3.4-0.9 1.3-2.4 2.1-4 1.6q-0.1 0-0.3-0.1c-1.2-0.4-2.4-1.4-2.7-2.7-0.8-4.1 1.9-6.6 4.5-9.3 2.8-3 4.5-6.9 7.4-9.7 0.5-0.5 1.4-0.2 1.4 0.5z" style="fill: rgb(86, 76, 68);"></path><path class="a" d="m307.3 188.4c-3.9-1.2-8.7-2.4-12.2-4.4-2.5-1.4-6-3.6-6-7-0.1-3.4 2-4.6 4.7-6.1 3.4-1.9 5.2-5.5 7.6-8.5 0.4-0.6 1.3 0.1 1.2 0.8-1.2 4.6-2 10-5.7 13.4q-0.2 0.2-0.4 0.3c0.2 0.1 0.5 0.2 1 0.5q1.6 1 3.1 2.2c2.7 1.8 5.3 3.6 8.1 5.4 1.8 1.1 0.7 4-1.4 3.4z" style="fill: rgb(86, 76, 68);"></path><path class="a" d="m293 161.2c-0.4 2.6-1.6 4.7-3.2 6.8-1.5 2.2-2.6 4.7-4.4 6.6-1.9 1.9-5.4-0.7-3.8-2.9 1.5-2.1 3.7-3.1 5.4-4.9 1.9-1.8 3.6-3.8 4.9-6.1 0.4-0.6 1.3-0.1 1.1 0.5z" style="fill: rgb(86, 76, 68);"></path><path class="a" d="m285.7 158.5c-1.3 1.8-2.1 3.9-3 6-0.8 1.8-1.5 3.8-2.9 5.3-1.7 1.8-5-0.7-3.5-2.8 1.3-1.8 3.1-3.2 4.6-4.7q2.1-2.2 4.1-4.4c0.4-0.3 1 0.1 0.7 0.6z" style="fill: rgb(86, 76, 68);"></path><path class="a" d="m279.4 155.4c-1.1 3.6-3.9 6.4-6.4 9.2-1.4 1.6-3.9-0.9-2.3-2.3 2.6-2.3 5.6-4.5 7.4-7.5 0.4-0.7 1.6-0.3 1.3 0.6z" style="fill: rgb(86, 76, 68);"></path><path class="a" d="m270.8 154.3c-0.5 1-1.2 1.8-2 2.5-0.6 0.6-1.5 1.3-1.8 2.1-0.4 0.9-1.4 1.4-2.3 0.9-0.8-0.5-1.1-1.8-0.3-2.4 0.9-0.7 1.7-1.4 2.7-1.9 0.9-0.6 1.9-1.2 2.6-2 0.6-0.6 1.5 0.2 1.1 0.8z" style="fill: rgb(86, 76, 68);"></path><path class="a" d="m460.6 246.8c-1.7 9.3-14.3 11.1-21.7 12.2-4.1 0.5-9.4 1.8-13.3-0.5-3.7-2.2-6.5-6.6-9.4-9.8-1.5-1.6 0.8-3.8 2.4-2.4 7.1 6.5 13.1 6.9 22.2 5.9 6.6-0.8 14.2-0.5 18.6-6.1 0.5-0.6 1.3 0.1 1.2 0.7z" style="fill: rgb(86, 76, 68);"></path><path class="a" d="m453.6 244.2c-6.6 9.1-29.1 15.9-36.1 3.7-1.6-2.8 1.6-5.8 4.3-4.3 8.5 4.7 22.2 3.4 30.6-0.6 0.7-0.3 1.7 0.4 1.2 1.2z" style="fill: rgb(86, 76, 68);"></path><path class="a" d="m447.5 236.2c-0.2 6.2-10.8 8.6-15.5 9.3-6.4 0.9-16.9 3-20.5-4.1-1.5-3.1 1.9-7.6 5.2-5.2 4.1 3 9.5 1.6 14.2 1.5 5.5 0 10.8 0.8 15.7-2 0.4-0.2 0.9 0 0.9 0.5z" style="fill: rgb(86, 76, 68);"></path><path class="a" d="m441.5 229c-5.9 8.7-26.5 16.5-33.9 6.1-2.2-3.2 2.2-7.4 5.4-5.4 3.8 2.5 7.9 1.9 12.2 1.5 5.4-0.5 10.3-0.9 15.2-3.3 0.6-0.3 1.5 0.4 1.1 1.1z" style="fill: rgb(86, 76, 68);"></path><path class="a" d="m435.7 222.1c-5.9 5.7-12.5 10-21 9.2-5.2-0.4-12.5-2.1-11.4-8.8 0.6-3.3 4.9-3.1 6.5-0.9 1.5 2.2 6.3 2 8.7 2 5.6 0.1 11.1-0.5 16.2-2.8 0.8-0.3 1.7 0.6 1 1.3z" style="fill: rgb(86, 76, 68);"></path><path class="a" d="m409.5 231.1q0.1 0.2 0.1 0.3c-0.1 1.3-1.1 2.4-2.4 2.4-1.1 0-1.9-0.7-2.3-1.7-0.4-1.2 0.1-2.5 0.9-3.3q0.1-0.3 0.3-0.5c0.6-0.9 1.5-1.3 2.5-0.8 0.6 0.3 0.7 1 0.7 1.6 0.4 0.6 0.5 1.3 0.2 1.9q0 0.1 0 0.1z" style="fill: rgb(86, 76, 68);"></path><path class="a" d="m428.9 215.1c-3.9 4.5-10.5 8.6-16.6 8.8-4.7 0.2-11.1-0.7-12.6-5.9-0.9-3.1 2.6-5.6 5.3-4.1 6.2 3.6 16.7 3.1 22.8-0.2 0.9-0.5 1.7 0.6 1.1 1.4z" style="fill: rgb(86, 76, 68);"></path><path class="a" d="m422.5 207.1c-4.2 2.8-7.1 6.9-11.9 8.8-4.4 1.7-9.9 2-12.8-2.3-1.9-2.8 1.3-5.6 4-5.1 1.6 0.3 3 1.1 4.7 0.9 1.9-0.1 3.7-0.5 5.5-0.9 3.4-0.8 6.7-1.7 9.9-2.8 0.9-0.3 1.3 0.9 0.6 1.4z" style="fill: rgb(86, 76, 68);"></path><path class="a" d="m419.5 198.1c-3.4 4.8-7.6 9.1-13.3 11-4.2 1.4-10 3.1-13-1.1-2.3-3.2 1.4-6.4 4.5-5.9 2.6 0.4 5.4-0.2 8-0.9 4.4-1.1 8.7-1.8 12.7-4.2 0.7-0.4 1.6 0.4 1.1 1.1z" style="fill: rgb(86, 76, 68);"></path><path class="a" d="m416.5 189.4c-3.6 6.9-13.7 11.8-20.7 14.3-4.4 1.6-7.2-5.3-3.2-7.4 3.7-2 7.7-2.5 11.7-3.3 4.2-0.9 7.3-2.7 11-4.8 0.8-0.5 1.6 0.4 1.2 1.2z" style="fill: rgb(86, 76, 68);"></path><path class="a" d="m411.3 181.3c-1.6 4.7-6.3 8.3-9.7 11.6-3 2.9-8.7 7.8-13 4.6-2.2-1.8-2.4-5.8 0.9-6.6 7.4-1.8 15-5.7 21-10.3 0.4-0.3 1 0.2 0.8 0.7z" style="fill: rgb(86, 76, 68);"></path><path class="a" d="m393.7 196.7c-0.1 0.2-0.1 0.4-0.2 0.7 0.6 1.5-0.4 3.4-2.1 3.3-1.6-0.1-3-0.5-3.8-2-1.1-2.3 1.2-4.5 3.4-3.4-0.5-0.2-0.1-0.1 0.2 0.1q0.1 0 0.1-0.1c0.5-0.3 1.2-0.3 1.8-0.3 0.8 0.1 1.3 1.1 0.6 1.7z" style="fill: rgb(86, 76, 68);"></path><path class="a" d="m402 177.5c-2.2 3.4-4.6 6.8-7 10.1-2.2 3-5.6 5.7-9.5 5.5-4.3-0.3-4.7-5.7-1-7.2 3-1.2 6.2-2 9-3.6 2.7-1.5 4.9-3.8 7.3-5.7 0.6-0.5 1.7 0.1 1.2 0.9z" style="fill: rgb(86, 76, 68);"></path><path class="a" d="m388.4 194.8c-1.4 0.4-2.6-0.7-2.7-2.1-0.1-1.2 0-2.8 1.2-3.4 0.6-0.4 1.3-0.2 1.8 0.2 0.7 0.6 0.7 1.5 1 2.1 0.7 1.2 0.1 2.8-1.3 3.2z" style="fill: rgb(86, 76, 68);"></path><path class="a" d="m395.1 172.5c-1.5 2.5-3.1 4.8-5 7.1-1.3 1.6-2.4 3.4-3.7 5 0.5 2.4-1.3 5-4.2 4.2-2.1-0.6-3.3-1.9-3.9-4-0.4-1.5 0.3-3.5 1.8-4.2 2.8-1.4 5.4-3.3 8.2-4.8 2.1-1.2 3.7-3.7 6-4.3 0.6-0.2 1.1 0.5 0.8 1z" style="fill: rgb(86, 76, 68);"></path><path class="a" d="m381.3 178.4c-0.5 0.7-1.3 1.3-1.8 2.1 0.9 2.1-0.4 4.3-2.7 4.5-2.6 0.2-4.7-1.9-4.7-4.4 0-2 1.5-3.6 3.2-4.3 1.7-0.7 3.2-1.3 4.7-2.3 2.2-1.6 4.2-3.5 6.4-5.2 0.3-0.3 0.8 0 0.7 0.4-1 3.6-3.5 6.4-5.8 9.2z" style="fill: rgb(86, 76, 68);"></path><path class="a" d="m382.4 165.3c-1.4 2.5-3.3 4.6-4.9 7-0.6 1-1.5 2-2 3.1-0.6 1-0.9 2-1.8 2.7-2.2 1.9-6.7 1-6.4-2.6 0.4-3.8 3.2-4.6 6.2-6.1 2.9-1.4 5.1-3.6 7.8-5.3 0.7-0.4 1.5 0.5 1.1 1.2z" style="fill: rgb(86, 76, 68);"></path><path class="a" d="m375.9 162.1c-1.2 2-2.2 4.2-3.3 6.3-1.1 1.9-2.4 4.2-4.4 5.2-1.8 0.8-3.9 0.5-4.9-1.3-1-1.6-0.5-4 1.3-4.9 1.8-0.9 3.6-1.2 5.3-2.4q2.6-1.7 4.9-3.7c0.6-0.5 1.6 0.1 1.1 0.8z" style="fill: rgb(86, 76, 68);"></path><path class="a" d="m370.7 159c-1 0.9-2 1.8-2.9 2.7-0.7 0.7-1.5 1.4-2 2.2q-0.4 0.6-0.7 1.2 0 0 0 0.1 0.1 0.7-0.1 1.5 0 0.1-0.1 0.3c0 3.3-5.2 4.8-6.7 1.6-1-2.1-0.6-4.9 1.6-6.2q0.6-0.4 1.3-0.4 0.3-0.2 0.6-0.3 1-0.5 2-0.9c2.1-1 4.3-2.4 6.7-2.5 0.3 0 0.5 0.5 0.3 0.7z" style="fill: rgb(86, 76, 68);"></path><path class="a" d="m363.8 154.9c-0.3 0.7-1.1 1.3-1.6 2-0.5 0.6-1.1 1.3-1.5 2.1-0.9 1.7-0.8 3.7-2.2 5.1-1.8 1.9-4.9 0.4-5-2.1-0.1-2.7 2.7-4.3 4.5-5.7 1.4-1 3.2-2.8 5.1-2.7 0.7 0 1 0.7 0.7 1.3z" style="fill: rgb(86, 76, 68);"></path><path class="a" d="m356 151.7c-1.9 2.5-1.6 7-5.2 8.1-1.5 0.4-3-1.4-2.1-2.7 1.6-2.4 4.2-4.3 6.4-6.1 0.5-0.4 1.3 0.1 0.9 0.7z" style="fill: rgb(86, 76, 68);"></path><path class="a" d="m351.3 148.6c-1 1.1-2.1 2-3.2 3-1 1.1-1.9 2.3-2.9 3.5-1 1.4-3.4-0.5-2.4-1.9 1.9-2.4 4.9-4.7 7.8-5.8 0.7-0.3 1.1 0.7 0.7 1.2z" style="fill: rgb(86, 76, 68);"></path><path class="a" d="m344.5 145.3c-1.1 0.9-1.8 2.1-2.7 3.2-0.7 0.9-1.5 2.1-2.6 2.7-1.5 0.9-2.8-1-1.8-2.3 0.9-1 2.1-1.9 3.1-2.8 0.9-0.8 1.9-1.5 3-2 0.8-0.3 1.6 0.6 1 1.2z" style="fill: rgb(86, 76, 68);"></path><path class="a" d="m337.1 142.7c-0.2 0.3-0.6 0.5-0.9 0.8q-0.4 0.5-0.8 1c-0.4 0.8-1 1.5-1.6 2.2-0.5 0.5-1.4 0.5-1.9 0-0.6-0.6-0.5-1.4 0-1.9q0.4-0.6 0.9-1.2c0.3-0.4 1-0.7 1.4-0.9 0.8-0.4 1.9-1 2.7-0.7 0.4 0.1 0.5 0.5 0.2 0.7z" style="fill: rgb(86, 76, 68);"></path><path class="a" d="m333.7 136.9c-0.9 1.4-2.1 2.5-2.9 3.9-0.5 0.8-1.7 0.9-2.3 0.3-0.6-0.6-0.5-1.5 0-2.1 1.1-1.4 2.6-2.4 4.2-3.1 0.6-0.3 1.4 0.3 1 1z" style="fill: rgb(86, 76, 68);"></path><path class="a" d="m328.3 133.7c-1 0.9-1.9 2-2.9 2.9-1.7 1.5-3.6-1.1-1.9-2.4 1.2-0.8 2.4-1.5 3.6-2.1 1-0.5 2.2 0.8 1.2 1.6z" style="fill: rgb(86, 76, 68);"></path><path class="a" d="m320.4 130.9c-0.7 0.5-1 1.4-1.5 2-0.8 0.8-2.2-0.2-1.6-1.1 0.6-0.9 1.6-1.4 2.4-2 0.7-0.4 1.3 0.6 0.7 1.1z" style="fill: rgb(86, 76, 68);"></path><path class="a" d="m501.8 222.9c-1.4 6.9-4.6 12.9-11.3 15.8-3.7 1.6-7.3 2.9-11.3 3.4-1.6 0.3-3.3 0.3-4.9 0.3-3.8 0.2-2.2-0.8-2.5 1.3-0.5 4.4-6.3 4.4-6.8 0-0.7-6.3 2.8-9.1 9.3-8.8 5.7 0.3 12.1-0.4 17.2-3.2 4.2-2.3 6.4-5.4 8.8-9.4 0.5-0.8 1.7-0.2 1.5 0.6z" style="fill: rgb(86, 76, 68);"></path><path class="a" d="m430.5 260.3c0.1 1.6-2.6 1.7-2.6 0 0-0.9-0.1-1.7 0-2.6 0-0.6 0.4-1.1 1.1-1.1 0.4 0 0.9 0.3 1 0.8 0.1 1 0.4 1.9 0.5 2.9z" style="fill: rgb(86, 76, 68);"></path><path class="a" d="m382.3 262.6c0.2 1.5-2.2 2.1-2.8 0.8-1.4-2.7-1-6.1-0.7-9.1 0.1-1.6 2.4-1.6 2.5 0 0.2 2.8 0.6 5.6 1 8.3z" style="fill: rgb(86, 76, 68);"></path><path class="a" d="m474.9 240.4c-1.9-0.1-3.5-0.2-4.9-0.5-0.8 1-2.3 1.5-3.7 0.9-0.9-0.5-1.3-1-1.8-1.9q-0.3-0.5-0.4-0.9-1.4-2.1-2.8-4.1c-0.6-0.9-0.5-1.9 0-2.7q-1-1.2-1.9-2.3c-4.1-5.3-6.8-10.9-7.7-17.5-0.1-0.5 0.7-0.6 0.8-0.1 2.7 10.5 14.8 19 23.9 23.5 2.7 1.3 1.4 5.7-1.5 5.6z" style="fill: rgb(86, 76, 68);"></path><path class="a" d="m494.5 223c-7.5 10.8-29.8 13.8-37.4 1-2.1-3.5 2.7-6.9 5.5-4.2 7.3 6.8 22.9 7.2 30.6 1.8 0.8-0.5 1.9 0.6 1.3 1.4z" style="fill: rgb(86, 76, 68);"></path><path class="a" d="m488 218c-6.5 7.2-28.9 12.5-34.8 1.6-2-3.8 2.6-7.1 5.7-4.4 3.3 2.7 8.2 2.6 12.2 2.8 5.6 0.2 10.4 0.7 15.7-1.5 1-0.5 2 0.6 1.2 1.5z" style="fill: rgb(86, 76, 68);"></path><path class="a" d="m483.4 210.1c-4.5 4.7-10.2 8.2-16.8 9.2-4.4 0.6-11.1 1.4-13.5-3.3-1.3-2.5 0.8-4.8 3.3-4.4 8.7 1.2 17.4 0.4 25.6-3.3 1.2-0.6 2.4 0.8 1.4 1.8z" style="fill: rgb(86, 76, 68);"></path><path class="a" d="m478.7 203.2c-5.9 5.5-25 18.5-29.9 5.6-1.3-3.4 3.4-5.7 5.8-3.4 3 2.9 8.4 1 12 0 3.8-1 7.6-2.2 11.3-3.5 0.7-0.3 1.3 0.8 0.8 1.3z" style="fill: rgb(86, 76, 68);"></path><path class="a" d="m477.9 195.4c-4.4 4.5-12.7 8-18.6 9.8-4.3 1.3-17 1.6-12.5-6.7 1.2-2.3 4.6-2.1 5.9 0q0.1 0.1 0.1 0.2 0 0 0.1 0c0.8 0.1 1.8 0 2.7-0.1 2.7-0.2 5.5-0.7 8.2-1.2 4.1-0.8 9.3-1.4 12.8-3.7 1-0.7 2.1 0.8 1.3 1.7z" style="fill: rgb(86, 76, 68);"></path><path class="a" d="m472.4 187.9c-2.7 4.1-8.4 7-12.7 9-4.7 2.3-10.7 3.7-15.6 1.1-3.1-1.7-1.7-7 1.9-6.8 5 0.3 9.3 0.7 14.3-0.5 3.9-0.9 7.4-2.9 11.2-3.9 0.6-0.2 1.3 0.5 0.9 1.1z" style="fill: rgb(86, 76, 68);"></path><path class="a" d="m465.1 180.1c-3.6 4.7-8.2 7.4-13.4 10-3.6 1.8-8.5 4-11.2-0.3-1.8-2.9 1.2-5.8 4.1-5.3 2.5 0.5 5.3-0.5 7.8-1.1 4.1-0.9 8-2.1 11.6-4.4 0.6-0.4 1.6 0.5 1.1 1.1z" style="fill: rgb(86, 76, 68);"></path><path class="a" d="m462.1 172.2c-1.8 1.6-2.7 3.9-4.5 5.5-1.5 1.4-3.1 2.7-4.8 3.9-3.9 2.6-7.7 5.3-12.6 4.3-3.9-0.7-3.1-6.1 0-7.2 3.8-1.3 7.8-1.8 11.6-3.1 3.4-1 6.5-3.5 9.9-4.1 0.4 0 0.7 0.4 0.4 0.7z" style="fill: rgb(86, 76, 68);"></path><path class="a" d="m455.3 167.4c-1.2 2.9-3.7 5-6.2 6.8-3 2.3-5.9 5.2-9.5 6.3-4.3 1.4-6.2-5.4-1.9-6.7 5.4-1.7 11.8-3.5 16.2-7.2 0.5-0.5 1.8 0 1.4 0.8z" style="fill: rgb(86, 76, 68);"></path><path class="a" d="m450 162.7c-1.7 2.9-3.8 5.2-6.1 7.6-2.3 2.5-4.6 6.2-8.4 5.1-2.1-0.5-2.9-2.8-1.9-4.6 1.2-2.4 4.9-3.3 7.3-4.4 2.8-1.2 5.9-2.3 8.3-4.3 0.4-0.4 1.1 0.1 0.8 0.6z" style="fill: rgb(86, 76, 68);"></path><path class="a" d="m444.3 159.4c-2.1 1.8-3.6 4-5 6.4-1.3 2.2-2.3 4.6-4.4 6.2-2.7 2.1-6.3-1.9-4.6-4.6 1.6-2.4 4.6-4 6.9-5.6 2-1.4 4.1-2.7 6.5-3.5 0.6-0.2 1.1 0.7 0.6 1.1z" style="fill: rgb(86, 76, 68);"></path><path class="a" d="m439 155.5c-1.6 2.2-3.8 4-5.6 6.1q-0.9 1-1.8 2.1c1.2 1.9 0.3 4.3-2.2 4.4-4.9 0.3-5.8-5.5-2.6-8.3 1.6-1.3 3.8-2 5.7-3 1.8-0.8 3.7-2 5.7-2.3 0.6-0.1 1.2 0.4 0.8 1z" style="fill: rgb(86, 76, 68);"></path><path class="a" d="m428.9 151.8q-2 1.4-3.7 3.1c-1.1 1.2-2.1 2.9-3.6 3.6-2.2 0.9-4.5-1.6-2.7-3.5 0.8-0.8 1.7-1.1 2.6-1.7 0.8-0.5 1.6-1.1 2.4-1.6 1.5-0.9 3-1.7 4.8-1.3 0.7 0.1 0.7 1.1 0.2 1.4z" style="fill: rgb(86, 76, 68);"></path><path class="a" d="m424 145.9c-1 1.3-2.4 2.3-3.5 3.6-1 1.1-1.9 2.7-3.4 3.1-1.3 0.4-2.4-0.9-2.1-2.2 0.4-1.6 2.6-2.8 3.9-3.7 1.2-0.9 2.6-2.1 4.1-2.4 1.1-0.2 1.6 0.9 1 1.6z" style="fill: rgb(86, 76, 68);"></path><path class="a" d="m418.5 142.1c-1.1 1-1.8 2.4-2.8 3.5-0.9 1-1.9 2.1-3 2.7-2.2 1.2-4.1-2-1.9-3.3 2.2-1.3 4.9-2 6.9-3.7 0.5-0.4 1.2 0.3 0.8 0.8z" style="fill: rgb(86, 76, 68);"></path><path class="a" d="m414.1 137.9c-0.8 1.3-1.7 2.6-2.8 3.8-1 1.1-2.2 2.4-3.6 2.8-1.9 0.6-3-2.1-1.3-3.1 1.2-0.7 2.3-1.4 3.4-2.2 1.1-0.8 2.1-1.7 3.1-2.5 0.7-0.5 1.7 0.5 1.2 1.2z" style="fill: rgb(86, 76, 68);"></path><path class="a" d="m407.8 134.9c-1.9 1.2-3.3 3.1-4.9 4.6-1.6 1.5-3.7-1.1-1.9-2.5 1.9-1.4 4.2-2 6.2-3.1 0.6-0.4 1.2 0.6 0.6 1z" style="fill: rgb(86, 76, 68);"></path><path class="a" d="m404.1 130.7q-1.1 1.3-2.3 2.5c-0.8 0.7-1.7 1.4-2.3 2.3-1.5 2.4-4.8-1-2.4-2.4 2-1.1 4.1-2.4 5.9-3.7 0.9-0.7 1.6 0.6 1.1 1.3z" style="fill: rgb(86, 76, 68);"></path><path class="a" d="m398.1 128.1c-0.6 0.3-1.1 1-1.5 1.6-0.5 0.7-0.9 1.7-1.7 2.1-1.3 0.6-2.4-0.6-1.9-1.9 0.3-0.5 0.7-0.8 1.1-1.1q0.6-0.5 1.2-1c0.8-0.5 1.5-0.9 2.5-1 0.7 0 0.9 1 0.3 1.3z" style="fill: rgb(86, 76, 68);"></path><path class="a" d="m394.6 123.9c-0.7 0.3-1.2 1-1.7 1.5q-0.4 0.5-0.7 1.1c0 0-0.2 0.5-0.1 0.1-0.2 0.4-0.3 0.6-0.6 0.8-0.5 0.5-1.2 0.7-1.8 0.3-0.6-0.4-1-1.1-0.7-1.8 0.1-0.4 0.3-0.7 0.7-1-0.2 0.1 0.3-0.3 0.4-0.3q0.6-0.6 1.4-1c0.8-0.5 1.7-0.9 2.7-1 0.7-0.1 1 0.9 0.4 1.3z" style="fill: rgb(86, 76, 68);"></path><path class="a" d="m390.3 121.4c-1.2 0.7-2.4 1.6-3.3 2.7-0.6 0.7-1.8 0.4-2.3-0.3-0.5-0.9 0-1.8 0.9-2.2 1.4-0.5 2.8-1.4 4.4-1.3 0.6 0 0.8 0.8 0.3 1.1z" style="fill: rgb(86, 76, 68);"></path><path class="a" d="m385.2 118.1c-0.9 1.1-1.8 2.2-3 3-1.6 1.1-3-1.7-1.1-2.4 1.2-0.5 2.3-1.1 3.4-1.7 0.6-0.3 1.2 0.5 0.7 1.1z" style="fill: rgb(86, 76, 68);"></path><path class="a" d="m382 114.7c-1.4 0.6-2.3 1.8-3.6 2.5-1.8 0.9-3-2.1-1.1-2.6 1.4-0.4 2.5-1.4 3.9-1.7 1.1-0.3 1.8 1.3 0.8 1.8z" style="fill: rgb(86, 76, 68);"></path><path class="a" d="m376.3 110.3c-0.8 0.2-1.4 0.7-1.8 1.3-1.1 1.5-3.1-0.5-1.9-1.4 1-0.9 2.1-1.5 3.4-1.4 0.9 0 1.1 1.3 0.3 1.5z" style="fill: rgb(86, 76, 68);"></path><path class="a" d="m370.4 106.6q-0.7 0.5-1.3 1.3c-0.7 0.9-2.2-0.5-1.3-1.4q0.8-0.6 1.7-1.1c0.8-0.4 1.7 0.6 0.9 1.2z" style="fill: rgb(86, 76, 68);"></path><path class="a" d="m428.9 101c-16.7-8.4-36.9-10.9-55.5-12.4-10.7-0.9-22-1.3-32.7 0.9-4.7 0.9-9.5 2.1-14 4-4.4 1.8-9.1 2.6-13.4 4.8-1.3 0.6-2.3-1.2-1.1-2 4.4-3.1 10.1-5.6 15-8 4.6-2.2 9.4-4 14.5-4.9 12.2-2.1 24.6-2.1 36.9-0.7 10.7 1.3 21.7 2.7 32.1 5.6 7.7 2.2 15 4.6 18.9 12 0.3 0.5-0.2 1-0.7 0.7z" style="fill: rgb(86, 76, 68);"></path><path class="a" d="m424.4 96.4c-3.4 0.2-5.9-1.6-9.2-2.4-3.9-0.9-7.7-2.1-11.5-3.5-7.6-2.8-15.4-4.8-23.2-6.6-14.5-3.5-33.2-4.3-46.7 2.9-1.8 1-3.1-1.5-1.5-2.7 11.6-8.8 28.8-10.7 42.8-8.2 17.3 3 32 15 49.3 17 2.4 0.3 2 3.6 0 3.5z" style="fill: rgb(86, 76, 68);"></path><path class="a" d="m372.2 85c-5.4 0.5-10.9 0.1-16.3 0.5-3.9 0.3-7.7 0.6-11.6-0.2-2.1-0.4-2-3.7 0-4.3 2.1-0.5 5.8-1.7 9-1.9q0-0.1 0-0.1c-0.8-0.1-1.6 0-2.5 0q-0.1 0-0.2 0.1-0.5 0.2-1.2 0.4c-0.8 0.3-1.6 0.1-2.2-0.4-2.9 0.5-4.1-4.1-1.1-4.7q1.6-0.4 3.2-0.7 0.2 0 0.4-0.1 0.4 0 0.8-0.1 0.7-0.3 1.4-0.5c1.2-0.4 2.1 0 2.6 0.7 1.7 0.3 3.3 0.8 4.8 2 0.8 0.5 0.9 1.5 0.8 2.3 4.3 1 9.2 0.2 13.5 2.1 2.6 1.1 1 4.7-1.4 4.9z" style="fill: rgb(86, 76, 68);"></path><path class="a" d="m360 85.6c-7.6 3.2-15.6 5-23.2 8.4-5.6 2.6-13.1 5.1-17.5 9.6-0.7 0.8-2.2-0.2-1.5-1.1 3.8-5.4 11.1-9.2 16.7-12.4 7.7-4.5 15.8-9.2 24.8-10.1 3.5-0.4 3.4 4.5 0.7 5.6z" style="fill: rgb(86, 76, 68);"></path><path class="a" d="m375.2 86.1c-12.8 3.7-27.4 4.9-38.1 13.8-0.6 0.6-1.5-0.1-1.2-0.9 3-5.9 10.2-9.2 16-11.7 7.1-3.1 14.6-6.8 22.5-7.3 3.5-0.2 4 5.1 0.8 6.1z" style="fill: rgb(86, 76, 68);"></path><path class="a" d="m389.5 89.2c-13.1 0.4-28.6 3.2-40.1 9.9-1 0.5-2.1-0.9-1.2-1.6 10.8-8.7 27.3-15.7 41.3-15.2 4.5 0.1 4.5 6.7 0 6.9z" style="fill: rgb(86, 76, 68);"></path><path class="a" d="m408.2 93.2c-6.7 0.1-13.5-0.2-20.2 0.3-7.2 0.6-13.2 3-20 5.2-0.8 0.2-1.3-1-0.6-1.3 12.9-6.4 26.6-14.4 41.4-8.7 2.3 0.9 2.1 4.5-0.6 4.5z" style="fill: rgb(86, 76, 68);"></path><path class="a" d="m429 100.1c-7.7-1.3-15.3-3.3-23.2-2.5-6.1 0.6-12.1 2.3-18.2 2.9-0.5 0-0.8-0.9-0.3-1.1 7.6-3.4 14.9-6.3 23.2-7.6 7.7-1.3 13.5 1.3 19.8 5.2 1.7 1.1 0.5 3.4-1.3 3.1z" style="fill: rgb(86, 76, 68);"></path><path class="a" d="m488.5 167.5c-2.8-3.6-6.1-7.1-8.2-11.1-2.4-4.5-4.7-8.7-9.3-11.3-7-3.9-15.6-4.8-22-9.7-7.1-5.3-14.9-10.6-18.8-18.8-1.8-3.8-3.1-7.6-4.3-11.6-1.1-3.8-1.9-8.6-5.8-10.5-1.1-0.5-0.5-2.2 0.6-2.2 6.4-0.2 9.3 7.8 11.4 12.6 4.8 11 11.8 19.4 22.1 25.7 7.4 4.6 16.5 7 23 12.8 3.5 3 5.2 6.5 7.4 10.5 2.2 4 4.9 7.8 6.2 12.2 0.3 1.3-1.4 2.5-2.3 1.4z" style="fill: rgb(86, 76, 68);"></path><path class="a" d="m427.7 108.3c-2.5-2.6-5.4-3.5-8.7-4.4-2.8-0.7-5.5-1.3-8.3-0.6-1.5 0.4-2.7 0.6-4.2 0.5-0.9-0.1-1-1.3-0.2-1.6 5.3-2.1 9.8-4.1 15.7-3.5 4.2 0.4 8.7 1.6 10.7 5.7 1.4 3.2-2.4 6.6-5 3.9z" style="fill: rgb(86, 76, 68);"></path><path class="a" d="m434.7 123.4c-4.6-7.5-11.9-14.7-21.3-14.3-0.7 0-1-1-0.4-1.3 9.5-5.2 25.3 4 26.6 14.3 0.4 2.7-3.6 3.3-4.9 1.3z" style="fill: rgb(86, 76, 68);"></path><path class="a" d="m458.5 138.1c-6.4-1.8-13.3-4.7-18.8-8.4-5.6-3.7-10-8.5-16-11.8-0.7-0.3-0.2-1.4 0.5-1.2 6.6 2.4 11.5 6.3 17.6 9.5 5.9 3 12.1 5.7 18.1 8.5 2 0.8 0.6 3.9-1.4 3.4z" style="fill: rgb(86, 76, 68);"></path><path class="a" d="m630.3 198.8c-1.4 7.4-2 12.9-9.3 15.9-1.6 0.6-2.4-1.6-1.5-2.6 3.4-4.2 2.6-9.3 3.3-14.3 0.6-4.4 1.6-8.8 1.7-13.2 0.4-9.6 0.4-19.1 0.3-28.6-0.4-18.6 1-38.4-2-56.8-0.1-0.6 0.8-1.2 1.1-0.5 4 8.4 3.5 18.2 4.6 27.2 1.7 12.6 3.6 25.2 4.2 37.9 0.6 12.2-0.1 23.1-2.4 35z" style="fill: rgb(86, 76, 68);"></path><path class="a" d="m651.1 195.6c0 2.7 0.3 6.9-1.9 9-3.2 3.2-8.4 0.2-12.3 1.4-5 1.6-9 4.7-13.6 7.2-0.5 0.2-0.9-0.2-0.7-0.6 4.4-8.4 9.7-13.7 19.6-13 2.9 0.1 3.3 1.6 3.6-2.4 0.1-1.6 0.1-3.2 0.4-4.7 0.8-5.7 1.4-11.2 2.7-16.8 0.2-0.8 1.5-0.6 1.5 0.2-0.2 6.6 0.9 13.1 0.7 19.7z" style="fill: rgb(86, 76, 68);"></path><path class="a" d="m635.8 199.4c-1.5 4.6-9 4-8.7-1.1 0.4-6.2 1.9-12.2 2.8-18.3 1.2-7.8 1.3-15.5 1.8-23.3 0.8-13.7-0.5-27.3-0.3-41 0-0.9 1.5-1.2 1.7-0.2 4.7 26.9 11.1 57 2.7 83.9z" style="fill: rgb(86, 76, 68);"></path><path class="a" d="m646.2 181.2c-0.6 9.4-0.5 28-15.6 24.1-5.2-1.4-3.9-9 1.3-9.2 0 0 2.3-1.6 2.5-1.8 0.4-2.3 0.6-4.6 1-7 1.1-6.6 2.4-13.2 3.4-19.8 2.1-14.1 3-28 1.5-42.2-0.1-1 1.4-1.1 1.6-0.2 4.7 18.1 5.4 37.5 4.3 56.1z" style="fill: rgb(86, 76, 68);"></path><path class="a" d="m654.1 177.2c-0.2 7.2-1.1 18.9-6.9 24-2.8 2.4-8.5 0.1-6.9-4 7.5-18.7 7.2-38.2 8.9-58.1 0.1-1 1.4-1 1.5 0q0.9 10.2 1.7 20.5c0.4 5.8 1.8 11.8 1.7 17.6z" style="fill: rgb(86, 76, 68);"></path><path class="a" d="m670.6 181.6c0 8.1-0.1 17-4.4 24.1-1 1.7-3.7 1-3.7-1 0-18.5 1.3-36.7 0-55.1-0.8-10.4-1.7-20.7-3.4-30.9-1.3-7.9-4.5-16.6-3.5-24.6 0-0.4 0.7-0.6 0.8-0.1 1.3 9.7 5.3 19.4 7.4 29 2.1 9.7 4.4 19.3 5.5 29.1 1.1 9.8 1.4 19.6 1.3 29.5z" style="fill: rgb(86, 76, 68);"></path><path class="a" d="m689.5 177.7c-0.9 4.9-2.1 9.7-2.5 14.7-0.3 3.1-0.1 6.5-0.8 9.6-0.7 3.2-2.1 8.3-6.3 8.5-5.1 0.3-11.3-1.6-16.1-3.1-3-1-1.8-5.4 1.3-4.8 3.3 0.7 6.6 1.2 9.7 2.1 4.4 1.3 6.6-0.6 6.8-5.5 0.2-6 0.7-11.9 1.7-17.8 2.4-14.5 2.1-28.8 1.2-43.4-1-14.9-0.3-30.1-2.7-44.9-2.2-13.1-4.5-26.2-7.4-39.2-0.2-1 1.1-1.3 1.4-0.4 5.5 15.9 11.1 32.9 12.7 49.7 1.5 16.6 2.5 33.8 2.6 50.4 0 8.1-0.1 16.2-1.6 24.1z" style="fill: rgb(86, 76, 68);"></path><path class="a" d="m676.8 194.4c-0.6 3.8-7 3.8-7.7 0-1.3-8-0.5-16.4-0.5-24.4-0.1-8.7-0.3-17.3-1.1-25.9-1-9-1.4-18-1.9-27-0.4-8.3-3-16.5-2.6-24.8 0.1-0.8 1.4-1.1 1.5-0.2 1.3 9.1 4.6 17.9 6.1 27 1.5 8.9 3.4 17.6 4.7 26.5 2.5 15.5 4.2 33.3 1.5 48.8z" style="fill: rgb(86, 76, 68);"></path><path class="a" d="m681.4 196.8c-2.4 7.4-9.1 11.7-15.7 5.9-3.6-3.2 1.3-9.6 5.2-6.7 2 1.5 3-12.5 3-13.8q0-5.6 0-11.3c0-10.1 0.1-20.1-0.5-30.2-0.9-18.9-4.1-37.6-5.1-56.5 0-0.9 1.4-1.1 1.5-0.2 2.3 13.3 6.2 26.3 8.6 39.5 2.4 12.9 3.8 26 4.1 39.1 0.3 10.7 2.4 23.8-1.1 34.2z" style="fill: rgb(86, 76, 68);"></path><path class="a" d="m686.2 173.8c-0.7 8.4-1 19.1-4.7 27.2 0.8 2.2-0.1 5-3 6-2.2 0.8-3.8 0.4-5.6-0.9-2.2-1.6-3.2-4.3-1.8-6.8 2.8-4.7 3.1-11.5 3.9-16.9 0.8-5.3 1.3-10.7 1.8-16.1 1-10.9 1.5-21.9 1.3-32.8-0.2-10.7-1.1-21.3-2.3-31.9-1.1-10.2-1.7-21-3.9-31-0.2-0.8 1-1.4 1.4-0.6 4.2 9.5 5.3 20.8 7.3 31 2.3 11.6 4.5 23.4 5.7 35.2 1.3 12.6 0.9 25.1-0.1 37.6z" style="fill: rgb(86, 76, 68);"></path><path class="a" d="m655.1 195.5c-0.8 3.8-2.3 10.9-7.6 11-5.8 0-11.3-0.9-17.2 0.2-2.2 0.4-3.3-1.9-2-3.5 2.9-3.8 7.9-4.7 12.4-4.6 2.1 0.1 6 2.6 6.9-0.4 0.9-3.3 1.6-6.7 1.7-10.1 0.3-7 0.7-13.4 2-20.2 1.3-7 0.3-14.4 2.1-21.1 0.1-0.5 0.9-0.5 0.9 0 1.7 8.3 1.5 15.7 1.1 24.2-0.3 8 1.5 16.6-0.3 24.5z" style="fill: rgb(86, 76, 68);"></path><path class="a" d="m609 23.7c-0.4-0.1-0.5 0.6-0.1 0.8 7.6 2.4 12 9.3 14.4 16.4 2.4 7.2 5.3 14.3 7.8 21.4 0.3 0.9 1.8 0.8 1.7-0.2-0.7-13.1-7.6-37-23.8-38.4z" style="fill: rgb(86, 76, 68);"></path><path class="a" d="m627.6 73.7c-2.3-7-2.9-14.3-5.1-21.3-2.3-7-6.5-12.7-9.4-19.4-0.4-0.9 0.8-1.7 1.3-0.8 3.4 5.9 7.8 10.8 10.4 17.1 3.3 8 2.4 15.7 4.3 23.9 0.3 1-1.1 1.4-1.5 0.5z" style="fill: rgb(86, 76, 68);"></path><path class="a" d="m624.9 76c0.1 1.7-2.3 1.6-2.4 0-1.1-7.7-3.3-14.9-5.7-22.3-0.1-0.5 0.7-0.8 0.9-0.3 3.1 7.3 6.7 14.6 7.2 22.6z" style="fill: rgb(86, 76, 68);"></path><path class="a" d="m585.7 41.8c-2.3-2-3.2-5.6-6.6-6.5-0.3-0.1-0.4-0.6-0.1-0.7 3.7-1.8 8.5 2.2 9.2 5.8 0.2 1.5-1.3 2.4-2.5 1.4z" style="fill: rgb(86, 76, 68);"></path><path class="a" d="m669.4 42.7c-2.5-4-3.7-8.8-6.3-12.8-2.5-3.8-5.8-7-8.9-10.4-0.4-0.5 0.2-1.2 0.7-0.8 3.8 3 7.7 5.9 10.5 9.9 2.8 4 4.8 8.5 6.6 13 0.6 1.6-1.8 2.4-2.6 1.1z" style="fill: rgb(86, 76, 68);"></path><path class="a" d="m658 32.1c-2-2.8-3.1-6.2-5.5-8.7-1.8-1.8-3.8-3.3-5.2-5.4-0.1-0.2 0.2-0.4 0.3-0.2 2.1 2.3 5 3.7 7 6 1.9 2.2 3.7 4.7 5.1 7.3 0.6 1.2-1 2-1.7 1z" style="fill: rgb(86, 76, 68);"></path><path class="a" d="m647.7 26.9c-2.2-2.3-3.4-5.4-5.8-7.7-0.5-0.4 0.1-1 0.7-0.8 3 1.3 4.5 4.5 7 6.6 1.2 1.1-0.7 3.1-1.9 1.9z" style="fill: rgb(86, 76, 68);"></path><path class="a" d="m88.3 220.8c-9 1-16-1.1-24.3-4.1-7.3-2.6-16.8-7.2-24.5-4-0.8 0.3-1.9-0.2-2.3-1-1.7-3.1-1.9-6.3-1.9-9.8-0.1-5.6-0.8-11.2-1.2-16.8-0.9-11.7 0.3-23.4 1.4-35.1 1-10.5 1.5-21.1 3.2-31.6 1.7-11.1 5.8-21.3 9.3-31.9 0.3-0.8 1.4-0.5 1.2 0.3-1.9 10.8-5.1 21.3-6.3 32.2-1 10.3-1.3 20.7-1.9 31-0.7 10.8-2.2 21.8-1.8 32.6 0.1 5 0.6 10.1 0.6 15.1 0 3.3-0.5 7.1 0.4 10.4 7.1-2.3 13.8-0.3 20.9 2.3 4.4 1.5 8.7 3.8 13.2 5 4.6 1.2 9.3 1.5 14 2.1 2.1 0.3 2.1 3.1 0 3.3z" style="fill: rgb(86, 76, 68);"></path><path class="a" d="m86.8 220.7c-6-4.1-10.5-7.7-13.3-14.9-3.7-9.5-2.8-20.4-1.8-30.4 1.9-19.1 3.3-39.7 11.1-57.5 0.2-0.4 0.7-0.1 0.6 0.3-3.7 17.8-4.5 36.4-6.3 54.5-0.9 8.6-2.6 19.2-0.1 27.7 1.3 4.3 3.3 8.3 6.3 11.6 1.8 2.1 4.2 3.4 6 5.5 1.4 1.7-0.4 4.6-2.5 3.2z" style="fill: rgb(86, 76, 68);"></path><path class="a" d="m72.9 195.8c-0.9 13.8-15 13.4-24.2 6.9-9.7-6.9-14.7-21.8-12-33.3 0.1-0.7 1.3-0.6 1.2 0.2-0.5 4.1 2.5 10.2 4.3 13.8 2 4 4.5 7.8 8 10.6 6.2 5.1 13.7 7.2 19.2 0.3 1.1-1.4 3.6-0.2 3.5 1.5z" style="fill: rgb(86, 76, 68);"></path><path class="a" d="m77.8 220.4c-4.9-2.7-10.1-5.2-13.2-9.7q-0.9-0.1-1.8-0.1c-5.3-0.3-5.3-8.7 0-8.3 1.7 0.1 3.7 0.1 5.3 0.7-0.1-0.8-0.2-1.6-0.1-2.4 0.4-4.4 2.3-8.3 2.9-12.6 0.2-1 1.7-0.7 1.8 0.2 0.1 3.5-0.7 7.2-0.5 10.7 0.2 1.7 0.7 3.2 1.4 4.7 1 0.3 1.9 1 2.4 2.2q0.2 0.6 0.5 1.2c1.1 2.6 2.7 5.3 5 7 3.8 2.7 0.6 8.7-3.7 6.4z" style="fill: rgb(86, 76, 68);"></path><path class="a" d="m67.6 211.8q-0.5 0.3-1 0.5c-1.2 1-2.9 1.3-4.7 0.4-4-1.9-8.1-3-12.5-3.7-1.4-0.3-2.9-0.1-4.4-0.2-2.3 1.9-6.5 0.9-6.9-3.1-0.4-3.6-1.9-6.9-2-10.6-0.1-5.1 7.4-5.9 8.8-1.2 0.5 1.8 0.8 3.7 1.5 5.5q0.1 0.5 0.2 0.7c0.1-0.2 0.4-0.3 1.1-0.3q1.2 0 2.3 0.2c5.3 1 10.6 2.2 15.3 4.8q0.5 0.2 1 0.5c1.3 0.8 1.9 1.9 2 3 0.7 1.1 0.4 2.8-0.7 3.5z" style="fill: rgb(86, 76, 68);"></path><path class="a" d="m50.9 105.3c-1.6 14.6-3.1 29.4-4.3 44.1-0.5 6.9-0.9 13.9-1 20.8-0.2 6.1-1 12.2-0.5 18.3 0.3 4.5-7 5.4-7.9 1-1.3-6.2-0.2-12.9 0.1-19.3 0.4-7.2 1-14.6 2.3-21.8 2.5-14.4 4.9-29.6 10-43.3 0.3-0.6 1.4-0.6 1.3 0.2z" style="fill: rgb(86, 76, 68);"></path><path class="a" d="m54.8 195.9c1.5 6.3-7.2 8.4-9.5 2.6-2.1-5.4-1.2-11.4-0.8-17.1 0.4-6.9 1-13.7 2.2-20.4 2.2-12 3.2-25.7 7.5-37.2 0.2-0.5 1.2-0.5 1.1 0.2-1.4 11.5-1.2 23.6-1.6 35.2-0.2 6.5-0.3 12.9-0.1 19.4 0.3 5.7-0.2 11.7 1.2 17.3z" style="fill: rgb(86, 76, 68);"></path><path class="a" d="m63.3 201.7c0 7.1-10.9 7.1-11 0 0-14.1 1.2-28.4 3.3-42.3 1.7-11.2 2.2-24.2 7.3-34.3 0.4-0.8 1.4-0.2 1.2 0.5-3.9 25-0.6 50.9-0.8 76.1z" style="fill: rgb(86, 76, 68);"></path><path class="a" d="m70.4 200.8c-0.5 7-11.1 7.1-11 0 0.2-13.7 1.4-27.6 3.6-41 2-12.7 3.9-27.1 10.1-38.5 0.3-0.5 1.2-0.3 1.2 0.3-0.8 13.2-3.2 26-3.4 39.3-0.2 13.2 0.5 26.6-0.5 39.9z" style="fill: rgb(86, 76, 68);"></path><path class="a" d="m27.8 214.3c-10.5-1.7-13.4-10-14.7-19.6-1.9-12.9-2.3-26.1-3.4-39.1-1.1-14.4-1.9-29-0.3-43.3 0.7-6.3 1.9-12.3 3.5-18.4 1.2-4.6 2-10.1 4.6-14.2 0.4-0.7 1.7-0.3 1.4 0.5-3.4 9.5-3.6 22.1-3.4 32.1 0.2 11.6 0.5 23.4 1.4 35 1 11.5 1.7 23.1 2.6 34.6 0.6 8.4-0.1 23.2 10.3 25.1 4.8 0.9 2.8 8.2-2 7.3z" style="fill: rgb(86, 76, 68);"></path><path class="a" d="m31.9 210.5c-0.5 3.8-6.3 3.3-7.2 0-3.9-14.3-3.8-29.2-3.2-43.9 0.5-14.8 1.8-29.8 6.7-43.8 0.4-1.1 1.8-0.6 1.7 0.5-2.2 15.4-1 30.4-0.4 45.9 0.3 7.7 0.1 15.5 0.7 23.2 0.5 6.1 2.6 12 1.7 18.1z" style="fill: rgb(86, 76, 68);"></path><path class="a" d="m16.4 204.9c-2.3-7.3-1.7-17.2-1.7-24.8 0-10 0.4-20.1 0.8-30.1 0.8-18.4 2.5-36.4 7.9-54.1 0.2-0.7 1.4-0.6 1.3 0.2-1.8 17.9-2.1 35.9-1.9 53.9 0.2 9.1 0.1 18.2 0.5 27.3 0.2 4.5 0.6 8.9 1.1 13.3 0.4 3.8 0 8.2 1.2 11.7 2 5.8-7.3 8.4-9.2 2.6z" style="fill: rgb(86, 76, 68);"></path><path class="a" d="m87.2 26.5c-7.8 8.6-19.5 4-29.2 1.7-4.6-1.2-8.9-2.4-12.5 1.9-2.3 2.6-3.9 5.6-5.6 8.5-3 4.8-7.4 9.4-9.8 14.4-0.4 0.8-1.5 0.2-1.3-0.6 1.2-6.1 5.6-12.2 8.4-17.8 2.6-4.9 5.2-9.3 10.2-11.9 4.3-2.2 9.7 0 14 0.7 7.5 1.3 15.5 5.1 21.9-0.8 2.6-2.4 6.3 1.2 3.9 3.9z" style="fill: rgb(86, 76, 68);"></path><path class="a" d="m55.9 30.8c-3.5 2.6-5.7 7.8-8 11.4-2.2 3.3-4.6 6.5-6.8 9.8-4 6-8.7 13-10.2 20.1-0.1 0.6-0.9 0.4-1-0.1-0.3-8.4 5-17 8.6-24.3 3.7-7.4 6.3-19 13.3-23.8 4.3-3 8.2 3.9 4.1 6.9z" style="fill: rgb(86, 76, 68);"></path><path class="a" d="m61 32.2c-4.4 3.3-6.9 11-9.5 15.7-3.1 5.7-7.5 11.8-9.1 18.1-0.1 0.5-0.8 0.3-0.8-0.1-0.5-8.2 5-17.3 7.6-24.8 1.9-5.5 2.8-12.1 7.8-15.8 4.2-3 8.2 3.9 4 6.9z" style="fill: rgb(86, 76, 68);"></path><path class="a" d="m77 35.5c-3.1 0-7.8-1.4-10.6 0.2-2 1.1-3.6 2.8-4.9 4.7-2.5 4-4.3 8.3-7.3 11.9-0.4 0.5-1.1-0.1-0.9-0.7 2.6-5.8 2.4-12.7 5.7-18.3 4.2-6.9 11.9-6.7 18.9-4.9 4.1 1 3.1 7-0.9 7.1z" style="fill: rgb(86, 76, 68);"></path><path class="a" d="m72.8 43.7c-0.3 0.4-0.8-0.1-0.7-0.5 0.7-1.4 1-3.6 0.6-5.1-0.4-1.8-1.4-1.3-2.9-1.3-1.8-0.1-3.6-0.4-5.3-0.6-1.8-0.2-3.6-0.1-5.4-0.7-2.7-0.8-2.9-4.1-0.7-5.6 2.7-2 6.6-1.5 9.7-0.8 3 0.6 6.1 0.9 7.7 3.8 2 3.9-0.7 7.9-3 10.8z" style="fill: rgb(86, 76, 68);"></path><path class="a" d="m88.8 36.4c-3.4 8.5-7.8 16.4-11 25-2.9 7.4-4.9 15.7-8.6 22.7-0.6 1.1-2.4 0.3-2-0.8 1.7-4.5 1.9-9.4 3.6-13.9 1.7-4.5 3.7-8.9 5.6-13.4 2.9-7.2 6.7-14 12-19.8 0.1-0.2 0.5 0 0.4 0.2z" style="fill: rgb(86, 76, 68);"></path><path class="a" d="m82.8 64.6c-1.9 9.6-4.3 19.5-7.6 28.8-0.6 1.6-2.9 1-2.6-0.7 1.9-9.7 5.4-19.5 9.4-28.5 0.2-0.5 0.9-0.1 0.8 0.4z" style="fill: rgb(86, 76, 68);"></path><path class="a" d="m123.7 46.4c-9.2 0.9-15.4 12.5-18.3 20.1-0.6 1.5-3 1.4-3-0.4 0.1-5.3 3.6-12.8 7.2-16.6 3.7-3.9 8.9-7.2 14.5-5.5 1.3 0.5 1 2.3-0.4 2.4z" style="fill: rgb(86, 76, 68);"></path><path class="a" d="m604.8 73.5c0 0.9-1.3 1.4-1.7 0.5-3.3-6.8-8.3-13.1-12.2-19.6-2.9-4.8-7.9-15-14.6-14.7-0.7 0.1-0.8-0.7-0.3-1 6.6-4.6 12.3 2.1 15.5 7.8 3.1 5.3 5.5 11 8.8 16.2 2.2 3.6 4.7 6.4 4.5 10.8z" style="fill: rgb(86, 76, 68);"></path><path class="a" d="m585.1 44.9c-2.3-1-5.4-1.7-7.9-2.2-2.2-0.5-5.2-1.5-7.5-0.6-0.6 0.2-1.3-0.6-0.9-1.2 4.2-5.9 13.5-2.6 18.4 0.3 2.5 1.5 0.4 4.8-2.1 3.7z" style="fill: rgb(86, 76, 68);"></path><path class="a" d="m138.1 44.7c-3.5 2.7-9.4 3.6-13.8 4.4-3.4 0.6-7 0.8-10.3 1.9-0.4 0.1-0.9-0.4-0.6-0.7 2.3-3.2 6.1-4.5 9.8-5.2 4.7-1 9.9-3.3 14.7-2.4 1 0.2 0.9 1.5 0.2 2z" style="fill: rgb(86, 76, 68);"></path><path class="a" d="m530.9 219.6c-5.2 0.3-9.8 3.6-14.8 0.5-3.7-2.2-7-5-9.3-8.5-1.2-1.8-8-11.2-4.5-13 0.3-0.2 0.6-0.1 0.7 0.3 1.6 4 4.1 7.8 7.4 10.8 3.1 2.9 6.4 6.3 10.7 7.3 3.2 0.7 6.6 0.5 9.8 0.4 1.4-0.1 1.4 2.1 0 2.2z" style="fill: rgb(86, 76, 68);"></path><path class="a" d="m516.4 219.1c-0.1 0.4-0.6 0.9-1 1.1-0.3 0.7-0.7 1.3-1.3 1.7-1.1 0.6-2.3 0.4-3.2-0.3-0.7-0.1-1.5-0.6-2-1.3 0.4 0.5-0.1 0-0.2-0.2-0.5-0.4-0.6-0.8-0.8-1.3-0.3-0.7-0.2-1.6 0-2.3 0.3-1.1 1.3-1.9 2.4-2.1q0.2-0.1 0.5-0.2c1.3-0.3 2.8 0.4 3.2 1.8q0.4 0.5 0.9 0.9-0.1-0.1 0.1 0.1 0.3 0 0.5 0.1 0 0 0.1 0c0.3 0.1 0.6 0.4 0.7 0.7 0.1 0.5 0.2 0.8 0.1 1.3z" style="fill: rgb(86, 76, 68);"></path><path class="a" d="m612.4 189.1c-0.4 2.1-3.5 2.6-4.4 0.2-1.1-2.7-1.9-5.5-2.7-8.2-0.2-1.1 0.3-2 1.1-2.5q0-0.1-0.1-0.2c-0.6-1.8 2.1-2.7 3-1.2q0 0 0 0c1.9 2.8 3.1 6.2 4.2 9.5 0.3 0.9-0.3 1.9-1.1 2.4z" style="fill: rgb(86, 76, 68);"></path><path class="a" d="m336.2 89.9c-6.3 2.8-13.4 3.6-18.6 8.3-3.8 3.5-7.8 6.2-12.7 8-8.4 3.3-18.8 6.9-28 5.8-16.6-1.9-27.1-13.1-26.8-30 0-0.7 1-0.6 1 0 2.2 17.5 19.1 27.3 35.8 23.7 9.5-2 17.9-4.4 26.4-9.3 7-4 14.1-6.5 21.5-9.6 1.8-0.8 3.1 2.3 1.4 3.1z" style="fill: rgb(86, 76, 68);"></path><path class="a" d="m343.3 88.4c-9.2 3.2-18.8 5.6-26.8 11.5-3.8 2.8-6.4 6.9-10.1 9.7-4 3-8.6 4.8-12.7 7.6-0.4 0.3-0.9-0.4-0.5-0.8 5.4-4.8 10.4-8.7 14.9-14.5 2.1-2.7 4.9-5.1 7.8-6.9 7.8-5 17.1-9.1 26.3-10.8 2.7-0.5 3.8 3.3 1.1 4.2z" style="fill: rgb(86, 76, 68);"></path><path class="a" d="m305.2 105.6c-7.4 4.4-16 6.8-23.9 10.1-0.5 0.3-0.9-0.4-0.4-0.7 7.1-4.8 14.8-9.6 23.2-12 1.5-0.4 2.4 1.8 1.1 2.6z" style="fill: rgb(86, 76, 68);"></path><path class="a" d="m434 92.7c-0.8 1.5-1.7 2.8-1.8 4.6-0.2 1.7 0 3.5-0.4 5.2-0.4 2-3.3 1.9-3.8 0-0.9-3.6 0-10.9 4.6-11.6 1.1-0.2 2 0.8 1.4 1.8z" style="fill: rgb(86, 76, 68);"></path><path class="a" d="m355.3 72.2q-0.7 1.1-1.5 2.1c-0.8 0.9-2.1-0.4-1.3-1.3q0.7-0.8 1.3-1.7c0.6-0.9 2.1 0 1.5 0.9z" style="fill: rgb(86, 76, 68);"></path><path class="a" d="m355.7 75.6c-0.9-0.9-1.5-2.3-1.5-3.6 0.1-1 0-2.5 0.7-3.2 0.3-0.3 0.8-0.3 1.2 0 0.6 0.7 0.4 1.7 0.6 2.5 0.3 1 0.6 1.8 1.2 2.6 0.8 1.4-1.1 2.7-2.2 1.7z" style="fill: rgb(86, 76, 68);"></path><path fill-rule="evenodd" class="a" d="m697.5 140.3c0.1 12.9 1 26.3-0.4 39.1-0.8 7.3-2.5 14.4-3.1 21.7-0.3 2.5-0.5 4.8-1.5 7-1.6 6.1-4.5 11.4-10.4 11.8-7.1 0.6-13-1.7-19.6-3.6-8.1-2.3-18.1-1.7-25.9 1.4-10.8 4.4-21.3 9.2-31.8 1.1-8-6.3-13.2-16.3-12.9-26.7-6.3 0.1-12.5 0.5-18.5 2.7-1.6 2.2-3.5 4.2-5.6 5.8-8.8 6.5-18.8 13.2-28.8 17.5-4.8 2.1-10 3.6-15.1 4.7-4.6 0.9-9.3 0.5-13.8 1.3-0.5 6.8-3.8 12.7-10.2 17.5-9.1 6.9-20.3 10-31.6 6.6-0.3 2.8-2.2 5.4-4.7 7.8-9.4 9.1-25.2 13.2-36.8 6.3-0.2 0-0.4-0.2-0.6-0.4q-0.1 0-0.1 0c-0.4-0.3-0.9-0.6-1.3-0.9q-0.2-0.2-0.3-0.4c-6 10-16.5 15.2-28.5 12.6-5.4-1.2-10.1-3.8-14.4-7.2-13.4 13.2-31.9 6.6-46.3-1.4-6.4-3.5-12.1-7.8-17.7-12.3-13.8 3.9-30.8 19.2-46.2 11.9-1.7-0.9-3.2-2-4.4-3.3-5.4 2.4-10.5 7.6-16.8 5.4-4.7-1.6-10.7-3.7-14.3-7.2-3.7-3.5-5.6-7.9-7.4-12.5-10.7 3.4-22 4.4-27.9-7.1-3.2-6.2-5.7-13.4-7.9-20.1-11 3.7-27.6 3.2-36.3-5.3-3.4-3.3-3.6-10-0.8-14-7.8 0.4-15.5 1.1-22.7 1.3-7.3 0.1-14.5-0.6-21.7-1.3 0.1 12.6-6.8 26.1-20.4 28.3-7 1.1-13.9 0.3-20.7-1.7-7.4-2.2-15.6-6.9-23.3-7.2-5.8-0.2-11.1 1-16.4 3.2-2.3 0.9-4.9 1.8-7.4 0.9-5.2-1.9-10.4-5.8-13.1-10.7-3.6-6.7-2.3-14.3-3.8-21.5-0.8-4.1-1.2-8.3-1.2-12.5-0.5-3.3-0.9-6.6-1.1-9.9-1.1-12.6-1.9-25.3-1.6-37.9 0.4-23.7 4.4-48.6 12-71.1 3.3-10.1 7.8-19.8 13.6-28.6 4.1-6.3 9.4-14.3 16.7-17.2 9.1-3.7 19.9 0.9 28.6 3.7 5.8 2 11.2 2.9 17.3 2.5 2.1-0.1 4.1-0.2 6.1 0.2q3-0.5 6.2-0.7c15.9-0.9 28.8 6.3 28.3 22.8 3-0.1 6.1-0.3 9.2-0.5 10.7-0.7 22-3 32.7-4.8 19.6-3.3 36.6-13.9 55.7-19 19.1-5.1 39-7 58.4-10.5 16.5-3 34.8-5.4 51.7-3.3 6-1.3 12.1-1.9 18-2.3 10.4-0.8 20 1.7 30.1 3.5 11.3 2.2 22.1 5.1 33.6 6.4 19.2 2.2 39.5 1.2 57.8 8.2 8.5 3.2 17.4 7.8 24.6 13.3 2.7 2.1 5.3 4.4 8 6.6 4.5 0.8 9.4 0.5 13.9 0.5 6.3 0 12.5 0.2 18.8 0.1 7.6-0.1 15-0.8 22.5-1.8 11.6-12.6 26.5-24.4 44.5-22.7 1.4 0.2 2.8 0.4 4.4 0.7 7.1-0.5 12.8-1.7 19.6-3.9 5.4-1.7 11.3-2.9 17-2.5 7.2 0.5 12.6 3.9 17.1 9.4 4.9 5.7 7.9 13 10.7 20 3.7 9.3 7.9 18.4 10.6 28.2 6.3 23.4 7.5 47.8 7.6 72zm-590.1 59.5q-2.9-0.3-5.8-0.5c-0.4 3.9-1.5 10.1-5 11.7-4.5 2-8.5-2.3-10.4-6.1-3.8-7.5-3.3-15.5-3-23.7 0.5-11.2 1.7-22.3 2.8-33.5 2.1-23.1 3.6-45.1 10.6-67.4 2.8-9.1 5.1-19.2 9.5-27.7 1.8-3.7 3.9-6.1 6.8-7.6 0.1-0.4 0.5-0.7 1-0.8q0.7-0.1 1.4-0.2 2.1-0.6 4.7-0.7 0.1 0 0.3 0.1 4-0.4 7.9-0.6c-1.1-8.1-3.7-15.6-12.9-17.9-6.5-1.6-14.2-1.6-20.8 0.1-13.4 3.3-16.3 18.4-25.7 27-0.6 0.6-1.7-0.2-1.2-0.9 5.1-7.8 8.7-17.9 15.7-24.3 1.2-1 2.4-1.9 3.7-2.7q-1 0.1-2 0.1c-4.4-0.2-8.7-1.2-12.9-2.6-10.5-3.4-23.1-8.5-32.1 0.4-14.1 13.9-21.8 34.2-26.3 53-5.3 22.2-8.6 44.3-7.9 67.2 0.6 16.7 2.3 33.4 3.7 50 0.9 5 0.5 10.6 2.3 15.2 1.2 3.4 3.5 6.5 6.3 8.9 4.8 4 7.7 3.9 13.6 1.8 4.7-1.6 10.1-3 15.1-2.4 11.9 1.5 22.6 8.8 34.8 9.4 16.1 0.7 25.4-10 25.8-25.3zm393.1 2.7c-4.2-12-10.1-23.2-15.3-34.7-2.1-4.5-4.2-9-5.8-13.7-1.6-4.6-4.2-7.8-7-11.3q-4.4-2.1-8.5-4.5c-9.3-5.4-20.7-12.5-26.8-21.7-4.8-7.1-7-17.8-13.5-23.5q-0.3-0.1-0.4-0.4c-12.4-2.3-23.9-6.1-36-9.9-6.6-2.1-13.1-3.3-19.9-4.5-4.8-0.9-9.8-3.5-14.6-4.2-2.1 0.9-4.1 2-6.1 3.2-15.7 9.8-31.3 24.4-49.6 28.9-16.2 4-32.7 0.4-43.3-13.1-9.2-11.6-5.1-25.7 8.1-31.9 18.8-9 32.4-23.8 46.8-38.4 5.6-5.6 10.9-11.3 18-14.6-4.4 0-8.8 0-13.1 0.3-10.3 0.5-20.4 2.2-30.6 4.1-19.4 3.6-39.4 4.9-58.2 11-18.1 5.9-34.7 15.4-53.8 17.9-10.2 1.4-20.5 4.1-30.7 4.4-8.1 0.3-16.1 0.8-24.1 1.4q-0.2 0.1-0.4 0.2c-4.8 2-6.8 7.5-8.3 11.9-2.4 7.3-4.9 14.5-7.2 21.9-5.4 16.8-8 33.2-9.1 50.8-1.1 16.4-3.2 32.7-4 49.1-0.2 4.7-0.8 10.3 0 15.3q0.6-0.1 1.1-0.1c7.1-1.6 14.6-0.6 21.8 0.2 9.4 0.9 18.7 1 28.2 0.6 13.8-0.5 33.7-3.8 47.2 2.8q-0.1-0.3-0.1-0.5c-2.7-19.4 26.3-19.5 31.3-4q1.1-0.7 2.6-1.2c5.9-2.1 12.1-2.1 18.1-0.2 4.3 1.4 7.4 5.7 10.5 9 4.4-4.2 13.5-4.1 19.8-2.4 11.8 3.1 17.5 15.1 21 26.8q0.1 0 0.2 0.1c7 5.6 15 10 22.3 15.4 6.7 5 13 10.4 20.1 14.8 7 4.3 14.7 8.6 22.7 10.7 10 2.6 16.7 0.4 25-4.7-5.7-5.1-10.7-11.3-15.4-16.9-6.1-7.3-12.2-14.5-18.2-21.9-5.7-7.1-10.2-13.8-17.8-19.2-6.9-4.9-13.6-10.1-20.6-14.8-6-4-12.5-7.1-17.5-12.2-0.3-0.3 0.1-0.8 0.3-0.5 5.7 4.3 12.4 6.8 18.5 10.3 6.6 3.8 13 8 19.2 12.4 12 8.6 19.6 19.9 28.8 31.4 4.7 5.8 9.2 11.9 14.4 17.3 4.7 4.9 9.9 12 15.7 15.5 6.2 3.7 14.6 6.3 21.7 4 3-1 7.1-2.2 9.4-4.6 2-2.2 3.3-4.6 5.3-6.7-6.7-7.9-13.1-16.6-17.9-25.7-5.8-11.4-10.8-23.2-18.5-33.5-8.3-11.2-18.1-20.3-28.3-29.6-4.6-4.2-8.9-8.6-13.8-12.4-4.7-3.6-9.4-7.2-13.4-11.6-0.4-0.5 0.2-1.1 0.7-0.7 5.6 4.9 12 8.5 17.9 12.8 4.6 3.3 8.7 7.2 13 10.9 9.5 8.1 18.3 16.7 25.6 26.8 7.6 10.5 13 21.9 18.9 33.3 5.9 11.3 14.4 20.4 21.3 31 7.8 4.3 17.4 3.4 25.2-0.7 3.3-1.8 6.4-3.7 8.7-6.6 3-3.9 1.9-6.4 0.2-10.4-6.3-14.6-13-28.9-19.5-43.5-3.4-7.5-6.1-16.1-10.5-23.1-4-6.4-10.6-11.7-15.5-17.5-5.6-6.5-11.4-12.4-17.8-18.1-5.4-4.9-9.6-10.5-14.6-15.6-0.5-0.5 0.1-1.3 0.7-0.9 3.7 2.8 6.6 6.5 10.2 9.5 3.9 3.3 8 6.2 11.8 9.6 7.7 6.8 13.5 15.2 20.7 22.5 6.7 6.8 10 13.6 13.8 22.3 4.2 9.6 8.6 19.2 12.9 28.8 4.2 9.2 8.3 18.7 12.8 27.7q0.5 1 0.7 1.9 0.5-0.2 1.1-0.1c11.4 2.9 23.3-0.5 31.6-8.8 10.4-10.7 3.9-21.9-0.2-33.7zm-309 13.3c-1.1-3.6-2.2-7.1-3.8-10.4q-0.2-0.6-0.5-1.1c-8.6-3.7-18.1-4.5-27.6-4.3-4.2 3.4-2.3 10.8 1.9 13.3 2.7 1.5 5.5 2.5 8.6 3.1 7.4 1.3 14.1 0.7 21.4-0.6zm4.7 2.3c4.3 2.2 11.2 1.5 10.5-4.7-0.2-2-0.7-4-1.3-6-1-2.9-1.5-12-6.7-9.6-3.1 1.5-7.7 1-9.9-1.5-0.1 5.4 3.8 12.1 5.4 17q0.8 2.4 1.6 4.7 0.2 0 0.4 0.1zm31.1 25.4c-3.1-8-6.1-16-9.8-23.7-3.3-7-8.9-16.9-3.2-22.6-4.1-6.5-11.7-11.9-19.7-8.5-2.9 1.1-4.5 2.8-5.2 4.7 3.6 6.6 11.2-2.8 14.9 2.2 1.5 2.1 1.5 4.5 2.2 6.9 0.6 2.3 1.5 4.5 2.1 6.7 1 4.1 1.5 8.2-1.9 11.2-2.8 2.4-6.6 2.4-9.7 1q2.7 7.6 5.8 15c2.3 5.4 7.2 10.4 13.7 9.7 3.7-0.4 7.2-1.6 10.8-2.6zm-7.1-25.2c1.7 3.4 3.2 6.9 4.7 10.5q0.1 0 0.3 0c2.8 1 7.4 0.2 9.4-2.1 2.4-2.8 0.2-7.7-0.6-10.7-1.1-4-1.7-9.1-4.3-12.4-3.8 2.9-8 4.3-13 2.5q-0.8-0.3-1.6-0.7c0.3 4.3 3.3 9.2 5.1 12.9zm44.5 39.9c-3.3-4.8-5.1-11.1-7.4-16.3-2.1-5-3.8-10.1-5.8-15.1-1.8-4.7-5.4-9.8-6.2-14.8-0.5-2.6-0.2-4.7 0.6-6.4-2.8-2.3-5.2-5.6-8.4-7.2-5-2.5-12.2-2.8-17.4-0.6-2.9 1.2-4.3 2.9-4.8 5 1.5 1.2 4.7 1.3 5.9 1.3 3.4-0.1 5.4-1.3 8-3.3 0.5-0.4 1.2-0.2 1.5 0.1 2.7 3.1 3.7 7 4.7 10.8 1.1 4.3 2.6 8.5 2.7 12.9 0 5.1-7.3 8.2-12 7.2 3.2 9.1 6.2 22.4 14.9 26.8 3.8 1.8 10.2 6.3 14.5 4.5 3.3-1.4 6.1-3.4 9.2-4.9zm49.5-8.6q-1.5-1.2-3-2.4c-7.2-5.7-15-10.6-21.7-16.7 0.8 3.2 1.6 6.3 2.3 9.1 0.1 0.6-0.8 1-1 0.4-3.2-6.8-5.7-13.9-9.4-20.6-3.2-5.9-6.4-13-13.5-15-4.6-1.2-10.4-2.1-15.1-0.5-3.3 1.2-4.4 3.3-4.3 5.8 3.9 4 10.9 0.4 14.6-1.7 0.7-0.4 1.6-0.2 2 0.5 2.5 4.3 3.8 9 5.6 13.6 1.3 3.2 3.3 7.6 1.5 11-2.2 4.1-7.7 6.9-12.3 5.8q2.2 5.3 4.4 10.5c3.2 7.3 6.5 13.2 15.5 12.8 6.1-0.3 12.3-2.1 17.8-4.7 5.5-2.6 10.7-6.2 16.6-7.9zm-60.5-26.2q2.4 6 4.8 12 0.2 0 0.4 0.1c2.5 1.3 5.8 0.6 8.1-1 3.5-2.5 2.9-6.6 1.5-10.1-1.8-4.3-3.1-8.9-5.3-13.1-3 1.7-5.7 3.1-9.4 2.5-1.7-0.3-3.6-0.7-4.9-1.7 0.9 3.9 3.6 8.2 4.8 11.3zm-164.2-20.4c5.4 8.3 7.2 1.2 8.6-4q-0.4 0-0.8 0c-1.2 0.2-2.4 0.2-3.6 0.3-1.9 0.2-3.8 0.4-5.7 0.5q0.6 1.7 1.5 3.2zm524.1-15.2c0.2-3.9 0.3-7.8 0-11.7-1-15.5-1.3-31-2.8-46.5-1.7-16.6-3-34.2-7.6-50.2q-3.6-12.2-9.4-23.5c-1.9-3.7-5.7-14.1-10.5-16-13.8 4-28.2 5.4-42.5 5.3-8-0.1-16.9 0.8-25-1 3.5 2.4 7.3 4.2 11.6 4.8 1 0.1 1 1.6 0 1.6-7.2 0.5-12.8-2.6-18.4-6.9-7.1-5.5-13.6-10.9-21.7-14.9-8.4-4.2-16.8-7.7-26.2-9-9.4-1.3-18.9-1.5-28.3-2.3-18.7-1.6-36.7-5.6-55.1-9.1-5.4-1-10.5-2.6-16-2.4-4.8 0.2-9.6 0.7-14.3 1.4-9.8 1.4-19.8 2.9-27.4 9.8-9.5 8.7-18.1 18.5-27.5 27.4 7.2-2.2 15.3-1.6 18.9 5.8 4.2 8.6-3.7 17.9-9.9 22.7-7.8 6.1-11.5 18.1-22.9 11-4.9-3.1-18.8-14.8-25.1-10.2-0.7 1.3-1.1 2.7-1.1 4.2 0.1 5.2 2 10 5.5 13.8 14 15.6 35.3 14.1 52.2 4.2 13.9-8.2 26.8-19.5 42.3-24.4 0.4-1.8 1.2-3.3 2-5 0.6-1.5 1.1-3 1.3-4.6 0.1-0.8 0.1-0.9 0.5-1.6 0.1-0.1 0.3-0.1 0.4 0 1.2 1.1 0.7 3.3 0.4 4.8-0.4 2.1-0.7 4.4-1.4 6.5 2.4 0.1 4.8 1.3 7.6 1.9 7.6 1.6 15.2 2.4 22.6 4.7 7.2 2.2 14.1 5 21.3 7.1 6.2 1.8 12.6 2.8 18.7 5.1q0.2 0.1 0.4 0.3c3-0.4 6.5-1.1 9-2.7 0.5-0.3 1.2 0.2 1 0.8-0.6 1.8-2.8 2.7-4.5 3.4q-1.6 0.6-3.2 0.8c3.7 3.6 5.9 10.7 7.7 14.3 5.4 10.9 15.2 18.7 25.4 25 21.8 13.4 44.7 16.3 69.7 17.6 0.8 0 1.1 1.4 0.2 1.6-16.7 3.6-35.9 0.5-52.5-6.1 1.5 2.1 2.7 4.3 3.2 5.5 3 7.5 6.3 14.7 9.7 22 3.3 7.1 7 14.1 9.7 21.6 2.3 6.5 5.6 13.1 7.4 19.9q0.8 3 1 5.7c4.3-0.7 8.6-0.2 12.9-1.3 5.5-1.3 11.3-2.7 16.5-5.2 8.4-4.1 17.2-9.8 24.7-15.4 8.7-6.4 11.9-17.8 16.4-27.1 4-8.5 6-17.7 9.9-26.2 0.4-0.7 1.5-0.2 1.3 0.6-1.8 5.1-2.5 10.5-3.8 15.8-1.4 5.5-3.7 10.6-5.9 15.8-1.9 4.5-3.8 9.7-6.5 14.3 12.2-5 25.1-2.6 38.1-3.8zm-332.4-133.3c-5.9 4.6-12.8 6.8-19 10.9-1.9 1.2-4.1 2.9-6 4.8 7.5-1.2 18.5 7.3 23.4 10.3 2.3 1.4 6.4 4.1 8.9 1.3 1.7-1.9 3-4 4.5-5.9 3.2-3.8 7.7-6 11-9.7 3.1-3.6 6.9-10.6 3.6-15.2-4.7-6.4-15.3-4.2-21.2-0.8q-2.5 2.2-5.2 4.3zm412.6 83.3c-0.3-22.1-1-44.7-6.8-66.2-2.5-9-6-17.5-9.5-26.2-2.9-6.9-5.6-14.2-10-20.3-6.2-8.7-14.4-12-25.1-9.7-5.4 1.1-10.6 3.2-16.2 4.2-1.2 0.2-2.3 0.2-3.5 0.2 2.3 1.2 4.3 2.7 5.5 4.7 2.5 4 5.3 8.1 6.5 12.7 1.4 5.4 1.4 11 2.9 16.4 0.3 1-1.1 1.3-1.5 0.4-1.8-4.4-2-9.2-3.5-13.7-1.5-4.6-3.8-8.5-6.4-12.5-3.7-5.9-14.3-8.2-21.1-7.6-9.1 0.9-17.1 4.1-24.1 10.1-2.9 2.5-5.8 5.5-9 7.9q5.3-0.8 10.5-1.8c0.6-0.2 1.2 0 1.5 0.3 8.7 0.4 19.9 31.4 21.5 36.7 6.9 21.9 8.8 46.4 10.4 69.3 0.9 12 1.4 24.1 1.8 36.2 0.2 5.9-0.5 11.7-0.5 17.5 0.1 2.3 0.4 5.2-0.4 7.4-1.6 4.4-5 5.1-9 3-4.7-2.5-7.5-9.3-7.9-14.6q-2.9 0-5.8-0.1c1.7 9.3 6.1 19.9 14.5 24.7 11.6 6.7 19.8-1.8 30.9-4.1 5.5-1.1 11.8-2.2 17.4-1.5 4.4 0.6 8.4 2.2 12.6 3.4 7.8 2.1 15.1 2.7 18.4-6.2q1.4-3.8 2.8-7.6c0.3-2.9 0.4-5.9 0.8-8.3 1.2-7.1 2.1-14 2.3-21.1 0.1-11.2 0.1-22.4 0-33.6zm-80.4 59.9q0-3.2 0.1-6.3c-3.3 0.5-6.6 0.7-9.9 0.8 0.5 3.8 2.1 8 5.1 10.4 5.4 4.4 4.7-2.8 4.7-4.9z" style="fill: rgb(86, 76, 68);"></path></svg>