<svg version="1.2" xmlns="http://www.w3.org/2000/svg" viewBox="0 0 900 900" width="900" height="900">
	<title>34544-ai</title>
	<style>
		.s0 { fill: #3f3f3f } 
	</style>
	<g id="Layer 1">
		<g id="&lt;Group&gt;">
			<path id="&lt;Compound Path&gt;" fill-rule="evenodd" class="s0" d="m381.3 422.9c-0.1 18-5.4 38.5-20.1 41.9-22.2 5.2-190.4 36.6-197.5 37.9q-0.2 0.1-0.3 0.1 0 0-0.1 0-0.1 0-0.2 0-0.3 0-0.7-0.1c-53.3-10-121.7-35.9-122.4-36.2-1.1-0.4-1.8-1.2-2.1-2.3-0.7-3 0.2-5 1.2-6.2 1.7-2.2 4.8-3.3 9.2-3.3q0.2 0 0.3 0c4.4-19.6 1.6-38.9 0.2-46.3-1.4 0.2-3 0.4-4.8 0.4-2.8 0-4.4-1.3-5.1-2.4-1.9-2.5-1.1-5.7-0.9-6.4 0.3-1.3 1.5-2.2 2.8-2.4l24.8-2.4c-9.3-3.9-12.9-15.3-12.9-24.8-0.1-10.7 3.7-20 9.7-23.5q0.6-0.3 1.3-0.3l23.8-1.8c-5-4.3-6.9-11.2-6.9-17.3 0.1-8.8 4.1-16.7 10-19.5q0.4-0.3 0.9-0.3l16.4-1.1c1.1-0.3 2.5-0.5 4.3-0.5q0.4 0 0.8 0c2.9-7.7 1.1-15.4 0.1-18.4-1 0.1-2.4 0.3-4 0.3q-2.6 0-3.5-1.6c-0.7-1-0.5-2.2-0.1-2.9 0.3-0.6 0.9-1 1.5-1l148.4-8.5q0 0 0.1 0 0 0 0 0l83.6 3.4q0.3 0 0.7 0.2 0.4 0.2 0.8 0.4h0.1c4.3 2.6 7.1 8.6 7 15.4 0 4.2-1.3 9.1-4.3 12.6l25.2 0.9c0.9 0 1.8 0.5 2.2 1.4 0.4 1 0.7 2.5-0.2 3.8q-1.2 2-4.4 2.1-0.6 0-1.1 0c-1.4 0-2.6 0-3.6-0.1-1.1 3.7-3.3 12.6-0.2 21.5q0.7 0 1.5 0c3.9 0 6.2 0.7 7.3 2.4 0.7 1.1 0.8 2.4 0.3 3.6-0.3 0.8-1 1.3-1.7 1.5-0.3 0.1-9.1 2.3-22.5 5.3q0.4 0.4 0.7 0.9c0.1 0.4 0.9 2.5-0.4 4.5-0.6 1-1.9 2.1-4.6 2.2q-0.4 0-0.8 0c-1.3 0-2.6-0.1-3.6-0.2-1.1 4.6-3.2 15.7 0.1 26.7q0.5 0 1.1 0c2.7 0 4.7 0.4 6.1 1.2l23.6 1.7c0.7 0 1.3 0.3 1.9 0.7 8.2 6.4 11.1 23.8 11 36.8zm-330.5 37.4c8.9 3.1 60.3 20.9 115.2 33.3q0.6-1 1.2-2.2l-108.6-30.7 109.6 28.7c1.4-2.9 2.7-6.2 3.7-10.1 0.6-2.7 1.2-5.8 1.5-9.3l-59.3-12.5 59.5 10.4q0.1-3 0-6.4l-115-22.8 114.9 20.5c-0.6-9.4-3.2-20.7-9.2-33.7l-111.8-15.6q0.1 1.1 0.3 2.4l107.5 17.1-107.1-14.8q0.3 2.3 0.5 5l30.4 6.2-30.2-4.1q0.2 2.4 0.3 4.9l59.8 11.7-59.7-9.4c0.1 6.8-0.2 14.6-1.6 22.5l108.6 26.8-109-24.6q-0.4 1.9-0.9 3.9zm289.3-180.4l-14.8 1.2c4.9 5.2 5.9 10.7 5.7 14.6-0.1 3.5-1.1 7-2.8 10.1l13.5-1.6-1.9 2.7c4.1-3 6-8.3 6-13.5 0.1-5.5-2-11-5.7-13.5zm22.6 58.3q-0.3 0-0.5 0l0.4 1.3c0.1 0.3 0.1 0.7-0.1 1-0.2 0.3-0.5 0.5-0.8 0.6-0.5 0.1-47 11.1-97.4 19.2 0.7 0.5 1.1 0.8 1.4 0.9q45.3-6.3 102.3-20.5c0.9-2.1-2.5-2.5-5.3-2.5zm-18 69c-5.4 1.2-11.9 2.5-19.1 4 4.6 16.3 3.3 33.7-0.7 46.8l15.8-3-0.9 6.9c2.5-5.2 4.1-10.6 5.3-16l0.6-3v-31.6q-0.3-1.1-0.5-2.2-0.2-0.9-0.5-1.9zm-169.7 73.2c-0.7 2.4-1.4 4.7-2.2 6.7l23.8-4.5-0.9 6.9c2.1-5.3 3.5-10.9 4.5-16.4l0.9-5.2c0.2-1.8 0.4-3.5 0.6-5.3l0.4-5.2 0.1-5.3-0.1-5.2c-0.1-1.8-0.3-3.5-0.4-5.3v-1.3l-0.2-1.3-0.4-2.6c-0.1-1.7-0.5-3.4-0.8-5.2q-1.8-9.1-5.3-17.8l-31.1 4.2c15.1 28.3 14.4 49.7 11.1 62.8zm-32.6-64.3l-14.2-2.2-28.6-4.2-28.6-3.9c-9.5-1.3-19.1-2.5-28.6-3.7 9.5 1.6 19 3.1 28.5 4.5l28.5 4.2 28.6 4 14.3 1.8 14.4 1.8zm-58.4-64c-10.7 12.3-8.6 27.6-3.5 36.5l3.2 0.3q-1.3-2-2.3-4.2c-1.6-3.8-2.4-8-2.5-12.2 0-4.1 0.8-8.3 2.6-12.1 1.3-3 3.2-5.8 5.4-8.1zm23.7-9.8l3.1 0.3q-1.2-1.6-2-3.3c-0.4-0.8-0.7-1.6-1.1-2.4q-0.4-1.3-0.7-2.6-0.3-1.3-0.5-2.6c0-0.9-0.1-1.8-0.1-2.7 0.1-0.9 0.1-1.8 0.2-2.7 0.2-0.9 0.3-1.8 0.5-2.6l0.9-2.6c0.3-0.8 0.8-1.6 1.2-2.4 1.1-1.9 2.5-3.7 4.1-5.2q-1.2-0.3-2.2-0.5c-6.4 6.3-7.6 12.8-7.4 17.3 0.2 4.9 1.9 9 4 12zm7.1-36q-0.3 0.9-0.7 1.8-0.1 0-0.2 0l-0.2 0.6c6.4 1.4 43 8.8 82 13.9q0.3-0.3 0.7-0.6l-77-12.9 77.9 11.8c1.6-1.9 3.1-4.5 3.7-7.7l-42.3-5.4 42.4 4.2q0.2-1.2 0.1-2.4l-81.8-9.6 81.7 8.4q-0.8-6.6-6.7-13.8l-79.4-6.5q0.1 0.4 0.2 0.8l76.2 7.2-75.9-5.9q0.2 0.8 0.4 1.7l21.5 2.8-21.4-1.6q0.1 0.8 0.2 1.8l42.5 4.9-42.4-3.7c0.1 2.7-0.2 5.9-1.1 9.1l77 11.2zm204.8-24.7c1.7 1.4 3.2 3.2 4.3 5.2 1.5 2.6 2.2 5.6 2.1 8.5 0 3-0.8 5.9-2.1 8.5q-0.7 1.4-1.7 2.6l3-0.3c1.9-2.7 3.4-6.4 3.6-10.5 0.1-3.7-1-9.2-6.5-14.3zm-55.9 39.3l-9-0.5q-4.4 0.5-8.8 0.9c-3.8 0.8-7.4 1.6-10.8 2.6-0.6 1.2-1.2 2.5-1.7 3.8-1.3 3.4-2 7-2 10.7 0 0.9 0.1 1.8 0.1 2.7 0.1 0.9 0.2 1.8 0.3 2.7 0.1 0.9 0.3 1.8 0.5 2.7l0.7 2.6c0.9 2.8 2.1 5.5 3.8 8l-0.7-3.4 20.1 1.8c-1.3-2.2-2.5-4.8-3-7.9-1.3-8.2 2.3-17.2 10.5-26.7zm-25.3 42.5l-26.4-1.9c-1.8 3.4-3.3 6.8-4.3 10.4-1.2 4.2-1.8 8.5-1.8 12.9l0.2 3.2 0.3 3.3c0.1 1.1 0.4 2.1 0.5 3.2l0.8 3.2c0.9 3.4 2.1 6.7 3.8 9.8l-0.7-4.1 20.3 2.3c-1.3-2.5-2.5-5.6-3.1-9.1-1.7-10.2 1.8-21.3 10.4-33.2zm0.9 48.3c0.6 0.5 1.1 0.9 1.4 1.2q45.9-7.3 103.4-24.2c0.9-2.7-2.7-3.2-5.6-3.2q-0.1 0-0.2 0l0.5 1.7c0.2 0.7-0.2 1.5-1 1.7-0.5 0.2-47.5 13.3-98.5 22.8zm75.3 1.9c-8.2 1.7-16.9 3.5-25.4 5.2 3.8 16.4 2.3 33.5-1.7 46.5l22.5-4.3-0.7 8.3c2.5-5.3 4.2-11 5.4-16.8l0.8-4.7c0.2-1.6 0.4-3.2 0.6-4.8l0.4-4.8 0.1-4.8c0-1.6 0-3.2 0-4.8-0.1-1.6-0.3-3.2-0.4-4.8l-0.1-1.2-0.2-1.2-0.3-2.3c-0.2-1.6-0.5-3.2-0.9-4.8q0-0.3-0.1-0.7zm-72 60.2c4.2-11.8 6.6-29.6 2.9-46.7q-0.8 0.2-1.6 0.3c0.2 0.8 0.3 1.5 0.5 2.3l0.4 2.6 0.3 1.3 0.1 1.3c0.2 1.8 0.4 3.5 0.5 5.3 0 1.7 0.1 3.5 0.2 5.2-0.1 7.1-1 14.1-2.8 20.9q-0.7 2.5-1.5 5-0.6 1.5-1.1 3zm-72.8-75.1l3.2 0.3q-1.2-2.1-2.1-4.4c-1.6-4.2-2.4-8.7-2.5-13.3 0-4.5 0.8-9 2.5-13.2 1.4-3.4 3.3-6.5 5.7-9.3l-3.1-0.2c-10.5 13.4-8.6 30.1-3.7 40.1zm60.6-69.2c0.3-0.9 0.8-1.8 1.2-2.7q0.6-1.2 1.3-2.4-1.7 0.5-3.3 1c-3 5.4-3.6 10.6-3.5 14.4 0.2 5.4 1.8 9.9 3.8 13.3l3.1 0.2q-1.1-1.7-1.9-3.6c-1.6-3.6-2.3-7.5-2.3-11.5q0.1-1.5 0.2-2.9 0.3-1.5 0.6-3zm128.2 6.9l-92.7 14.4 92.2-16.1c-1.1-3.7-1.3-7.4-1.2-10.7l-50.6 5.7 50.7-7.3q0.1-1 0.3-2l-25.6 2.5 25.8-4.1q0.2-1 0.4-1.9l-90.7 9.4 91.1-11.2q0.2-0.5 0.3-0.9l-94.7 10.2c-4.7 6-7.5 11.6-8.3 16.8l97.6-12.4-97.7 14.2q-0.1 1.3 0 2.6l50.6-6.3-50.4 7.9c0.6 3.8 2.3 6.8 4.1 9l93.2-16.4-91.9 17.9q0.3 0.2 0.5 0.5c46.4-7.4 90-17.3 98-19.2l-0.2-0.6q0 0-0.1 0-0.4-1-0.7-2zm-225.7 8.2l3 0.2q-0.9-1.3-1.6-2.8c-1.6-3.3-2.4-7-2.4-10.7q0.1-1.4 0.3-2.8 0.2-1.3 0.5-2.7l0.8-2.6c0.4-0.9 0.8-1.7 1.2-2.5q0.7-1.3 1.6-2.6-1.2-0.2-2.3-0.4c-4.1 5.5-4.9 11-4.8 15 0.2 4.8 1.7 8.8 3.7 11.9zm92.3-17.8c-10.7 3.4-19.1 6.6-25 5.8q-1.2-0.2-2.8-0.5-0.2 1.8-0.2 3.7c0 0.8 0 1.7 0 2.6 0.1 0.9 0.2 1.7 0.3 2.6l0.5 2.6 0.8 2.6c0.9 2.7 2.1 5.4 3.8 7.8l-0.6-3.3 23.9 2.1c-1.9-3.9-3-8.4-3.2-12.8-0.1-3.6 0.4-8.3 2.5-13.2zm-60.8 20.5l3.2 0.3q-1.2-1.6-2-3.4c-1.6-3.4-2.3-7.2-2.3-11q0.1-1.4 0.2-2.8 0.2-1.4 0.5-2.8l0.9-2.7q0.1-0.3 0.2-0.5-1.2-0.4-2.4-0.7c-1.8 4.1-2.2 8-2.1 11 0.2 5.1 1.8 9.5 3.8 12.6zm28-16.2c-0.4 2.2-0.6 4.3-0.5 6.1 0.2 5.2 1.8 9.6 3.8 12.9l3.1 0.3q-1.1-1.7-1.9-3.5c-1.6-3.5-2.3-7.3-2.3-11.2l0.2-2.9q0.1-0.6 0.2-1.2-1.2-0.2-2.6-0.5zm-3.3-0.8c-6.4-1.5-14.3-3.5-21.9-5.4-0.9 2.7-1.4 5.5-1.4 8.4 0 0.8 0.1 1.7 0.1 2.5 0.1 0.9 0.2 1.8 0.3 2.6l0.5 2.6c0.3 0.8 0.5 1.6 0.8 2.5 1 2.8 2.3 5.6 4.2 8.1l-0.8-3.7 20.8 1.8c-1.8-3.7-3-8-3.1-12.3-0.1-2.1 0-4.5 0.5-7.1zm-36.3-9.2c-5.2-0.9-10.2-1.8-14.8-2.7q-0.9 1.6-1.5 3.1c-1.3 3.2-2 6.5-2 9.8-0.1 3.4 0.5 6.7 1.6 9.9 1.1 2.9 2.5 5.6 4.5 8.1l-0.6-4.1 20.4 1.8c-1.9-3.7-3-7.9-3.2-12.2-0.1-3.3 0.3-7.5 2.2-11.9-2.3-0.6-4.6-1.2-6.6-1.8zm-38.6-7.4c-1.3 1.9-2.5 3.9-3.4 5.9-1.3 3-2 6.2-2 9.5-0.1 3.2 0.5 6.4 1.7 9.5 1 2.7 2.5 5.3 4.4 7.7l-0.7-3.4 14.6 1.3c-1.7-3.5-2.8-7.4-2.9-11.4-0.2-4.2 0.6-10 4.5-15.8-6.5-1.3-12.1-2.4-16.2-3.3zm93.9 47.5c-10.8 14.4-8.5 31.4-3.7 41.4l3.2 0.4q-1.3-2.3-2.1-4.7c-1.6-4.3-2.4-8.9-2.5-13.6 0-4.6 0.8-9.3 2.5-13.6 1.4-3.5 3.3-6.8 5.7-9.7zm-130.9 36.4l-24.4 2.3 108.3 14.7 30.2-4.1c-4.6-0.5-9.4-1-14.4-1.6l-16.9 2.2-92.4-10.9 17.2-1.7q-4.3-0.5-7.6-0.9zm127-36.7l-27-1.9c-1.8 3.2-3.3 6.5-4.3 9.9-1.1 4.1-1.7 8.3-1.7 12.5l0.1 3.2 0.4 3.1c0.1 1.1 0.3 2.1 0.5 3.1l0.7 3.1c1 3.3 2.2 6.6 4 9.6l-0.7-4 24.3 2.7c-4.7-11.3-5.4-27.7 3.7-41.3zm46.3 111.4l22.9-4.4-1.1 7.5c2.5-5.4 4.1-11.1 5.2-16.8l0.9-4.9c0.1-1.7 0.4-3.3 0.5-5l0.4-4.9 0.2-4.9c0-1.7-0.1-3.3-0.1-5 0-1.6-0.3-3.3-0.4-4.9v-1.3l-0.2-1.2-0.3-2.4q-0.2-1.6-0.5-3.1c-9.3 1.8-18.1 3.5-25.6 4.9 3.4 16.4 2 33.4-1.9 46.4zm29-5.6c4.4-11.7 6.9-29.5 2.8-46.6q-0.8 0.2-1.6 0.3l0.1 0.6c0.3 0.9 0.4 1.7 0.5 2.6l0.5 2.5 0.2 1.3 0.2 1.2c0.2 1.7 0.4 3.4 0.5 5.1 0 1.8 0.1 3.5 0.1 5.2 0 6.8-0.9 13.7-2.7 20.3q-0.8 2.4-1.6 4.8c-0.4 1.1-0.8 2.1-1.2 3.2zm75.5-155.1l12.1-1.6-12.1 1.2-5 0.5 1.6 0.3zm0-2.6l-14.6-0.4q-0.6 0.4-1.2 0.8l6.4 0.2-4.3 0.4 1.6 0.3zm-51.7-26.2c5.1 5.5 6.1 11.3 5.9 15.3-0.1 3.5-1 7-2.6 10l12.6-1.4-0.7 2.8c1.7-1.9 3-4 3.9-6.3 1-2.5 1.6-5.2 1.6-7.9 0.1-2.7-0.5-5.4-1.6-7.9-0.8-2.1-2.1-4-3.5-5.8zm-5.7 0.4c1.8 1.6 3.4 3.5 4.6 5.7 1.4 2.7 2.1 5.8 2 8.8 0 3.1-0.7 6.1-2.1 8.8q-0.6 1.1-1.3 2.2l3-0.3c1.7-2.8 3-6.4 3.2-10.4 0.1-3.9-1-9.7-6.6-15zm-20.5 1.6c4.9 5.6 5.9 11.5 5.8 15.6-0.2 3.7-1.2 7.4-2.9 10.6l17.4-1.9-0.5 3.4c1.7-2 2.9-4.2 3.9-6.6 1-2.7 1.6-5.4 1.6-8.2 0-2.8-0.5-5.6-1.6-8.2-0.9-2.2-2.2-4.3-3.7-6.3zm-5.5 0.5c1.7 1.6 3.2 3.5 4.2 5.7 1.5 2.7 2.1 5.9 2.1 9 0 3.1-0.8 6.2-2.1 9q-0.7 1.4-1.6 2.7l3-0.3c1.9-2.9 3.3-6.8 3.4-11.1 0.2-4-0.9-9.8-6.3-15.3zm-20.9 1.7c5.1 5.8 6.1 12 5.9 16.2-0.1 3.8-1.1 7.6-2.8 10.9l17.7-2-0.7 3.1c1.6-2.1 2.9-4.3 3.7-6.7 1-2.7 1.6-5.6 1.6-8.5 0.1-2.8-0.4-5.7-1.5-8.4-0.9-2.2-2.1-4.2-3.5-6.2zm-5.6 0.4c1.8 1.8 3.4 3.8 4.5 6.1 1.4 2.9 2.1 6.1 2 9.3 0 3.2-0.7 6.3-2.1 9.2q-0.6 1.4-1.5 2.7l3-0.3c1.8-3 3.2-6.9 3.4-11.2 0.1-4.2-0.9-10.4-6.5-16zm-23.1 1.8c5.1 6.1 6.1 12.5 5.9 16.9-0.1 3.9-1.1 7.8-2.8 11.2l20.4-2.3-0.6 2.8c1.4-2 2.5-4.1 3.3-6.4 1-2.8 1.6-5.7 1.6-8.7 0.1-2.9-0.5-5.9-1.5-8.6-0.9-2.4-2.2-4.6-3.7-6.7zm-5.6 0.5c1.9 1.8 3.5 4 4.6 6.4 1.4 2.9 2 6.2 2 9.5 0 3.3-0.7 6.5-2 9.5q-0.7 1.4-1.6 2.8l3.1-0.3c1.7-3 3.1-6.9 3.2-11.5 0.2-4.3-0.9-10.7-6.4-16.6zm-22.6 1.7c6.8 7.6 9.7 14.9 8.7 21.6-0.4 2.8-1.4 5.2-2.6 7.1l17-1.9-0.6 2.9c1.4-2.1 2.5-4.3 3.3-6.6 1-2.9 1.6-5.9 1.6-9 0-3-0.5-6-1.6-8.9-0.9-2.4-2.1-4.7-3.7-6.9zm-25.4-1.8l-20.2-1.7-20.3-1.7q-10.1-0.7-20.3-1.4 10.1 1 20.3 1.9l20.2 1.8 20.3 1.6q10.1 0.8 20.3 1.4-10.2-1-20.3-1.9zm-61.7 20.6q47.7 10.6 85.7 14.9c0.2-0.2 0.7-0.5 1.2-0.9-42.2-5.7-81.2-13.9-81.6-13.9-0.2-0.1-0.4-0.2-0.6-0.5-0.1-0.2-0.1-0.5 0-0.7l0.3-1.1c-2.4 0-5.8 0.3-5 2.2zm-1.9-0.8l-1.5 0.1 1.5 0.1q0-0.1 0-0.2zm64.6 48.9l-24.3-1.8c-1.7 3.1-3.1 6.2-4.1 9.4-1.1 3.9-1.8 8-1.7 12.1l0.1 3.1 0.3 3.1 0.6 3 0.7 3.1c1 3.5 2.4 6.9 4.4 10l-0.8-4.5 21 2.4c-4.7-10.9-5.5-26.7 3.8-39.9zm-25.1-1.8l-2.9-0.2c-10.5 13-8.5 29.2-3.5 38.8l3.2 0.3q-1.3-2.1-2.2-4.4c-1.6-4.1-2.4-8.5-2.4-12.9 0-4.4 0.8-8.9 2.5-12.9 1.3-3.2 3.1-6.2 5.3-8.7zm-6.9-0.5l-23.9-1.8c-1.7 3.1-3.2 6.2-4.2 9.4-1.2 3.9-1.8 7.9-1.8 11.8l0.1 3 0.4 3 0.5 3 0.8 2.9c1 3.5 2.5 6.9 4.5 10l-0.6-5 20.7 2.3c-4.7-10.5-5.6-25.8 3.5-38.6zm-24.5-1.8l-3-0.2c-10.6 12.5-8.8 28-4 37.4l3.1 0.4q-1-1.8-1.8-3.8c-1.7-3.9-2.5-8.2-2.5-12.5 0-4.3 0.8-8.7 2.5-12.6 1.4-3.2 3.3-6.2 5.7-8.7zm-7-0.5l-18.5-1.4c-1.7 2.9-3.2 5.8-4.2 8.8-1.2 3.7-1.8 7.5-1.7 11.4l0.1 2.9 0.3 2.8 0.6 2.9 0.7 2.8c1.1 3.3 2.5 6.5 4.6 9.5l-0.8-4.1 14.9 1.7c-4.6-10.3-5.2-25 4-37.3zm95.9 127.8c5.7-16.7 8.6-45.1-4.4-68.5l-2.2 0.3c3.3 5.3 5.7 11.2 7.3 17.3l0.7 2.7c0.3 0.8 0.3 1.7 0.5 2.6l0.5 2.7 0.2 1.3 0.2 1.4c0.1 1.8 0.3 3.6 0.4 5.4l0.2 5.4c-0.1 7.3-0.9 14.5-2.7 21.5q-0.7 2.6-1.5 5.2-0.6 1.5-1.2 3.1zm8.1-1.6l26.6-5.1-0.8 6.8c2.1-5.2 3.5-10.6 4.6-16l0.8-5.1c0.2-1.7 0.4-3.4 0.6-5l0.4-5.1 0.1-5.1c0-1.7 0-3.4 0-5.1-0.1-1.7-0.3-3.4-0.4-5.1l-0.1-1.2-0.1-1.3-0.4-2.5q-0.1-1.2-0.3-2.4c-2.3 0.4-4.4 0.7-6.1 0.9-3.4 0.5-6.8-0.6-9.3-2.9-6.8-6.1-14.6-10-19.7-12.1 10.9 23 9.2 48.8 4.1 66.3zm106.9-20.4c4.3-12 6.6-30 1.8-46.9q-0.9 0.2-1.8 0.4 0.1 0.3 0.2 0.6l0.7 2.4c0.3 0.8 0.3 1.6 0.5 2.4l0.5 2.5 0.2 1.2 0.2 1.2c0.1 1.7 0.4 3.3 0.4 5 0.1 1.7 0.2 3.3 0.2 5-0.1 6.7-1 13.3-2.8 19.7-0.5 1.6-0.9 3.2-1.5 4.8q-0.4 1-0.8 2.1zm17.6-76.5l-93.6 17 93.1-18.8c-1.1-4.6-1.4-9.2-1.3-13.2l-51.3 6.7 51.4-8.6q0-0.9 0.1-1.8c-9.1 1-61 6.8-76.1 4.9q-1.9-0.2-3.4-0.5l-11.6 1.4 10.9-1.5c-2.6-0.5-4.5-1.1-6-1.7l-8.2 1c-4.7 7.2-7.4 14-8.1 20.5l98.5-14.6-98.6 16.5q-0.1 1.7 0.1 3.3l51-7.2-50.8 9.1q0 0.2 0 0.5c0.7 4.4 2.5 7.9 4.3 10.7l94-19.5-92.8 21.1q0.3 0.4 0.7 0.8c46.7-8.6 90.6-20.4 98.7-22.6l-0.3-1.2q-0.4-1.2-0.7-2.3zm-18-28.2l1.9-0.2 12.2-1.7 12.2-1.7-12.3 1.2-6 0.7q-3.9 0.9-8 1.7zm13.3-75.9l-74.7-3-138.4 7.9 75.3 5.9zm-247 48.7c0 6.3 2.2 12.6 7.1 16.2l-2.3-3.2 15.8 1.4c-1.9-3.5-3.1-7.5-3.3-11.6-0.1-4.7 1-11.5 6.9-18.1l-17.3-1c-4.3 3.2-6.8 9.7-6.9 16.3zm8.3 19.9l-16.3 1.1 79.8 5.8c-22.7-2-42.7-3.8-52.7-4.8l-14.3-0.9 5.5-0.4q-1.1-0.4-2-0.8zm-35.9 23c0 7.6 2.3 15.3 7.3 19.7l-2.3-3.9 16 1.8c-4.8-9.8-5.6-24.2 3.5-36.3l-17.7-1.3c-4.4 3.8-6.9 11.9-6.8 20zm39 29l-7 0.8 72.8 8.2 6.2-0.8c-25.6-2.8-52.7-5.9-72-8.2zm251.2 54.6v-1.9q-0.4 1-0.9 2zm12.4-65.9l-10.9-0.8q0.1 1-0.3 2.2 0 0 0 0.1zm-317 75.4q67.3 25.6 120.9 35.8c0.5-0.6 1.2-1.5 2-2.6-59.8-13.6-115.1-33.5-115.7-33.7-0.8-0.3-1.2-1.1-1.1-1.9l0.6-3c-3.3 0.1-7.8 1-6.7 5.4zm336.8-40.6c0.1-13.7-3-27.2-8.5-33l-16.1 2.2c4.6 3.5 7.1 11.7 5.3 12.1-1.3 0.3-3.4 0.8-6.3 1.4 5.4 16.9 3.2 35-1.3 47.4l21-4-2.7 6.6c5.8-7.4 8.5-20.2 8.6-32.7z"/>
			<path id="&lt;Path&gt;" class="s0" d="m98.9 454.4c1.9 0.5 3.8 1 5.7 1.6-1.9-0.3-3.8-0.7-5.8-1.1l-5.8-1.1c-3.8-0.8-7.7-1.7-11.5-2.6-3.8-0.9-7.7-1.8-11.5-2.8-3.8-1-7.6-2-11.4-3.1 3.9 0.6 7.8 1.4 11.6 2.2 3.9 0.8 7.7 1.7 11.6 2.6 3.8 0.9 7.6 1.8 11.4 2.8z"/>
			<path id="&lt;Path&gt;" class="s0" d="m101.6 441.7c-6.9-1.2-13.8-2.6-20.7-4 6.9 1 13.9 2.1 20.8 3.2 7 1.1 13.9 2.3 20.8 3.4 7 1.3 13.9 2.5 20.8 3.8l10.4 1.9c3.4 0.7 6.9 1.3 10.3 2.1-3.5-0.5-7-1-10.4-1.6l-10.5-1.6c-6.9-1.1-13.8-2.3-20.8-3.5-6.9-1.2-13.8-2.4-20.7-3.7z"/>
			<path id="&lt;Path&gt;" class="s0" d="m129.6 434c-5.5-1-10.9-1.8-16.4-2.8-5.4-1-10.8-2-16.2-3.1 5.4 0.7 10.9 1.4 16.4 2.2 5.4 0.8 10.9 1.7 16.3 2.6 5.5 0.9 10.9 1.8 16.4 2.8l8.1 1.4c2.7 0.6 5.5 1.1 8.2 1.6-2.8-0.3-5.5-0.7-8.3-1l-8.2-1.2c-5.4-0.8-10.9-1.7-16.3-2.5z"/>
			<path id="&lt;Path&gt;" class="s0" d="m289.8 385.2c3.3-0.8 6.6-1.5 9.8-2.2 3.3-0.7 6.6-1.3 9.9-2 3.3-0.5 6.6-1.2 9.9-1.7 3.3-0.6 6.6-1.1 9.9-1.5-3.3 0.8-6.5 1.5-9.8 2.2-3.3 0.7-6.6 1.3-9.9 2-3.2 0.6-6.5 1.2-9.8 1.7-3.3 0.6-6.6 1.1-10 1.5z"/>
			<path id="&lt;Path&gt;" class="s0" d="m292.3 375.9c6-0.8 11.9-1.6 17.9-2.3-5.9 1.1-11.8 2-17.8 3l-17.8 2.7-17.8 2.5c-5.9 0.8-11.9 1.5-17.9 2.2 6-1.1 11.9-2 17.8-3l17.8-2.7z"/>
			<path id="&lt;Path&gt;" class="s0" d="m254.4 374.3c-4.7 0.5-9.4 1.1-14 1.5 4.6-0.8 9.3-1.5 13.9-2.3 4.7-0.7 9.4-1.3 14-2 4.7-0.6 9.4-1.3 14.1-1.9 4.6-0.5 9.3-1.1 14-1.5-4.6 0.8-9.3 1.5-13.9 2.3-4.7 0.7-9.4 1.3-14.1 2-4.6 0.6-9.3 1.3-14 1.9z"/>
			<path id="&lt;Path&gt;" class="s0" d="m324.2 337c-3.3 0.5-6.6 1-9.8 1.3 3.2-0.7 6.4-1.3 9.7-1.9 3.2-0.6 6.5-1.1 9.7-1.7 3.3-0.5 6.5-1 9.8-1.5 3.2-0.4 6.5-0.9 9.8-1.2-3.2 0.7-6.5 1.3-9.7 1.9-3.3 0.6-6.5 1.1-9.8 1.7-3.2 0.5-6.5 1-9.7 1.4z"/>
			<path id="&lt;Path&gt;" class="s0" d="m316.9 330.6c5.9-0.7 11.8-1.4 17.7-1.9-5.9 0.9-11.7 1.7-17.6 2.5l-17.6 2.3-17.6 2.2c-5.9 0.7-11.8 1.3-17.7 1.9 5.9-0.9 11.7-1.7 17.6-2.6l17.6-2.3z"/>
			<path id="&lt;Path&gt;" class="s0" d="m279.5 329.5c-4.6 0.5-9.3 1-13.9 1.4 4.6-0.7 9.2-1.4 13.8-2l13.9-1.8 13.9-1.6c4.6-0.5 9.2-0.9 13.9-1.3-4.6 0.7-9.3 1.4-13.9 2l-13.8 1.8z"/>
			<path id="&lt;Path&gt;" class="s0" d="m152.1 307.1q-4.1-0.4-8.2-0.9l-8.1-1-8.2-1.2q-4.1-0.6-8.1-1.3 4.1 0.3 8.2 0.8l8.1 1.1 8.2 1.2q4.1 0.6 8.1 1.3z"/>
			<path id="&lt;Path&gt;" class="s0" d="m150 301.2q-7.4-0.8-14.7-1.7 7.4 0.6 14.7 1.3l14.8 1.4 14.7 1.6q7.4 0.8 14.7 1.7-7.4-0.6-14.8-1.3l-14.7-1.4z"/>
			<path id="&lt;Path&gt;" class="s0" d="m169.8 298l-11.6-1.1q-5.7-0.6-11.5-1.4 5.8 0.4 11.6 0.9l11.6 1 11.6 1.2q5.8 0.6 11.5 1.4-5.8-0.4-11.6-0.9z"/>
			<path id="&lt;Compound Path&gt;" fill-rule="evenodd" class="s0" d="m255.5 276.2l63.6 2.9-127.5 9.3-65.6-4.5zm-63.9 11.1l110.1-7.9-46.3-2.2-113.1 6.8z"/>
		</g>
	</g>
</svg>