<svg version="1.2" xmlns="http://www.w3.org/2000/svg" viewBox="0 0 248 221" width="248" height="221">
	<title>5138-ai</title>
	<style>
		.s0 { fill: #492a2a } 
		.s1 { fill: #67bfce } 
		.s2 { fill: #f9ddb4 } 
		.s3 { fill: #ffffff } 
		.s4 { fill: #d1a67c } 
		.s5 { fill: #e25050 } 
	</style>
	<g id="Layer 1">
		<g id="&lt;Group&gt;">
			<path id="&lt;Path&gt;" class="s0" d="m19.3 199.1c-0.1-4.1 3.9-7.9 4.1-11.8 5.9-2.3 9.9-5.3 16.1-7.4-11.2-10-16.8-33.6-15.6-46.9-10.1-4.1-22.4-32.7-15.9-41.7 1.4-1.9 4.3-3.8 6.7-5.8 15-13.3 33.1-25.3 52.3-37.1 22.8-14 46-26.7 70.3-38.2 4.1-1.9 13-7 15.6-5.2 2.8 1.9 2.7 7.7-0.9 9.1 1.6 2.3 0 5.8 1.4 8.8 1 2.2 3.2 4.1 4.3 6.3 1 2 0.9 4 1.5 6.1 2.3 7.5 7.5 14 9.1 20.7 2.6 1.8 5.1 4 8.9 3 1.8 1.3 3.2 3.3 4.7 5.4 3.1-1.3 6.4-2.9 8.9-2.7 1.5 3.6 2.2 7.6-0.8 10.1 4.1 10.7 7.7 21.7 12.4 31.1 2.7 3.2 7.8 0.6 9.2 6.8 7.1-2.8 13-6 19.8-8 3.5 1.3 5.1 7.4 2.3 9.5 1.3 6.1 2.4 11.2 4 16.8 0.4 1.1 0.3 2 0.8 2.7 2.1 2.6 7.9 0.8 7.8 8.1-0.9 3-5.2 3.8-8.5 5.3-9.6 4.5-19 9.9-29.1 13.9-26.9 10.7-54.6 21.4-82.3 31.4-27.4 10-54.3 21-80.6 27.1-2 2-4.9 3.4-7.2 3.7-7.2 0.9-19.1-11.1-19.3-21.1z"/>
			<g id="&lt;Group&gt;">
				<path id="&lt;Path&gt;" class="s1" d="m147.9 9.8c-3.1 2.3-6.8 4.9-10 6.5-43.2 22.7-85.1 47.2-121.2 72.3 23-21.7 56.6-39.8 90.2-57.9 13.5-7.3 24.9-14.8 41-20.9z"/>
			</g>
			<g id="&lt;Group&gt;">
				<path id="&lt;Path&gt;" class="s2" d="m147.8 16.9c-0.8 2.9-4.2 3.9-6.4 5.4-16.3 10.8-38.5 20.6-57.1 31.3-20.9 12-41.6 25.9-62.8 37 17.4-13 37-25.7 57.9-37.3 21-11.7 42.4-23.9 64-34.9 1-0.5 3-2.4 4.4-1.5z"/>
			</g>
			<path id="&lt;Path&gt;" class="s3" d="m148.1 19.1c1.5 3.6-2.6 4.7-4.8 6.1-18 10.9-41.8 20.5-60.1 31.5-21.5 13-43.2 25.6-61.2 39.1-0.5-0.9-0.7-2.8-1.6-3 10-6.5 20.7-12.2 31.3-18.5 10.2-6 20.3-12.4 30.8-18.6 21.5-12.8 45.9-22.6 65.2-36.8 0.2-0.1 0.3 0 0.4 0.2z"/>
			<g id="&lt;Group&gt;">
				<path id="&lt;Path&gt;" class="s4" d="m22.5 96.9c17.1-13.7 37.8-25.5 58.9-38.1 10.7-6.4 21.9-12 33.3-17.6 11.3-5.7 23.3-11.3 33.4-18.1q0.5-0.2 0.7 0.1c-18.5 13.9-40.8 24.9-62.7 37-21.8 12-43.5 24.5-63.6 36.7z"/>
			</g>
			<g id="&lt;Group&gt;">
				<path id="&lt;Path&gt;" class="s4" d="m149.6 25.2c0.8 1.6-2 2-2.6 2.4-8.9 5.5-18.6 10.8-27.7 16.7-10.2 6.6-21.7 12.2-32.6 18.3-19.3 10.9-39 21.2-56.8 32.6-2.3 1.5-4.5 3.3-7.1 4-0.5-1.9 1.9-2.2 2.8-2.9 7.7-5.5 17.9-10.8 27.2-16.1 10.4-5.9 21.1-12 31.7-18 21.7-12.2 43.9-23.6 63.1-36.2 0.4-0.2 1.3-1.3 2-0.8z"/>
			</g>
			<g id="&lt;Group&gt;">
				<path id="&lt;Path&gt;" class="s4" d="m151.9 27.3c0.8 3.2 3.6 3.2 3.7 6.5-5.9 2.8-12.7 6.5-17.8 8.8-1.4-1.8-3.1-2.8-4.4-4.9 5.3-3.8 12.1-7 18.5-10.4z"/>
			</g>
			<g id="&lt;Group&gt;">
				<path id="&lt;Path&gt;" class="s5" d="m130.8 39.5c4 3.4 7.7 7.8 11.2 12.4 0 1.2-2.6-0.8-3.7-0.8-1.6 0.3-0.7 2.5-2.1 2.2-2.5-5.6-6.7-7.4-10.2-10.8 1.5-1.1 3.2-2 4.8-3z"/>
			</g>
			<g id="&lt;Group&gt;">
				<path id="&lt;Path&gt;" class="s5" d="m123.1 44.4c3.9-1.8 14.1 9 12.8 13.7-3.7-5.4-8.9-10.6-12.8-13.7z"/>
			</g>
			<g id="&lt;Group&gt;">
				<path id="&lt;Path&gt;" class="s2" d="m124.7 49.8c-7 4.1-14.9 7.9-22.6 11.8 5.7-1.5 13.2-5.7 19.2-8.7 1.7-0.9 3.9-3.2 5.6-1.1-0.2 1.7-2.6 2.3-3.8 3-4.6 2.4-10.2 5-15.1 7.3-26.2 12.4-52.7 25.4-78.4 38.2 21.3-12 44.3-23.4 66.3-35.1-24.6 10.6-46.8 24.2-70.2 36.1 5.5-7.3 16.6-12.7 27.4-18.8 6.9-4 14.4-7.7 21.6-11.8 14.5-8.2 29.8-15.4 42.9-23.4 0.7-0.4 1.8-1.1 3.2-1.3 1.4 1 2.7 2.3 3.9 3.8z"/>
			</g>
			<g id="&lt;Group&gt;">
				<g id="&lt;Group&gt;">
					<path id="&lt;Compound Path&gt;" fill-rule="evenodd" class="s1" d="m10.1 95.4c1.7 1.3 2.4 6 4 8.8-0.5 0.3-0.7-0.2-0.9-0.7-0.9 1.2 1 3.6 2.1 3.5 3.5 6.7 6.9 13.7 11 18.9-3.7-2-5.6-8.2-8.7-11.8 0.3 5.3 5.6 10 7.5 13-2.6-0.5-3.9-3.7-5.6-6.1-1.6-2.2-3.6-4.7-4.8-7.4-1.4-3.4-0.9-8.3-4.4-9.8-0.5-3-0.6-5.8-0.2-8.4zm4 15.1q0.6 1.6 2 0.9c0.4-0.8-0.3-1.1-0.7-1.7-0.7 0.1-1.1 0.5-1.3 0.8z"/>
				</g>
			</g>
			<g id="&lt;Group&gt;">
				<path id="&lt;Path&gt;" class="s1" d="m15.3 93.3c1.2-0.1 2.9-1.5 3.3 0.6q-1.3 0.5-2.6 1.1-0.4-0.9-0.7-1.7z"/>
			</g>
			<path id="&lt;Path&gt;" class="s3" d="m156.3 36.2c0.2 1.5-2.3 2.1-3.8 2.9-2.4 1.2-4.7 2.4-7.5 3.8-2.1 1.1-4.9 3.7-6 0.9 3.2-2 7.8-4.1 11.6-5.9 1.7-0.9 3.9-3.1 5.7-1.7z"/>
			<g id="&lt;Group&gt;">
				<path id="&lt;Path&gt;" class="s1" d="m16.5 96.1q1.1-0.5 2.2-0.9-0.1 0.5 0.2 1.2c-0.2 0.6-1.1 0.8-1.8 1.2q-0.3-0.8-0.6-1.5z"/>
			</g>
			<g id="&lt;Group&gt;">
				<path id="&lt;Path&gt;" class="s4" d="m157.2 38.5q1.3 3.1 2.7 6.2c-5 2.5-9.4 5.2-14.3 7.7-1.3-2-3.4-4.8-4-6.4 5.3-2.5 9.8-5.3 15.6-7.5z"/>
			</g>
			<g id="&lt;Group&gt;">
				<path id="&lt;Path&gt;" class="s1" d="m19.5 98.5c1.1 1-1.1 1.8-1.5 1.3-1.1-0.9 1.1-1.7 1.5-1.3z"/>
			</g>
			<g id="&lt;Group&gt;">
				<g id="&lt;Group&gt;">
					<path id="&lt;Compound Path&gt;" fill-rule="evenodd" class="s2" d="m127.3 53.7c2.3 0.3 3.3 3.5 4.9 5.3-13 5.9-27.2 13-41.1 18.9-1.3 0.6-3.3 2.2-4.9 1.1 5.1-4.7 15.2-7.2 20.6-11.7-4.4 0.8-11.5 4.3-16.8 7.1-7.9 4.1-17.7 6.7-21.8 12.1 1.9-0.6 4.6-3.2 6.4-2.3 0.8 1.7-2 2.4-2.8 2.8-14.1 7.4-32.1 13.4-45.7 20.9-0.4-1.6-0.9-3.2-1.8-5 26.8-10.4 52.6-25 79.1-37.5 8.1-3.8 16.7-7.2 23.9-11.7zm-68 37.2c3.1-0.6 6.1-3.1 8.4-3.8-1.7-1-8.3 1.8-8.4 3.8z"/>
				</g>
			</g>
			<path id="&lt;Path&gt;" class="s3" d="m18.6 101.3q0.9-0.4 1.7-0.8 0.4 0.9 0.7 1.8-0.8 0.3-1.7 0.7-0.3-0.9-0.7-1.7z"/>
			<path id="&lt;Path&gt;" class="s3" d="m25.7 99c-0.5 0.8-0.9 1.6-2.1 2.2-0.7-1.3 1-1.7 2.1-2.2z"/>
			<g id="&lt;Group&gt;">
				<path id="&lt;Path&gt;" class="s1" d="m19.8 104.1q0.9-0.3 1.7-0.7 0.4 1 0.9 2-0.9 0.4-1.7 0.7-0.5-1-0.9-2z"/>
			</g>
			<path id="&lt;Path&gt;" class="s3" d="m159.8 46.1c1.1-0.6 1 1.7 1.6 2.4-4.9 2.3-9.2 4.9-14.5 7q-0.5-1.1-0.9-2.2c4.8-2.3 9.4-4.7 13.8-7.2z"/>
			<g id="&lt;Group&gt;">
				<g id="&lt;Group&gt;">
					<path id="&lt;Compound Path&gt;" fill-rule="evenodd" class="s5" d="m84.1 79.5c1.7 4.6 4.1 7.8 6 12-2.2 1.9-4.5 3.8-7.1 5.6-1.9-5.3-4.3-9.4-6.3-14.5 2.7-0.8 4.8-3 7.4-3.1zm-0.3 16.3c1.3-3.9-3.4-9.2-4.9-13.4-0.4 0.1-0.6-0.2-1 0.1 2 4.3 3.7 9.6 5.9 13.3z"/>
				</g>
			</g>
			<path id="&lt;Path&gt;" class="s3" d="m141.6 55.8c0.8 0.3 1.3 1.1 2.2 1.1-1.1 1-3.3 1.6-4.6 2.6-0.5-1.8 0-3.2 2.4-3.7z"/>
			<g id="&lt;Group&gt;">
				<path id="&lt;Path&gt;" class="s1" d="m22.4 106.4c0.9 0.1 1 1.9 1.5 2.7-0.9 0.2-0.6 0.9-1.6 1q-0.6-1.4-1.2-2.8c0.4-0.4 1.6-0.3 1.3-0.9z"/>
			</g>
			<path id="&lt;Path&gt;" class="s3" d="m134.1 60.9c-13.1 7.8-32.3 14.7-46.3 20.4 2.4-2.8 6.4-3.5 10-5.2 9.5-4.4 20.4-9 29.3-13.3 1.9-0.9 5.2-3.7 7-1.9z"/>
			<g id="&lt;Group&gt;">
				<path id="&lt;Path&gt;" class="s2" d="m162.4 50.1c1.1 1.3 2.4 3.6 3 5.4-11.9 5.4-25.5 10-36.1 15.8 10.5-3.6 21.9-9.1 32.9-13.1 1.1-0.4 3.3-1.6 4.4-0.5 0.5 2.6-2.7 2.2-4.2 2.8-8.3 3.1-16.8 7.7-25.6 11 9.7-2.3 21-8.9 31-11.9 0.3 1.6 2.1 1.8 1.8 2.9-26.5 10-52.3 22.3-78 33.4q2.5-1.6 2.2-4.3c6.7-2.8 12.8-5.8 19.2-8.7-6.4 0.8-13.5 6-19.9 7.6-0.3-0.6-0.9-0.6-1-1.5 10.3-5.7 23-10.5 33.1-16.3-11 3.2-22.3 10.3-33.7 14.8-1-1.2-1.9-2.7-2.6-4.6 14.4-7 31.6-12.9 45.6-20.1 1.3-1 1.2 1.8 2.1 1.8 1.6 0 1.8-2.4 2.2-3.6 7.9-3.5 16-8.1 23.6-10.9z"/>
			</g>
			<path id="&lt;Path&gt;" class="s3" d="m75.8 87c0.4 2.2-3.7 2.9-5.2 3.6-13.3 6.2-29.1 13.9-43.2 18.1 14.1-7.7 33.5-15.8 48.4-21.7z"/>
			<path id="&lt;Path&gt;" class="s3" d="m22.9 111.5q0.9-0.3 1.7-0.7c0.6 1.1 0.1 1.8-1.1 2.2q-0.3-0.7-0.6-1.5z"/>
			<g id="&lt;Group&gt;">
				<path id="&lt;Path&gt;" class="s4" d="m76.6 89c0.5 1.6 1.5 2 1.9 3.6-8.2 4.2-17.8 7.8-27 11.7-7.8 3.2-15.2 8.5-23 9.3-0.2-1.4 2.8-2 4.9-2.7 10.1-3.7 22.4-8.5 32.3-13.6-10.3 3.9-21.3 8.8-32 12.7-1.8 0.7-4.7 3.3-6.3 1 0.2-2.1 3.8-2.4 5.8-3.1 14.1-5.1 29.7-12.5 43.4-18.9z"/>
			</g>
			<path id="&lt;Path&gt;" class="s3" d="m25.4 113.5c0.6 0.3 1.2 1.7 1 2.3q-0.7 0.3-1.4 0.6c-0.7-1.3-1.2-2.5 0.4-2.9z"/>
			<g id="&lt;Group&gt;">
				<path id="&lt;Path&gt;" class="s4" d="m79.2 94.3q0.4 0.9 0.7 1.8c-4 3.6-10.1 5-15.6 7.5-10.9 5-22.7 10-34.1 13.3 14-8.1 33.4-16.7 49-22.6z"/>
			</g>
			<g id="&lt;Group&gt;">
				<path id="&lt;Path&gt;" class="s1" d="m25.6 117.8q0.8-0.3 1.7-0.7 0.3 0.9 0.7 1.7c-0.9 0.1-0.6 0.7-1.3 0.9-0.2-1.1-0.9-0.9-1.1-1.9z"/>
			</g>
			<g id="&lt;Group&gt;">
				<path id="&lt;Path&gt;" class="s2" d="m31 117.9c12.1-3.8 25-9.8 37.9-15.2 3.2-1.4 11.2-5.3 12-4.4 0.1 0.2 0.4 0.9 0.5 1.2 0.1 1.9-8.1 4.4-11.7 5.9-11.9 5-26.5 11.8-37.6 16.1-0.2-1.2-1.5-2.7-1.1-3.6z"/>
			</g>
			<g id="&lt;Group&gt;">
				<path id="&lt;Path&gt;" class="s1" d="m28.8 119.9c0.2 1.2 0.9 1.5 1.3 2.4q-0.8 0.4-1.7 0.7c-0.3-0.9-1-1-1.2-2.1 0.9-0.2 0.6-0.9 1.6-1z"/>
			</g>
			<g id="&lt;Group&gt;">
				<path id="&lt;Path&gt;" class="s1" d="m175.8 65.9c-33.5 15.8-69.3 28.7-101.3 44.5-6.8 3.4-14.5 5.8-21.6 8.4-7.3 2.7-14.2 6.1-21.6 8-0.1-1.7 3.3-2.3 5.1-3.1 13.9-5.8 28.6-11.7 42.5-18.1 15.9-7.4 32.3-13.7 47.9-21.1 16.2-7.7 32.9-13.3 49-18.6z"/>
			</g>
			<g id="&lt;Group&gt;">
				<path id="&lt;Path&gt;" class="s1" d="m188 65.5c0.7 2.9-4.5 4.1-7.1 5.4-34.1 16.1-70.9 30.7-106.7 44.4-11.4 4.3-22.7 8.9-34.2 12.9-1.2 0.5-2.9 2.1-4.4 0.9 46.2-17.2 94.2-37 138.2-58.3 4.4-2.1 9.5-4.3 14.2-5.3z"/>
			</g>
			<g id="&lt;Group&gt;">
				<path id="&lt;Path&gt;" class="s1" d="m34.4 135.6c1.1 0.8 1.4 3.3 1.1 4.3-1.7-0.2-0.6-3-1.1-4.3z"/>
			</g>
			<g id="&lt;Group&gt;">
				<g id="&lt;Group&gt;">
					<path id="&lt;Compound Path&gt;" fill-rule="evenodd" class="s2" d="m185.9 73.1c0.5 1.5 0.1 2.6 1.1 4.3-21.3 8.8-42.3 16.5-62.1 26.7 20.1-7.5 42.7-19.7 63.2-24.8-25.9 11.3-51.3 23.1-76.8 33.9-11.7 4.8-23.8 8.9-35.3 14.4-11.3 5.4-22.9 10.4-34.6 13.5 0.8-2.4 4.9-2.8 7.2-3.7 22.1-8.6 47.1-20.8 69.7-29.9-25.2 7.9-51.5 22.2-77.2 31.4-0.3-1.3 0-2.2-0.5-3.5 7.1-2.9 17.2-5.4 24.9-9.8-7.4 1.7-17.6 7-23.9 8 47.3-22.2 98.3-38.2 144.3-60.5zm-82.5 37.3c-11.2 3.7-24.4 9.1-35.4 14.2 10.7-3.6 24.4-9.6 35.4-14.2z"/>
				</g>
			</g>
			<path id="&lt;Path&gt;" class="s3" d="m35.3 142c1.2-0.8 2.1 1.7 0.5 1.8-0.6-0.8-0.2-1.2-0.5-1.8z"/>
			<path id="&lt;Path&gt;" class="s3" d="m189.6 81.3c-12.9 5.6-29.6 13.3-44.4 18.3 14.4-6.2 30.6-13.8 44.4-18.3z"/>
			<g id="&lt;Group&gt;">
				<path id="&lt;Path&gt;" class="s1" d="m36.1 145.3q0.7-0.3 1.4-0.6 0.4 1 0.8 2c-0.6 0.3-0.6 0.9-1.5 1-0.7-0.9-0.1-1.4-0.7-2.4z"/>
			</g>
			<g id="&lt;Group&gt;">
				<path id="&lt;Path&gt;" class="s5" d="m130.2 106.9q0.2-0.1 0.5-0.2c2.2 0.5 2.4 3.6 3.4 5.6 1.9 4 3.4 8.1 5.5 11.5 0-5.5-3.7-12.6-6.8-17.7q4.5-1.8 8.9-3.7c2.1 4.3 2.8 8.6 5.5 11.5 0.3-3.5-4.4-9.1-3.5-12.3 3.3 4.9 4.7 14.3 8.5 20.3-3.1-0.7-5.3-3.8-8.6-3.8-2.5 1.8-2.4 4.7-4.2 6.8-3.9-4-6.3-11.8-9.2-18z"/>
			</g>
			<g id="&lt;Group&gt;">
				<path id="&lt;Path&gt;" class="s4" d="m190.6 83.6q0.6 1.4 1.2 2.9c-13.2 5.2-27.6 10.3-41.1 14.8-1.1 0.4-3.2 2.4-4.2 0.5-0.1-1.9 3.2-2.3 4.5-2.9 12-5.7 27.5-11.7 39.6-15.3z"/>
			</g>
			<g id="&lt;Group&gt;">
				<path id="&lt;Path&gt;" class="s1" d="m36.8 148.7q1-0.4 2-0.8 0.4 1 0.9 2-1.2 0.5-2.3 0.9c-0.5-0.8 0.1-1.2-0.6-2.1z"/>
			</g>
			<g id="&lt;Group&gt;">
				<path id="&lt;Path&gt;" class="s2" d="m129.3 111.3q1.1 2.7 2.3 5.4c-28.6 12.2-58.5 25.4-87.5 35-0.2-1.2-0.6-2.4-1.2-3.8 28.8-11.7 57.1-25.4 86.4-36.6z"/>
			</g>
			<g id="&lt;Group&gt;">
				<path id="&lt;Path&gt;" class="s2" d="m191.6 88.5c-9 6.3-21.9 11-34.1 16.3 9.9-1.2 24.8-11.1 34.8-13.9 0.4 1.4-1.6 1.9-2.4 2.4-10.7 6.1-27.1 12.7-39.6 16.9-0.9-1.8 2.2-2 3.6-2.8-1.2-0.2-2.7 0.4-4.3 1.1q-1-2.4-2-4.9c14.7-5 29.4-10.2 44-15.1z"/>
			</g>
			<path id="&lt;Path&gt;" class="s3" d="m40.5 152.6c0.6 0.8-2.5 2.1-2.6 1.1 0.2-0.5 2-1.6 2.6-1.1z"/>
			<g id="&lt;Group&gt;">
				<path id="&lt;Path&gt;" class="s4" d="m132.1 117.9c-27.4 13.6-58.5 26.6-87.1 35.8q-0.2-0.3-0.3-0.6c-0.2-0.3-0.1-0.5 0.1-0.7 28.3-9.3 59.4-23 87.3-34.5z"/>
			</g>
			<g id="&lt;Group&gt;">
				<path id="&lt;Path&gt;" class="s1" d="m39.1 155.8q1.2-0.5 2.3-0.9c0.6 0.7-0.1 1 0.5 1.8-1.2 0.2-1.1 1-2.2 1.2-0.3-0.7-0.8-1.5-0.6-2.1z"/>
			</g>
			<g id="&lt;Group&gt;">
				<path id="&lt;Path&gt;" class="s4" d="m45.2 154.3c26.7-8.2 55.4-20.3 83.6-33 1-0.5 3.8-2.7 4.6-1 1.2 2.4-7.2 4.7-9.4 5.6-25.6 10.8-53.2 22.5-77.9 31.4q-0.4-1-0.8-2c-0.2-0.4-0.4-0.8-0.1-1z"/>
			</g>
			<path id="&lt;Path&gt;" class="s3" d="m192.7 93.5c1.4-0.4 0.5 1.7 1.5 2.7-14.1 4.8-29 13.1-42.7 17.6-1.1-3.4 4.1-3.5 6.5-4.5 10.6-4.1 25.5-11 34.7-15.8z"/>
			<g id="&lt;Group&gt;">
				<path id="&lt;Path&gt;" class="s1" d="m40.3 159.4q1.1-0.5 2.3-1 0.3 0.7 0.6 1.4c-1.2 0.3-1.1 1-2.2 1.3q-0.4-0.9-0.7-1.7z"/>
			</g>
			<g id="&lt;Group&gt;">
				<path id="&lt;Path&gt;" class="s2" d="m130.3 125c-25.9 12.1-53.9 23.8-81.2 34.7 28.4-9.2 57.5-23.5 86-35.4 0.8 1.5 1.6 3.1 2.5 4.4-7.6 4.4-17.5 6.5-25 10.8 7.7-1.9 16.5-6.1 24.9-9.5 1.3-0.7 1.6 1.3 2.5 1.3 1.3-4 11.7-7.5 15-5.9 1.3-0.5-0.5-2.3 0.9-2.7 14-6.4 29.3-13.5 43.9-18.8 2.1 3.4-2.5 4.1-4.1 4.8-43 18-88 35.9-128.8 54-2.7 1.1-5.5 2.1-8.2 3-2.1 0.8-4.9 2.9-7.1 1.4-0.4-2 2.2-1.6 3.2-2 17.1-7 35.5-15.4 53.2-23-18.7 5.2-39 16.5-57.4 23.4-1.4-2.7-2.7-5.4-4.2-7.7 27.2-8.5 56.1-23.5 83.9-32.8z"/>
			</g>
			<g id="&lt;Group&gt;">
				<path id="&lt;Path&gt;" class="s4" d="m195.9 97.8c-0.6 2.4-3.8 2.4-6.1 3.2-9.5 3.5-21.6 8.2-30.9 12-1.4 0.6-2.9 0.4-3.5 1.2 1.4-1.9 4.6-2.2 6.4-3.1 7.8-4 16.9-8.2 26.3-11.7 2.6-0.9 5.7-2.8 7.8-1.6z"/>
			</g>
			<path id="&lt;Path&gt;" class="s3" d="m43.2 161.5c0.6-0.2 0.9 0.5 1.2 1.2q-1 0.4-2 0.8c-0.2-0.5-0.6-0.4-0.8-1 0.4-0.4 1.8-0.4 1.6-1z"/>
			<g id="&lt;Group&gt;">
				<path id="&lt;Path&gt;" class="s4" d="m153.5 116.9c9.8-3.8 24.4-9.5 35.4-14.1 3.3-1.4 7.9-4.7 10-0.9-13.7 6.9-29.5 13-44.2 19.6-0.3-1.5-2.1-3.6-1.2-4.6z"/>
			</g>
			<path id="&lt;Path&gt;" class="s3" d="m148.9 124.3c-2.6 0.4-4.1 1.9-6.9 2.8-0.1-1.9 1.4-3.2 1.6-5 2.2-0.3 3.6 1.2 5.3 2.2z"/>
			<path id="&lt;Path&gt;" class="s3" d="m43.3 164.8c1.3-0.6 2.2-0.4 2.7 0.9-0.2 0.5-0.9 0.8-1.6 1-0.6-0.2-0.8-1.1-1.1-1.9z"/>
			<path id="&lt;Path&gt;" class="s3" d="m45.1 167.7q0.6-0.2 1.2-0.4c0.2 1.1 1.1 1.3 0.8 2-1.2 0.8-1.5-0.5-2-1.6z"/>
			<path id="&lt;Path&gt;" class="s3" d="m46.7 170.8c-0.3-0.6 1-0.6 1.4-0.9q0.2 0.6 0.4 1.1c-0.3-0.1-0.9-0.1-0.8 0.4-0.5 0.1-0.5-0.8-1-0.6z"/>
			<g id="&lt;Group&gt;">
				<path id="&lt;Path&gt;" class="s1" d="m205.9 109.8c-9 5.8-20.8 9.5-30.9 13.6-38.8 15.7-77.7 31.5-116.7 48.6 15.2-10.2 34.2-15.7 52-24.2 31.1-14.8 65.8-25.6 95.6-38z"/>
			</g>
			<g id="&lt;Group&gt;">
				<path id="&lt;Path&gt;" class="s1" d="m229.5 106.6c-12 5.6-24.4 10.5-36.9 15.5-12.5 4.9-24.9 10.5-37.5 15.4-12.5 4.7-25 8.8-37.2 13.9-12.2 5.1-24 11.3-36.1 16.4-14.1 6-30.1 11.1-44.5 18-1.7 0.8-3.4 2.8-5.4 1.6 25.5-12.9 53.4-21.9 79.3-34.3 5.1-2.4 12.7-5.6 18.8-8.2 16.1-6.6 32.9-13 49.7-19.1 16.9-6.2 33.1-14.2 49.8-19.2z"/>
			</g>
			<g id="&lt;Group&gt;">
				<path id="&lt;Path&gt;" class="s2" d="m230.6 112.5c1 2.4-2.6 2.7-3.7 3.2-26.8 11.6-54.8 23.3-81.6 34.6 26.2-9.2 54.2-22.7 80.6-32.1q2.1-0.9 4.3-1.8c2.3-0.7-1.1 0.9-1.9 1.1-13.1 5.8-26.3 11.5-39.9 17.1 13.2-3.1 29.2-12.3 43.1-16.7-27.9 13.2-56.8 24.8-85.9 37-9.5 3.9-18.6 8.7-28 12.7-12.7 5.4-26.2 9.5-39 14.3-13 4.9-25.2 11.3-38.2 14.7 15.1-6.9 31.3-12.1 47.1-19.1 31.7-14 64.8-25.3 95.7-41.1-47.9 20-95 40.5-143 58.9 6-4.5 13.7-6.4 20.9-9.4 23.7-9.9 49.1-20.7 71.9-30.5-30.4 9.8-64.5 27.7-93.6 37.9-1.3-5.4 6.7-6.6 12-9 15.4-7 35-14.8 49.5-21.4 22.3-10.3 47.7-17.7 71.4-27.6 19.7-8.3 38.9-17.3 58.3-22.8z"/>
			</g>
			<g id="&lt;Group&gt;">
				<path id="&lt;Path&gt;" class="s1" d="m32.9 192.3c0.8 0 1.4 0.2 2.3-0.2 0 0.7 0.3 1.5 0.2 2.2-0.5-0.2-1.3 0.2-2.1 0.6-0.5-1-0.3-1.8-0.4-2.6z"/>
			</g>
			<g id="&lt;Group&gt;">
				<path id="&lt;Path&gt;" class="s1" d="m33.6 197.1q1-0.4 2-0.8c0.3 0.6-0.1 1 0.4 1.8-0.4 0.2-1.1 0.3-1 0.8-0.8 0.3-1-1-1.4-1.8z"/>
			</g>
			<g id="&lt;Group&gt;">
				<path id="&lt;Path&gt;" class="s1" d="m34.7 200.7q0.9-0.4 1.8-0.8c0.3 0.8 0.8 1.6 0.5 2.1-0.4 0-0.9 0-1.5 0.4q-0.4-0.9-0.8-1.7z"/>
			</g>
			<g id="&lt;Group&gt;">
				<path id="&lt;Path&gt;" class="s2" d="m41.4 198.2c32-13.8 65-24.1 96.2-39 10.7-5.1 21.9-8.8 32.7-13.4 17.5-7.3 37.5-16.5 55.5-23.9 1-0.4 2.6-0.9 3.8-1.3 0.8-0.2 2.7-1.4 3.4 0 0.4 3.6-7.1 4.6-10.3 6-27.1 11.3-59.9 24-88.8 35.8 24.8-8.3 50.4-20 75.7-29.3 4.3-1.6 8.5-3 12.6-4.6 3.8-1.6 7.8-3.6 11.9-3.7-15.7 6.4-29.8 13.9-45.6 19.5 3.7 0.4 7.5-1.9 11.3-3.4 11.3-4.8 24.4-10.9 34.8-14 0.5 2.5-3.2 3.3-4.7 4-14.8 7-32.2 13.6-46.8 20.7 15.3-5.1 33.1-13.5 49.4-20.1 0.3-0.1 1.9-1.8 2.3-0.2 2.3 2.8-1.8 3.3-3.7 4.2-2.2 1-4.8 2.4-6.4 3-29 11.3-59.8 24.8-90.6 36.3-22.5 8.4-45.3 17.7-68.5 27.4-3.3 1.4-7.5 3-11.2 4.3-2.9 1-7.4 4.2-9.5 0 1-1.2 3.4-1.1 5.6-2 38.4-15.5 85.9-34.1 125.3-49.5-10.8 2.8-21.9 7.4-33 11.8-10.9 4.3-22.3 7.6-33.2 12.2-19.6 8.2-39.5 16.1-59 23.4-2.2 0.8-5 3.2-7.3 1 0.3-1.9 2.9-2.2 4.2-2.7 12.3-5.3 27.5-11.5 40.3-16.9 31.3-13.3 63.9-23.6 94.2-36.5-42.6 14.2-87.8 33.2-132.3 50.5-1.4 0.5-3 1.1-4.4 1.5-0.9 0.2-2.8 1.8-3.7 0.1-0.1-0.4-0.6-1-0.2-1.2z"/>
			</g>
			<g id="&lt;Group&gt;">
				<path id="&lt;Path&gt;" class="s1" d="m37.9 203.4c0.3 0.6 0.6 1.3 0.4 1.8q-0.5 0.2-1.1 0.5c-0.4-0.3-0.7-0.6-0.9-1.3 0.2-0.5 0.9-0.8 1.6-1z"/>
			</g>
			<g id="&lt;Group&gt;">
				<path id="&lt;Path&gt;" class="s1" d="m39.2 206.5q0.4 0.9 0.7 1.7-0.7 0.3-1.4 0.6c-0.4-0.2-0.7-0.6-0.9-1.3 0.2-0.5 0.9-0.7 1.6-1z"/>
			</g>
			<path id="&lt;Path&gt;" class="s3" d="m41.1 210.1c1.1 0.9-1.1 1.7-1.5 1.3-1.1-1 1.1-1.7 1.5-1.3z"/>
			<path id="&lt;Path&gt;" class="s3" d="m41 213.1c0.9-0.3 1.8-0.9 2.1 0.2-0.4 0.9-1.8 0.8-2.1-0.2z"/>
			<g id="&lt;Group&gt;">
				<path id="&lt;Path&gt;" class="s1" d="m77 202.1c-0.1-0.3 0.3-0.4 0.5-0.5 27.3-11.4 54.8-22.4 82.2-32.2 20.2-7.2 41.2-15.6 61.8-24.2 6.4-2.7 12.1-7.1 18.9-7.6-52.6 25.5-109.9 45.3-163.4 64.5z"/>
			</g>
			<g id="&lt;Group&gt;">
				<g id="&lt;Group&gt;">
					<path id="&lt;Compound Path&gt;" fill-rule="evenodd" class="s1" d="m35.1 160.5c-0.1 6.5 5.3 12.8 9.2 15-3.4 0.2-6.8-5.2-8.6-8.5-1.3-2.5-2.3-5.8-3.4-9-1.7-5.3-3.5-13.2-4.3-18.3-0.4-2.4-0.7-6.6 2.4-6.4 0.8 6.4 1.3 15.6 4.7 24.2 2.3 5.7 6.1 12.4 8.5 16.2-3.8-2-5.9-8.2-8.5-13.2zm-0.9-3.6c0.3-0.6-0.3-1.6-1.2-1.2-0.3 0.8 0.5 1.2 1.2 1.2z"/>
				</g>
			</g>
			<g id="&lt;Group&gt;">
				<path id="&lt;Path&gt;" class="s1" d="m29.3 192.5c1.7 4.8 3.4 13.6 6.7 18.4-3.4-2.1-7-13.6-6.7-18.4z"/>
			</g>
			<g id="&lt;Group&gt;">
				<path id="&lt;Path&gt;" class="s1" d="m25.3 196.5c1.4 4.7 4.6 12.4 7.6 16.7-4.2-1.7-8.9-12.1-7.6-16.7z"/>
			</g>
			<g id="&lt;Group&gt;">
				<path id="&lt;Path&gt;" class="s4" d="m128 108.2c-7.1 3.7-15.5 5.7-23.3 9.4 7.4-1.3 16-6 23.8-8.3-20.3 9.3-43.9 18.9-64.6 28.7-5.4 2.6-11.2 4.6-16.7 6.7-1.4 0.5-3.3 2.3-4.9 1.1 0.8-1.8 3.3-2.2 4.9-2.8 14.8-5.5 33.8-13.5 49-20.9-11.8 2.8-23.7 10.2-35.8 14.7-6.3 2.4-12.3 5-18.5 7.1q-0.2-0.4-0.4-0.8c0.2-0.2 0.2-0.4 0.5-0.6 19.5-7.3 39.6-15.9 59.6-24.3 6.7-2.8 12.9-5.4 20-8.4 2-0.8 4.2-2.5 6.4-1.6z"/>
			</g>
		</g>
	</g>
</svg>